<svg width="45" height="45" viewBox="0 0 45 45" fill="none" xmlns="http://www.w3.org/2000/svg">
<path id="Vector" fill-rule="evenodd" clip-rule="evenodd" d="M17.0829 2.70061C16.535 3.16756 16.261 3.40106 15.9684 3.59717C15.2977 4.04672 14.5444 4.35873 13.7522 4.51513C13.4067 4.58337 13.0478 4.61199 12.3302 4.66925C10.5271 4.81316 9.6255 4.88509 8.87335 5.15077C7.13365 5.76525 5.76525 7.13365 5.15077 8.87335C4.88509 9.6255 4.81316 10.5271 4.66925 12.3302C4.61199 13.0478 4.58337 13.4067 4.51513 13.7522C4.35873 14.5444 4.04672 15.2977 3.59717 15.9684C3.40106 16.261 3.16758 16.535 2.70061 17.0829C1.52737 18.4597 0.940731 19.148 0.596751 19.8677C-0.198917 21.5325 -0.198917 23.4675 0.596751 25.1323C0.940753 25.8521 1.52737 26.5403 2.70061 27.9171C3.16751 28.465 3.40106 28.739 3.59717 29.0315C4.04672 29.7023 4.35873 30.4556 4.51513 31.2478C4.58337 31.5934 4.61199 31.9523 4.66925 32.6698C4.81316 34.4729 4.88509 35.3745 5.15077 36.1267C5.76525 37.8664 7.13365 39.2348 8.87335 39.8493C9.6255 40.1148 10.5271 40.1868 12.3302 40.3308C13.0478 40.388 13.4067 40.4168 13.7522 40.4849C14.5444 40.6413 15.2977 40.9534 15.9684 41.4029C16.261 41.5989 16.535 41.8325 17.0829 42.2993C18.4597 43.4727 19.148 44.0593 19.8677 44.4033C21.5325 45.1989 23.4675 45.1989 25.1323 44.4033C25.8521 44.0593 26.5403 43.4727 27.9171 42.2993C28.465 41.8325 28.739 41.5989 29.0315 41.4029C29.7023 40.9534 30.4556 40.6413 31.2478 40.4849C31.5934 40.4168 31.9523 40.388 32.6698 40.3308C34.4729 40.1868 35.3745 40.1148 36.1267 39.8493C37.8664 39.2348 39.2348 37.8664 39.8493 36.1267C40.1148 35.3745 40.1868 34.4729 40.3308 32.6698C40.388 31.9523 40.4168 31.5934 40.4849 31.2478C40.6413 30.4556 40.9534 29.7023 41.4029 29.0315C41.5989 28.739 41.8325 28.465 42.2993 27.9171C43.4727 26.5403 44.0593 25.8521 44.4033 25.1323C45.1989 23.4675 45.1989 21.5325 44.4033 19.8677C44.0593 19.148 43.4727 18.4597 42.2993 17.0829C41.8325 16.535 41.5989 16.261 41.4029 15.9684C40.9534 15.2977 40.6413 14.5444 40.4849 13.7522C40.4168 13.4067 40.388 13.0478 40.3308 12.3302C40.1868 10.5271 40.1148 9.6255 39.8493 8.87335C39.2348 7.13365 37.8664 5.76525 36.1267 5.15077C35.3745 4.88509 34.4729 4.81316 32.6698 4.66925C31.9523 4.61199 31.5934 4.58337 31.2478 4.51513C30.4556 4.35873 29.7023 4.04672 29.0315 3.59717C28.739 3.40106 28.465 3.16758 27.9171 2.70061C26.5403 1.52737 25.8521 0.940753 25.1323 0.596751C23.4675 -0.198917 21.5325 -0.198917 19.8677 0.596751C19.148 0.940731 18.4597 1.52737 17.0829 2.70061ZM32.3404 17.6921C33.0554 16.9769 33.0554 15.8175 32.3404 15.1024C31.6253 14.3872 30.4657 14.3872 29.7506 15.1024L18.8377 26.0154L15.2493 22.4271C14.5342 21.7121 13.3747 21.7121 12.6596 22.4271C11.9445 23.1422 11.9445 24.3016 12.6596 25.0169L17.5428 29.9C18.2579 30.6151 19.4173 30.6151 20.1326 29.9L32.3404 17.6921Z" fill="#27E1C1"/>
</svg>
