<svg width="203" height="30" viewBox="0 0 203 30" fill="none" xmlns="http://www.w3.org/2000/svg">
<path d="M53.6215 5.06051V0.738091H58.3638V5.06051H53.6215ZM53.6832 23.5234V7.24643H58.265V23.5234H53.6832Z" fill="white"/>
<path d="M76.7034 13.2113V23.5234H72.1216V14.1993C72.1216 11.3836 71.0472 10.0868 69.1206 10.0868C67.2311 10.0868 66.1196 11.3712 66.1196 14.2487V23.5111H61.5379V7.24639H66.0949V10.5685C66.8483 8.53077 68.429 6.8759 71.2818 6.8759C75.0856 6.88825 76.7034 9.61755 76.7034 13.2113Z" fill="white"/>
<path d="M96.4628 15.3973C96.4628 20.2878 93.7705 23.8816 89.7445 23.8816C87.2251 23.8816 85.2121 22.3502 84.3476 20.2507V29.3896H79.7906V7.2464H84.3476V10.9019C85.0639 8.77777 86.8917 6.88826 89.7445 6.88826C93.7582 6.88826 96.4628 10.5067 96.4628 15.3973ZM91.7822 15.3973C91.7822 12.0752 90.4608 10.0004 87.9785 10.0004C85.4962 10.0004 84.1748 12.0752 84.1748 15.3973C84.1748 18.6946 85.4962 20.7694 87.9785 20.7694C90.4608 20.7694 91.7822 18.6946 91.7822 15.3973Z" fill="white"/>
<path d="M114.061 13.2114V23.5234H109.48V14.1994C109.48 11.3836 108.405 10.0869 106.479 10.0869C104.589 10.0869 103.478 11.3713 103.478 14.2487V23.5111H98.896V0.738091H103.453V10.5685C104.206 8.5308 105.787 6.87593 108.64 6.87593C112.444 6.88828 114.061 9.61758 114.061 13.2114Z" fill="white"/>
<path d="M116.272 15.3973C116.272 10.3956 119.545 6.88826 124.756 6.88826C129.968 6.88826 133.24 10.3956 133.24 15.3973C133.24 20.3742 129.968 23.8816 124.756 23.8816C119.545 23.8816 116.272 20.3742 116.272 15.3973ZM128.572 15.3973C128.572 12.0752 127.251 10.0004 124.769 10.0004C122.286 10.0004 120.965 12.0752 120.965 15.3973C120.965 18.6946 122.286 20.7694 124.769 20.7694C127.251 20.7694 128.572 18.6946 128.572 15.3973Z" fill="white"/>
<path d="M150.777 13.2113V23.5234H146.196V14.1993C146.196 11.3836 145.121 10.0868 143.195 10.0868C141.305 10.0868 140.194 11.3712 140.194 14.2487V23.5111H135.612V7.24639H140.169V10.5685C140.922 8.53077 142.503 6.8759 145.356 6.8759C149.16 6.88825 150.777 9.61755 150.777 13.2113Z" fill="white"/>
<path d="M153.815 5.06051V0.738091H158.557V5.06051H153.815ZM153.864 23.5234V7.24643H158.446V23.5234H153.864Z" fill="white"/>
<path d="M171.438 20.1642V23.5233H168.857C165.646 23.5233 163.25 21.9302 163.25 18.6946V10.6055H160.225V7.24632H163.25V3.40553H167.832V7.24632H171.401V10.6055H167.832V18.3364C167.832 19.7443 168.524 20.1642 169.845 20.1642H171.438Z" fill="white"/>
<path d="M185.171 7.24645H190L183.59 29.402H178.885L181.046 21.8439H177.181L172.389 7.24645H177.008L181.293 20.9177L185.171 7.24645Z" fill="white"/>
<path d="M32.6391 1.55311L32.565 1.47902C32.5156 1.42962 32.4662 1.38022 32.4168 1.33082L32.1328 1.05912L25.5627 7.78975C17.2636 -0.138806 7.39616 -2.33707 2.4933 2.68929C-0.0754539 5.33215 -0.680593 9.35818 0.776681 14.0511C2.01166 18.003 4.64216 22.1032 8.21125 25.6475L8.72994 26.1539L15.3 19.4109C18.9309 22.8812 23.1051 25.4005 27.0817 26.5367C29.0206 27.0925 30.836 27.2901 32.4909 27.1666C34.8621 26.9813 36.8874 26.0921 38.3941 24.5361C43.297 19.485 40.8147 9.65457 32.6391 1.55311ZM34.0223 20.2754C33.1084 21.2016 31.1448 21.3498 28.7366 20.6706C25.6615 19.7937 22.2159 17.6572 19.2767 14.7921L18.4122 13.977L11.8544 20.7076C9.05103 17.9042 7.53201 15.1873 6.59343 12.2233C5.85244 9.83982 5.95124 7.86385 6.85277 6.93762C7.76666 6.01138 9.74262 5.86319 12.1385 6.54243C15.1518 7.40691 18.5357 9.48167 21.4379 12.2727L22.4258 13.2113L28.9836 6.48068C35.072 12.5321 35.813 18.4353 34.0223 20.2754Z" fill="white"/>
<path d="M193 12.0476C193 11.1111 193.217 10.2619 193.651 9.5C194.101 8.72222 194.705 8.11111 195.465 7.66667C196.225 7.22222 197.062 7 197.977 7C198.907 7 199.752 7.22222 200.512 7.66667C201.287 8.11111 201.891 8.71429 202.326 9.47619C202.775 10.2381 203 11.0873 203 12.0238C203 12.9444 202.775 13.7857 202.326 14.5476C201.891 15.3095 201.287 15.9127 200.512 16.3571C199.752 16.7857 198.907 17 197.977 17C197.062 17 196.225 16.7857 195.465 16.3571C194.705 15.9127 194.101 15.3175 193.651 14.5714C193.217 13.8095 193 12.9683 193 12.0476ZM201.814 12.0238C201.814 11.2778 201.643 10.6032 201.302 10C200.977 9.39683 200.519 8.92857 199.93 8.59524C199.357 8.24603 198.705 8.07143 197.977 8.07143C197.264 8.07143 196.612 8.24603 196.023 8.59524C195.45 8.92857 194.992 9.40476 194.651 10.0238C194.326 10.627 194.163 11.3016 194.163 12.0476C194.163 12.7778 194.326 13.4444 194.651 14.0476C194.992 14.6349 195.45 15.1032 196.023 15.4524C196.612 15.7857 197.264 15.9524 197.977 15.9524C198.705 15.9524 199.357 15.7857 199.93 15.4524C200.519 15.1032 200.977 14.627 201.302 14.0238C201.643 13.4206 201.814 12.754 201.814 12.0238ZM198.186 9.30952C198.822 9.30952 199.326 9.46825 199.698 9.78571C200.07 10.1032 200.256 10.5317 200.256 11.0714C200.256 11.4365 200.155 11.7619 199.953 12.0476C199.767 12.3175 199.496 12.5159 199.14 12.6429L200.302 14.7381H199.023L198 12.881H197.256V14.7381H196.093V9.30952H198.186ZM197.256 11.9048H198.116C198.395 11.9048 198.62 11.8333 198.791 11.6905C198.961 11.5317 199.047 11.3254 199.047 11.0714C199.047 10.8175 198.961 10.627 198.791 10.5C198.636 10.3571 198.411 10.2857 198.116 10.2857H197.256V11.9048Z" fill="white"/>
</svg>
