<svg width="203" height="30" viewBox="0 0 203 30" fill="none" xmlns="http://www.w3.org/2000/svg">
<g id="Group 17266">
<g id="Logo Inphonity">
<g id="Inphonity">
<path d="M53.6211 5.0607V0.738281H58.3634V5.0607H53.6211ZM53.6828 23.5236V7.24662H58.2646V23.5236H53.6828Z" fill="black"/>
<path d="M76.703 13.2115V23.5236H72.1213V14.1995C72.1213 11.3838 71.0468 10.087 69.1203 10.087C67.2307 10.087 66.1193 11.3714 66.1193 14.2489V23.5112H61.5375V7.24658H66.0946V10.5687C66.8479 8.53096 68.4287 6.87609 71.2815 6.87609C75.0852 6.88844 76.703 9.61774 76.703 13.2115Z" fill="black"/>
<path d="M96.4624 15.3974C96.4624 20.288 93.7702 23.8817 89.7441 23.8817C87.2248 23.8817 85.2118 22.3504 84.3473 20.2509V29.3897H79.7902V7.24659H84.3473V10.9021C85.0636 8.77796 86.8913 6.88845 89.7441 6.88845C93.7578 6.88845 96.4624 10.5069 96.4624 15.3974ZM91.7818 15.3974C91.7818 12.0754 90.4604 10.0006 87.9781 10.0006C85.4958 10.0006 84.1744 12.0754 84.1744 15.3974C84.1744 18.6948 85.4958 20.7696 87.9781 20.7696C90.4604 20.7696 91.7818 18.6948 91.7818 15.3974Z" fill="black"/>
<path d="M114.061 13.2116V23.5236H109.479V14.1995C109.479 11.3838 108.405 10.0871 106.478 10.0871C104.589 10.0871 103.477 11.3714 103.477 14.2489V23.5113H98.8956V0.738281H103.453V10.5687C104.206 8.53099 105.787 6.87612 108.64 6.87612C112.443 6.88847 114.061 9.61777 114.061 13.2116Z" fill="black"/>
<path d="M116.272 15.3974C116.272 10.3958 119.544 6.88845 124.756 6.88845C129.967 6.88845 133.24 10.3958 133.24 15.3974C133.24 20.3744 129.967 23.8817 124.756 23.8817C119.544 23.8817 116.272 20.3744 116.272 15.3974ZM128.572 15.3974C128.572 12.0754 127.25 10.0006 124.768 10.0006C122.286 10.0006 120.964 12.0754 120.964 15.3974C120.964 18.6948 122.286 20.7696 124.768 20.7696C127.25 20.7696 128.572 18.6948 128.572 15.3974Z" fill="black"/>
<path d="M150.777 13.2115V23.5236H146.195V14.1995C146.195 11.3838 145.121 10.087 143.194 10.087C141.305 10.087 140.193 11.3714 140.193 14.2489V23.5112H135.611V7.24658H140.169V10.5687C140.922 8.53096 142.503 6.87609 145.355 6.87609C149.159 6.88844 150.777 9.61774 150.777 13.2115Z" fill="black"/>
<path d="M153.815 5.0607V0.738281H158.557V5.0607H153.815ZM153.864 23.5236V7.24662H158.446V23.5236H153.864Z" fill="black"/>
<path d="M171.438 20.1644V23.5235H168.857C165.646 23.5235 163.25 21.9304 163.25 18.6948V10.6056H160.224V7.24651H163.25V3.40573H167.832V7.24651H171.401V10.6056H167.832V18.3366C167.832 19.7445 168.523 20.1644 169.845 20.1644H171.438Z" fill="black"/>
<path d="M185.171 7.24664H190L183.59 29.4021H178.885L181.046 21.8441H177.181L172.389 7.24664H177.008L181.293 20.9178L185.171 7.24664Z" fill="black"/>
</g>
<path id="Isotipo" d="M32.6391 1.55311L32.565 1.47902C32.5156 1.42962 32.4662 1.38022 32.4168 1.33082L32.1328 1.05912L25.5627 7.78975C17.2636 -0.138806 7.39616 -2.33707 2.4933 2.68929C-0.0754539 5.33215 -0.680593 9.35818 0.776681 14.0511C2.01166 18.003 4.64216 22.1032 8.21125 25.6475L8.72994 26.1539L15.3 19.4109C18.9309 22.8812 23.1051 25.4005 27.0817 26.5367C29.0206 27.0925 30.836 27.2901 32.4909 27.1666C34.8621 26.9813 36.8874 26.0921 38.3941 24.5361C43.297 19.485 40.8147 9.65457 32.6391 1.55311ZM34.0223 20.2754C33.1084 21.2016 31.1448 21.3498 28.7366 20.6706C25.6615 19.7937 22.2159 17.6572 19.2767 14.7921L18.4122 13.977L11.8544 20.7076C9.05103 17.9042 7.53201 15.1873 6.59343 12.2233C5.85244 9.83982 5.95124 7.86385 6.85277 6.93762C7.76666 6.01138 9.74262 5.86319 12.1385 6.54243C15.1518 7.40691 18.5357 9.48167 21.4379 12.2727L22.4258 13.2113L28.9836 6.48068C35.072 12.5321 35.813 18.4353 34.0223 20.2754Z" fill="black"/>
</g>
<path id="&#194;&#174;" d="M193 12.0476C193 11.1111 193.217 10.2619 193.651 9.5C194.101 8.72222 194.705 8.11111 195.465 7.66667C196.225 7.22222 197.062 7 197.977 7C198.907 7 199.752 7.22222 200.512 7.66667C201.287 8.11111 201.891 8.71429 202.326 9.47619C202.775 10.2381 203 11.0873 203 12.0238C203 12.9444 202.775 13.7857 202.326 14.5476C201.891 15.3095 201.287 15.9127 200.512 16.3571C199.752 16.7857 198.907 17 197.977 17C197.062 17 196.225 16.7857 195.465 16.3571C194.705 15.9127 194.101 15.3175 193.651 14.5714C193.217 13.8095 193 12.9683 193 12.0476ZM201.814 12.0238C201.814 11.2778 201.643 10.6032 201.302 10C200.977 9.39683 200.519 8.92857 199.93 8.59524C199.357 8.24603 198.705 8.07143 197.977 8.07143C197.264 8.07143 196.612 8.24603 196.023 8.59524C195.45 8.92857 194.992 9.40476 194.651 10.0238C194.326 10.627 194.163 11.3016 194.163 12.0476C194.163 12.7778 194.326 13.4444 194.651 14.0476C194.992 14.6349 195.45 15.1032 196.023 15.4524C196.612 15.7857 197.264 15.9524 197.977 15.9524C198.705 15.9524 199.357 15.7857 199.93 15.4524C200.519 15.1032 200.977 14.627 201.302 14.0238C201.643 13.4206 201.814 12.754 201.814 12.0238ZM198.186 9.30952C198.822 9.30952 199.326 9.46825 199.698 9.78571C200.07 10.1032 200.256 10.5317 200.256 11.0714C200.256 11.4365 200.155 11.7619 199.953 12.0476C199.767 12.3175 199.496 12.5159 199.14 12.6429L200.302 14.7381H199.023L198 12.881H197.256V14.7381H196.093V9.30952H198.186ZM197.256 11.9048H198.116C198.395 11.9048 198.62 11.8333 198.791 11.6905C198.961 11.5317 199.047 11.3254 199.047 11.0714C199.047 10.8175 198.961 10.627 198.791 10.5C198.636 10.3571 198.411 10.2857 198.116 10.2857H197.256V11.9048Z" fill="black"/>
</g>
</svg>
