<svg width="154" height="24" viewBox="0 0 154 24" fill="none" xmlns="http://www.w3.org/2000/svg">
<path d="M43.4189 4.09766V0.597656H47.2589V4.09766H43.4189ZM43.4689 19.0477V5.86766H47.1789V19.0477H43.4689Z" fill="white"/>
<path d="M62.1091 10.6976V19.0476H58.3991V11.4976C58.3991 9.21763 57.5291 8.16763 55.9691 8.16763C54.4391 8.16763 53.5391 9.20763 53.5391 11.5376V19.0376H49.8291V5.86763H53.5191V8.55763C54.1291 6.90763 55.4091 5.56763 57.7191 5.56763C60.7991 5.57763 62.1091 7.78763 62.1091 10.6976Z" fill="white"/>
<path d="M78.1089 12.4676C78.1089 16.4276 75.9289 19.3376 72.6689 19.3376C70.6289 19.3376 68.9989 18.0976 68.2989 16.3976V23.7976H64.6089V5.86764H68.2989V8.82764C68.8789 7.10764 70.3589 5.57764 72.6689 5.57764C75.9189 5.57764 78.1089 8.50764 78.1089 12.4676ZM74.3189 12.4676C74.3189 9.77764 73.2489 8.09764 71.2389 8.09764C69.2289 8.09764 68.1589 9.77764 68.1589 12.4676C68.1589 15.1376 69.2289 16.8176 71.2389 16.8176C73.2489 16.8176 74.3189 15.1376 74.3189 12.4676Z" fill="white"/>
<path d="M92.3591 10.6977V19.0477H88.6491V11.4977C88.6491 9.21766 87.7791 8.16766 86.2191 8.16766C84.6891 8.16766 83.7891 9.20766 83.7891 11.5377V19.0377H80.0791V0.597656H83.7691V8.55766C84.3791 6.90766 85.6591 5.56766 87.9691 5.56766C91.0491 5.57766 92.3591 7.78766 92.3591 10.6977Z" fill="white"/>
<path d="M94.1489 12.4676C94.1489 8.41764 96.7989 5.57764 101.019 5.57764C105.239 5.57764 107.889 8.41764 107.889 12.4676C107.889 16.4976 105.239 19.3376 101.019 19.3376C96.7989 19.3376 94.1489 16.4976 94.1489 12.4676ZM104.109 12.4676C104.109 9.77764 103.039 8.09764 101.029 8.09764C99.0189 8.09764 97.9489 9.77764 97.9489 12.4676C97.9489 15.1376 99.0189 16.8176 101.029 16.8176C103.039 16.8176 104.109 15.1376 104.109 12.4676Z" fill="white"/>
<path d="M122.089 10.6976V19.0476H118.379V11.4976C118.379 9.21763 117.509 8.16763 115.949 8.16763C114.419 8.16763 113.519 9.20763 113.519 11.5376V19.0376H109.809V5.86763H113.499V8.55763C114.109 6.90763 115.389 5.56763 117.699 5.56763C120.779 5.57763 122.089 7.78763 122.089 10.6976Z" fill="white"/>
<path d="M124.549 4.09766V0.597656H128.389V4.09766H124.549ZM124.589 19.0477V5.86766H128.299V19.0477H124.589Z" fill="white"/>
<path d="M138.819 16.3276V19.0476H136.729C134.129 19.0476 132.189 17.7576 132.189 15.1376V8.58757H129.739V5.86757H132.189V2.75757H135.899V5.86757H138.789V8.58757H135.899V14.8476C135.899 15.9876 136.459 16.3276 137.529 16.3276H138.819Z" fill="white"/>
<path d="M149.939 5.86768H153.849L148.659 23.8077H144.849L146.599 17.6877H143.469L139.589 5.86768H143.329L146.799 16.9377L149.939 5.86768Z" fill="white"/>
<path d="M26.4289 1.2576L26.3689 1.1976C26.3289 1.1576 26.2889 1.1176 26.2489 1.0776L26.0189 0.857604L20.6989 6.3076C13.9789 -0.112396 5.9889 -1.8924 2.0189 2.1776C-0.0610974 4.3176 -0.551097 7.5776 0.628903 11.3776C1.6289 14.5776 3.7589 17.8976 6.6489 20.7676L7.0689 21.1776L12.3889 15.7176C15.3289 18.5276 18.7089 20.5676 21.9289 21.4876C23.4989 21.9376 24.9689 22.0976 26.3089 21.9976C28.2289 21.8476 29.8689 21.1276 31.0889 19.8676C35.0589 15.7776 33.0489 7.8176 26.4289 1.2576ZM27.5489 16.4176C26.8089 17.1676 25.2189 17.2876 23.2689 16.7376C20.7789 16.0276 17.9889 14.2976 15.6089 11.9776L14.9089 11.3176L9.5989 16.7676C7.3289 14.4976 6.0989 12.2976 5.3389 9.8976C4.7389 7.9676 4.8189 6.3676 5.5489 5.6176C6.2889 4.8676 7.8889 4.7476 9.8289 5.2976C12.2689 5.9976 15.0089 7.6776 17.3589 9.9376L18.1589 10.6976L23.4689 5.2476C28.3989 10.1476 28.9989 14.9276 27.5489 16.4176Z" fill="white"/>
</svg>
