<svg width="107" height="96" viewBox="0 0 107 96" fill="none" xmlns="http://www.w3.org/2000/svg">
<g id="Group 16965">
<path id="Vector" d="M81.4842 47.6441C81.4842 37.904 76.3766 28.7578 67.9431 23.769C66.6365 22.9375 65.0924 23.4126 64.3797 24.6005C63.5482 25.9071 64.0233 27.4512 65.2112 28.1639C72.1005 32.3213 76.2578 39.5669 76.2578 47.6441C76.2578 55.7212 71.9817 63.2045 65.0924 67.2431C63.7858 68.0745 63.4294 69.6187 64.1421 70.8065C64.6172 71.638 65.5675 72.1131 66.399 72.1131C66.7553 72.1131 67.2304 71.9943 67.8243 71.638C76.2578 66.6492 81.4842 57.3842 81.4842 47.6441Z" fill="white"/>
<path id="Vector_2" d="M41.9299 67.3621C35.0406 63.2047 30.7645 55.7215 30.7645 47.7631C30.7645 39.8047 34.9218 32.4403 41.8112 28.2829C42.999 27.4515 43.3553 25.9073 42.6426 24.7195C41.8112 23.5317 40.267 23.1753 39.0792 23.888C30.7645 28.8768 25.5381 38.023 25.5381 47.7631C25.5381 57.5032 30.7645 66.7682 39.198 71.757C39.5543 71.9946 40.0294 72.1133 40.5046 72.1133C41.4548 72.1133 42.2863 71.6382 42.8802 70.9255C43.5929 69.6189 43.1178 68.0748 41.9299 67.3621Z" fill="white"/>
<path id="Vector_3" d="M78.5146 0.725412C77.3268 0.131503 75.7826 0.60663 75.0699 1.79445C74.476 2.98226 74.9512 4.52642 76.139 5.23911C91.9369 13.6726 101.796 30.0645 101.796 47.8817C101.796 65.699 91.9369 82.0908 76.0202 90.5243C74.7136 91.1182 74.2385 92.6624 74.9512 93.969C75.4263 94.8005 76.2578 95.2756 77.208 95.2756C77.6831 95.2756 78.0395 95.1568 78.3958 95.038C95.9755 85.773 106.903 67.5995 106.903 47.8817C106.903 28.164 96.0943 10.1092 78.5146 0.725412Z" fill="white"/>
<path id="Vector_4" d="M94.0753 47.8818C94.0753 33.1529 85.9982 19.493 73.051 12.3661C71.8632 11.6534 70.319 12.1285 69.6063 13.3164C68.8936 14.5042 69.3688 16.0483 70.5566 16.761C81.9596 22.9377 88.9677 34.9346 88.9677 47.763C88.9677 60.5914 81.9596 72.5884 70.5566 78.8838C69.3688 79.4777 68.8936 81.1407 69.6063 82.3285C70.0815 83.16 70.9129 83.6351 71.8632 83.6351C72.2195 83.6351 72.6947 83.5163 73.051 83.3975C85.9982 76.2706 94.0753 62.6107 94.0753 47.8818Z" fill="white"/>
<path id="Vector_5" d="M36.3472 78.8846C24.9442 72.5891 17.9361 60.711 17.9361 47.7638C17.9361 34.8166 24.9442 22.9384 36.466 16.643C37.6538 16.0491 38.129 14.3861 37.4163 13.1983C36.8224 12.0105 35.1594 11.5354 33.9716 12.2481C21.0244 19.375 12.9473 33.0348 12.9473 47.7638C12.9473 62.4927 21.0244 76.1526 33.9716 83.2795C34.328 83.517 34.6843 83.6358 35.1594 83.6358C35.9909 83.6358 36.9412 83.1607 37.2975 82.3292C38.0102 81.1414 37.5351 79.5972 36.3472 78.8846Z" fill="white"/>
<path id="Vector_6" d="M30.8832 90.4063C14.9665 81.9728 5.10761 65.581 5.10761 47.7637C5.10761 29.9465 14.9665 13.5546 30.7644 5.12111C32.071 4.52721 32.5462 2.98305 31.8335 1.67645C31.2396 0.36985 29.6954 -0.105276 28.3888 0.607414C10.9279 9.99116 0 28.046 0 47.7637C0 67.4815 10.9279 85.5363 28.5076 94.92C28.8639 95.1576 29.3391 95.2764 29.6954 95.2764C30.5269 95.2764 31.4771 94.6824 31.9523 93.851C32.6649 92.6632 32.1898 91.119 30.8832 90.4063Z" fill="white"/>
<path id="Vector_7" d="M53.4519 37.6787C48.9382 37.6787 45.1372 40.767 43.8306 44.9244C43.593 45.8746 43.3555 46.8249 43.3555 47.7751C43.3555 48.7254 43.593 49.6757 43.8306 50.6259C45.0184 54.7833 48.9382 57.8716 53.4519 57.8716C57.9656 57.8716 61.7666 54.7833 63.0732 50.6259C63.3108 49.6757 63.5483 48.7254 63.5483 47.7751C63.5483 46.8249 63.3108 45.8746 63.0732 44.9244C61.8854 40.767 57.9656 37.6787 53.4519 37.6787ZM53.4519 51.8731C51.1832 51.8731 49.3539 50.032 49.3539 47.7751C49.3539 45.5183 51.1951 43.6772 53.4519 43.6772C55.7088 43.6772 57.5499 45.5183 57.5499 47.7751C57.5499 50.032 55.7088 51.8731 53.4519 51.8731Z" fill="white"/>
</g>
</svg>
