<svg width="171" height="171" viewBox="0 0 171 171" fill="none" xmlns="http://www.w3.org/2000/svg">
<path d="M85.8879 64.2411C89.9652 64.2411 93.2705 60.9359 93.2705 56.8586C93.2705 52.7813 89.9652 49.476 85.8879 49.476C81.8107 49.476 78.5054 52.7813 78.5054 56.8586C78.5054 60.9359 81.8107 64.2411 85.8879 64.2411Z" stroke="white" stroke-width="7" stroke-linecap="round" stroke-linejoin="round"/>
<path d="M84.322 64.0723L70.5198 127.647" stroke="white" stroke-width="7" stroke-linecap="round" stroke-linejoin="round"/>
<path d="M87.4541 64.0712L101.257 127.647" stroke="white" stroke-width="7" stroke-linecap="round" stroke-linejoin="round"/>
<path d="M102.854 73.8243C106.209 70.4688 108.494 66.1936 109.42 61.5394C110.346 56.8852 109.871 52.061 108.055 47.6768C106.239 43.2926 103.164 39.5454 99.218 36.909C95.2724 34.2725 90.6335 32.8654 85.8881 32.8654C81.1427 32.8654 76.5039 34.2725 72.5582 36.909C68.6126 39.5454 65.5373 43.2926 63.7214 47.6768C61.9054 52.061 61.4303 56.8852 62.3561 61.5394C63.2819 66.1936 65.5671 70.4688 68.9226 73.8243" stroke="white" stroke-width="7" stroke-linecap="round" stroke-linejoin="round"/>
<path d="M114.757 85.728C120.467 80.0182 124.355 72.7437 125.93 64.8243C127.505 56.9048 126.696 48.6961 123.606 41.2363C120.516 33.7764 115.283 27.4004 108.57 22.9144C101.856 18.4285 93.9626 16.0341 85.888 16.0341C77.8135 16.0341 69.9202 18.4285 63.2065 22.9144C56.4927 27.4004 51.2599 33.7764 48.1697 41.2363C45.0796 48.6961 44.271 56.9048 45.8461 64.8243C47.4211 72.7437 51.3092 80.0182 57.0186 85.728" stroke="white" stroke-width="7" stroke-linecap="round" stroke-linejoin="round"/>
<path d="M80.2727 82.7832H91.5035" stroke="white" stroke-width="7" stroke-linecap="round" stroke-linejoin="round"/>
<path d="M76.9675 97.8412H94.8089" stroke="white" stroke-width="7" stroke-linecap="round" stroke-linejoin="round"/>
<path d="M72.928 116.625H98.8484" stroke="white" stroke-width="7" stroke-linecap="round" stroke-linejoin="round"/>
<path d="M45.6819 109.33L70.6764 106.533L97.2812 109.33L125.938 107.933L145.653 152.329L102.343 154.969L60.7406 148.759L25.3472 154.039L45.6819 109.33Z" stroke="white" stroke-width="7" stroke-linecap="round" stroke-linejoin="round"/>
</svg>
