<svg width="107" height="95" viewBox="0 0 107 95" fill="none" xmlns="http://www.w3.org/2000/svg">
<g id="Group 16965">
<path id="Vector" d="M81.4842 47.3677C81.4842 37.6276 76.3766 28.4815 67.9431 23.4926C66.6365 22.6612 65.0924 23.1363 64.3797 24.3241C63.5482 25.6307 64.0233 27.1749 65.2112 27.8875C72.1005 32.0449 76.2578 39.2906 76.2578 47.3677C76.2578 55.4449 71.9817 62.9281 65.0924 66.9667C63.7858 67.7982 63.4294 69.3423 64.1421 70.5301C64.6172 71.3616 65.5675 71.8368 66.399 71.8368C66.7553 71.8368 67.2304 71.718 67.8243 71.3616C76.2578 66.3728 81.4842 57.1078 81.4842 47.3677Z" fill="black"/>
<path id="Vector_2" d="M41.9309 67.0858C35.0416 62.9285 30.7655 55.4452 30.7655 47.4869C30.7655 39.5285 34.9228 32.164 41.8121 28.0067C43 27.1752 43.3563 25.6311 42.6436 24.4432C41.8121 23.2554 40.268 22.8991 39.0802 23.6118C30.7655 28.6006 25.5391 37.7468 25.5391 47.4869C25.5391 57.227 30.7655 66.4919 39.1989 71.4808C39.5553 71.7183 40.0304 71.8371 40.5055 71.8371C41.4558 71.8371 42.2873 71.362 42.8812 70.6493C43.5939 69.3427 43.1187 67.7985 41.9309 67.0858Z" fill="black"/>
<path id="Vector_3" d="M78.5156 0.449044C77.3278 -0.144864 75.7836 0.330263 75.0709 1.51808C74.477 2.70589 74.9521 4.25006 76.14 4.96275C91.9379 13.3962 101.797 29.7881 101.797 47.6053C101.797 65.4226 91.9379 81.8145 76.0212 90.2479C74.7146 90.8419 74.2395 92.386 74.9521 93.6926C75.4273 94.5241 76.2587 94.9992 77.209 94.9992C77.6841 94.9992 78.0405 94.8804 78.3968 94.7617C95.9765 85.4967 106.904 67.3231 106.904 47.6053C106.904 27.8876 96.0953 9.83279 78.5156 0.449044Z" fill="black"/>
<path id="Vector_4" d="M94.0773 47.6054C94.0773 32.8765 86.0002 19.2166 73.053 12.0897C71.8651 11.377 70.321 11.8522 69.6083 13.04C68.8956 14.2278 69.3707 15.772 70.5585 16.4847C81.9616 22.6613 88.9697 34.6582 88.9697 47.4867C88.9697 60.3151 81.9616 72.312 70.5585 78.6074C69.3707 79.2013 68.8956 80.8643 69.6083 82.0521C70.0834 82.8836 70.9149 83.3587 71.8651 83.3587C72.2215 83.3587 72.6966 83.2399 73.053 83.1211C86.0002 75.9942 94.0773 62.3344 94.0773 47.6054Z" fill="black"/>
<path id="Vector_5" d="M36.3453 78.6081C24.9423 72.3126 17.9341 60.4345 17.9341 47.4873C17.9341 34.5401 24.9423 22.6619 36.4641 16.3665C37.6519 15.7726 38.127 14.1096 37.4143 12.9218C36.8204 11.734 35.1575 11.2589 33.9697 11.9716C21.0225 19.0985 12.9453 32.7584 12.9453 47.4873C12.9453 62.2162 21.0225 75.8761 33.9697 83.003C34.326 83.2406 34.6824 83.3593 35.1575 83.3593C35.9889 83.3593 36.9392 82.8842 37.2955 82.0527C38.0082 80.8649 37.5331 79.3208 36.3453 78.6081Z" fill="black"/>
<path id="Vector_6" d="M30.8832 90.13C14.9665 81.6965 5.10761 65.3046 5.10761 47.4873C5.10761 29.6701 14.9665 13.2782 30.7644 4.84475C32.071 4.25084 32.5462 2.70668 31.8335 1.40008C31.2396 0.0934832 29.6954 -0.381643 28.3888 0.331047C10.9279 9.71479 0 27.7696 0 47.4873C0 67.2051 10.9279 85.2599 28.5076 94.6436C28.8639 94.8812 29.3391 95 29.6954 95C30.5269 95 31.4771 94.4061 31.9523 93.5746C32.6649 92.3868 32.1898 90.8426 30.8832 90.13Z" fill="black"/>
<path id="Vector_7" d="M53.4519 37.4023C48.9382 37.4023 45.1372 40.4907 43.8306 44.648C43.593 45.5983 43.3555 46.5485 43.3555 47.4988C43.3555 48.449 43.593 49.3993 43.8306 50.3495C45.0184 54.5069 48.9382 57.5952 53.4519 57.5952C57.9656 57.5952 61.7666 54.5069 63.0732 50.3495C63.3108 49.3993 63.5483 48.449 63.5483 47.4988C63.5483 46.5485 63.3108 45.5983 63.0732 44.648C61.8854 40.4907 57.9656 37.4023 53.4519 37.4023ZM53.4519 51.5967C51.1832 51.5967 49.3539 49.7556 49.3539 47.4988C49.3539 45.2419 51.1951 43.4008 53.4519 43.4008C55.7088 43.4008 57.5499 45.2419 57.5499 47.4988C57.5499 49.7556 55.7088 51.5967 53.4519 51.5967Z" fill="black"/>
</g>
</svg>
