<svg width="103" height="103" viewBox="0 0 103 103" fill="none" xmlns="http://www.w3.org/2000/svg">
<path d="M19.0986 47.1549H24.8056C28.5922 58.2734 39.1371 66.2932 51.5205 66.2932C60.3994 66.2932 68.3319 62.1691 73.507 55.7373H80.8435C82.2049 55.7373 83.3084 54.6339 83.3084 53.2724V47.1549H84.4195C87.0932 47.1549 89.2681 44.9797 89.2681 42.306V29.9092C89.2681 27.5467 87.5693 25.5743 85.3294 25.1472C83.7118 17.8201 79.7282 11.5933 73.749 7.07669C67.6195 2.44713 59.933 0 51.5203 0C34.4448 0 20.9762 10.1135 17.6854 25.2708C15.6989 25.8774 14.2498 27.727 14.2498 29.9092V42.306C14.2498 44.9797 16.4249 47.1549 19.0986 47.1549ZM19.1796 42.225V29.9902H24.4929C23.7239 32.5544 23.3087 35.2701 23.3087 38.0812C23.3087 39.4887 23.4137 40.8721 23.6137 42.225H19.1796ZM51.5203 61.3633C38.6825 61.3633 28.2383 50.9189 28.2383 38.0812C28.2383 25.2434 38.6825 14.7994 51.5203 14.7994C64.3582 14.7994 74.8025 25.2436 74.8025 38.0812C74.8025 42.7748 73.405 47.1472 71.0067 50.8075H50.09C48.7287 50.8075 47.6251 51.9111 47.6251 53.2724C47.6251 54.6339 48.7287 55.7373 50.09 55.7373H66.6796C62.6032 59.242 57.3051 61.3633 51.5203 61.3633ZM78.3783 50.8075H76.6942C77.2895 49.6342 77.8062 48.4148 78.2351 47.1549H78.3781L78.3783 50.8075ZM84.3381 42.225H79.4275C79.6275 40.8723 79.7325 39.4887 79.7325 38.0812C79.7325 35.2701 79.3171 32.5544 78.5483 29.9902H84.3383L84.3381 42.225ZM51.5203 4.92985C65.729 4.92985 76.9746 12.9254 80.2322 25.0604H76.5418C71.8289 16.0409 62.3825 9.86956 51.5203 9.86956C40.6583 9.86956 31.2119 16.0409 26.4989 25.0604H22.808C26.0623 12.9329 37.3309 4.92985 51.5203 4.92985Z" fill="white"/>
<path d="M76.8364 67.3787H26.1636C18.3388 67.3787 11.9729 73.7444 11.9729 81.5691V100.535C11.9729 101.896 13.0765 103 14.4378 103C15.7991 103 16.9028 101.896 16.9028 100.535V81.5691C16.9028 76.4629 21.0571 72.3085 26.1636 72.3085H76.8364C81.9429 72.3085 86.0975 76.4629 86.0975 81.5693V100.535C86.0975 101.897 87.2009 103 88.5624 103C89.9239 103 91.0273 101.897 91.0273 100.535V81.5693C91.0273 73.7446 84.6614 67.3787 76.8364 67.3787Z" fill="white"/>
</svg>
