<svg width="79" height="96" viewBox="0 0 79 96" fill="none" xmlns="http://www.w3.org/2000/svg">
<path id="Vector" d="M73.46 39.3064V34.4364C73.46 25.3164 69.91 16.7364 63.46 10.2764C57 3.82637 48.42 0.276367 39.3 0.276367C20.46 0.276367 5.14 15.5964 5.14 34.4364V39.3064C2.28 39.4364 0 41.7864 0 44.6764V57.9664C0 60.9364 2.41 63.3464 5.38 63.3464H9.67C13.92 63.3464 17.38 59.8864 17.38 55.6364V47.0064C17.38 43.2364 14.66 40.0964 11.07 39.4264V34.4364C11.07 18.8764 23.73 6.21637 39.29 6.21637C46.82 6.21637 53.91 9.14637 59.25 14.4764C64.58 19.8164 67.52 26.9064 67.52 34.4364V39.4264C63.94 40.0864 61.21 43.2364 61.21 47.0064V55.6364C61.21 59.1864 63.62 62.1664 66.88 63.0664V64.9464C66.88 74.6664 59.62 82.7064 50.24 83.9764C49.27 81.0864 46.54 79.0064 43.33 79.0064H39.14C35.12 79.0064 31.85 82.2764 31.85 86.2964V87.9964C31.85 92.0164 35.12 95.2864 39.14 95.2864H43.33C46.66 95.2864 49.48 93.0364 50.34 89.9764C62.95 88.6264 72.81 77.9264 72.81 64.9564V63.3564H73.2C76.17 63.3564 78.58 60.9364 78.58 57.9764V44.6864C78.58 41.7964 76.3 39.4464 73.44 39.3164L73.46 39.3064ZM68.93 57.4064C67.95 57.4064 67.16 56.6064 67.16 55.6364V47.0064C67.16 46.0264 67.96 45.2364 68.93 45.2364H72.66V57.4164H68.93V57.4064ZM11.45 55.6364C11.45 56.6164 10.65 57.4064 9.67999 57.4064H5.95V45.2264H9.67999C10.66 45.2264 11.45 46.0264 11.45 46.9964V55.6264V55.6364ZM37.81 86.2864C37.81 85.5464 38.42 84.9364 39.16 84.9364H43.35C44.09 84.9364 44.7 85.5464 44.7 86.2864V87.9864C44.7 88.7264 44.09 89.3364 43.35 89.3364H39.16C38.42 89.3364 37.81 88.7264 37.81 87.9864V86.2864Z" fill="white"/>
</svg>
