<svg width="128" height="128" viewBox="0 0 128 128" fill="none" xmlns="http://www.w3.org/2000/svg">
<path d="M124 52.0375C123.777 44.1649 123.028 39.1457 120.506 34.8625C116.919 28.7707 110.459 25.3806 97.5392 18.6005L85.5298 12.2983C74.988 6.76612 69.7171 4 64.0468 4C58.3766 4 53.1057 6.76612 42.5638 12.2983L30.5545 18.6005C17.6344 25.3806 11.1743 28.7707 7.5872 34.8625C4 40.9543 4 48.5348 4 63.6956V64.3981C4 79.5587 4 87.1397 7.5872 93.2314C11.1743 99.3232 17.6344 102.713 30.5545 109.493L42.5638 115.795C53.1057 121.327 58.3766 124.094 64.0468 124.094C69.7171 124.094 74.988 121.327 85.5298 115.795L97.5392 109.493C110.459 102.713 116.919 99.3232 120.506 93.2314C123.028 88.9477 123.777 83.929 124 76.0562" stroke="black" stroke-width="7" stroke-linecap="round"/>
<path d="M118.089 37.0258L94.0703 49.0351M94.0703 49.0351C94.0703 49.0351 92.2407 49.9501 91.0679 50.5363C80.5153 55.8126 64.0469 64.0468 64.0469 64.0468M94.0703 49.0351V70.0515M94.0703 49.0351L37.0258 19.0117M64.0469 64.0468L10.0047 37.0258M64.0469 64.0468V121.091" stroke="black" stroke-width="7" stroke-linecap="round"/>
</svg>
