<svg width="180" height="180" viewBox="0 0 180 180" fill="none" xmlns="http://www.w3.org/2000/svg">
<path d="M164.883 75C164.605 65.167 163.669 58.8979 160.519 53.548C156.039 45.9392 147.97 41.705 131.833 33.2364L116.833 25.3648C103.666 18.4549 97.0822 15 90 15C82.9177 15 76.3342 18.4549 63.1672 25.3648L48.1672 33.2364C32.0297 41.705 23.9609 45.9392 19.4805 53.548C15 61.1569 15 70.625 15 89.5612V90.4388C15 109.375 15 118.844 19.4805 126.452C23.9609 134.061 32.0297 138.295 48.1672 146.764L63.1672 154.635C76.3342 161.545 82.9177 165 90 165C97.0822 165 103.666 161.545 116.833 154.635L131.833 146.764C147.97 138.295 156.039 134.061 160.519 126.452C163.669 121.102 164.605 114.833 164.883 105" stroke="white" stroke-width="7" stroke-linecap="round"/>
<path d="M157.5 56.25L127.5 71.25M127.5 71.25C127.5 71.25 125.215 72.3928 123.75 73.125C110.569 79.7152 90 90 90 90M127.5 71.25V97.5M127.5 71.25L56.25 33.75M90 90L22.5 56.25M90 90V161.25" stroke="white" stroke-width="7" stroke-linecap="round"/>
</svg>
