<svg width="103" height="96" viewBox="0 0 103 96" fill="none" xmlns="http://www.w3.org/2000/svg">
<g id="Group 16963">
<path id="Vector" d="M51.9771 45.4754C46.8871 45.4754 42.7371 41.8154 42.7371 37.3054C42.7371 32.7954 46.8771 29.1354 51.9771 29.1354C57.0771 29.1354 61.2171 32.8054 61.2171 37.3054C61.2171 38.9454 62.5471 40.2754 64.1871 40.2754C65.8271 40.2754 67.1571 38.9454 67.1571 37.3054C67.1571 30.4654 61.8971 24.7554 54.9471 23.4654V16.7854C54.9471 15.1454 53.6171 13.8154 51.9771 13.8154C50.3371 13.8154 49.0071 15.1454 49.0071 16.7854V23.4654C42.0571 24.7554 36.7971 30.4654 36.7971 37.3054C36.7971 45.0854 43.6071 51.4154 51.9771 51.4154C57.0671 51.4154 61.2171 55.0854 61.2171 59.5854C61.2171 64.0854 57.0771 67.7554 51.9771 67.7554C46.3371 67.7554 42.1371 64.7654 41.2771 60.1454C40.9771 58.5354 39.4271 57.4654 37.8171 57.7754C36.2071 58.0754 35.1371 59.6254 35.4371 61.2354C36.6571 67.7954 41.9571 72.4554 49.0071 73.4854V78.7654C49.0071 80.4054 50.3371 81.7354 51.9771 81.7354C53.6171 81.7354 54.9471 80.4054 54.9471 78.7654V73.4254C61.8971 72.1354 67.1571 66.4254 67.1571 59.5854C67.1571 51.8054 60.3471 45.4754 51.9771 45.4754Z" fill="white"/>
<path id="Vector_2" d="M75.8174 85.0861C75.0074 83.6661 73.1974 83.1561 71.7674 83.9661C55.5774 93.1561 35.0474 90.3661 21.8674 77.1761C9.35741 64.6661 6.50741 46.0961 13.3174 30.8161L17.6674 35.1661C18.2374 35.7361 18.9974 36.0361 19.7674 36.0361C20.1474 36.0361 20.5374 35.9661 20.9074 35.8061C22.0174 35.3461 22.7374 34.2661 22.7374 33.0661V16.2661C22.7374 16.0761 22.7174 15.8761 22.6774 15.6861C22.6574 15.5961 22.6274 15.5161 22.5974 15.4361C22.5674 15.3361 22.5474 15.2361 22.5074 15.1361C22.4674 15.0361 22.4074 14.9461 22.3574 14.8461C22.3174 14.7661 22.2874 14.6961 22.2374 14.6161C22.0174 14.2861 21.7374 14.0061 21.4174 13.7961C21.3474 13.7461 21.2774 13.7161 21.1974 13.6761C21.0974 13.6261 21.0074 13.5661 20.8974 13.5161C20.7974 13.4761 20.7074 13.4561 20.6074 13.4261C20.5174 13.3961 20.4374 13.3661 20.3474 13.3461C20.1574 13.3061 19.9674 13.2861 19.7774 13.2861C19.7774 13.2861 19.7774 13.2861 19.7674 13.2861H2.96741C1.76741 13.2861 0.687409 14.0061 0.227409 15.1161C-0.232591 16.2261 0.0174088 17.5061 0.867409 18.3561L8.85741 26.3461C-0.122591 44.1861 2.80741 66.5161 17.6674 81.3761C26.7974 90.5061 39.0174 95.2761 51.3374 95.2761C59.3474 95.2761 67.4074 93.2661 74.6974 89.1261C76.1274 88.3261 76.6274 86.5061 75.8174 85.0861Z" fill="white"/>
<path id="Vector_3" d="M101.668 77.176L93.6778 69.186C102.658 51.366 99.7278 29.036 84.8678 14.176C69.8078 -0.894036 46.3578 -4.07404 27.8378 6.42596C26.4078 7.23596 25.9078 9.04596 26.7178 10.476C27.5278 11.906 29.3378 12.406 30.7678 11.596C46.9678 2.40596 67.4878 5.19596 80.6678 18.376C93.1778 30.886 96.0278 49.456 89.2178 64.736L84.8578 60.386C84.0078 59.536 82.7278 59.286 81.6178 59.746C80.5078 60.206 79.7878 61.286 79.7878 62.486V79.286C79.7878 79.476 79.8078 79.676 79.8478 79.866C79.8678 79.956 79.8978 80.036 79.9278 80.126C79.9578 80.226 79.9778 80.326 80.0178 80.426C80.0578 80.526 80.1178 80.616 80.1678 80.716C80.2078 80.786 80.2378 80.866 80.2878 80.936C80.5078 81.266 80.7878 81.546 81.1078 81.756C81.1778 81.806 81.2578 81.836 81.3278 81.876C81.4278 81.926 81.5178 81.986 81.6178 82.026C81.7178 82.066 81.8178 82.086 81.9178 82.116C82.0078 82.146 82.0878 82.176 82.1778 82.196C82.3678 82.236 82.5678 82.256 82.7578 82.256H99.5578C100.758 82.256 101.838 81.536 102.298 80.426C102.758 79.316 102.508 78.036 101.658 77.186L101.668 77.176Z" fill="white"/>
</g>
</svg>
