<svg width="141" height="104" viewBox="0 0 141 104" fill="none" xmlns="http://www.w3.org/2000/svg">
<path d="M140.845 47.3685C139.796 32.8262 128.089 26.4792 124.727 24.9486V9.49008C124.727 4.25779 120.469 0 115.237 0H9.49012C4.25781 0 0 4.25779 0 9.49008V63.7191C0 68.9514 4.25781 73.2092 9.49012 73.2092H62.6906C60.833 75.0362 58.9982 77.009 57.2506 79.1245C56.8377 79.625 56.8377 80.3503 57.2506 80.8509C68.7876 94.8238 84.1586 102.569 84.8075 102.892C84.9981 102.987 85.2047 103.035 85.4113 103.035C85.6589 103.035 85.9078 102.966 86.125 102.831C86.5249 102.585 86.767 102.148 86.767 101.679V94.9377C92.2681 95.0437 112.092 94.7972 123.106 87.2667C130.443 82.2489 142.505 70.3944 140.845 47.3685ZM9.49012 70.498C5.75264 70.498 2.71146 67.4582 2.71146 63.7194V9.49035C2.71146 5.75153 5.75264 2.71172 9.49012 2.71172H115.237C118.975 2.71172 122.016 5.75153 122.016 9.49035L122.022 25.7086C122.013 25.8014 122.013 25.8941 122.022 25.9866L122.029 39.9993C122.01 40.1316 120.014 53.2865 102.97 61.3574C96.9676 64.2039 89.7242 64.8633 86.7665 65.0168V58.2965C86.7665 57.8277 86.5241 57.3908 86.1244 57.1446C85.7258 56.8984 85.2267 56.8719 84.8072 57.0836C84.3067 57.3326 75.0695 61.9849 65.5794 70.498H9.49012ZM121.575 85.027C109.724 93.1324 85.7115 92.2081 85.4693 92.1896C85.1093 92.195 84.741 92.3114 84.4737 92.5657C84.2063 92.8225 84.0553 93.1747 84.0553 93.5453V99.4026C79.6652 96.9189 68.7529 90.1587 60.0665 79.9881C68.7529 69.8174 79.6649 63.0575 84.0553 60.5736V66.4175C84.0553 67.167 84.6616 67.7733 85.411 67.7733C85.8335 67.7733 95.861 67.7283 104.132 63.8094C122.486 55.1162 124.632 40.9687 124.727 40.1848V27.9543C128.58 29.9455 137.288 35.7231 138.142 47.5645C139.704 69.2377 128.433 80.3403 121.575 85.027ZM70.7166 46.6139C72.3556 43.7859 72.2496 40.4497 70.4253 37.4573C69.2456 35.5192 67.1605 34.1369 65.1334 32.7945C63.2533 31.5448 62.1863 30.7264 62.0366 30.6074C61.9862 30.2631 62.1028 29.9455 62.2299 29.7997C62.2722 29.7492 62.3107 29.7069 62.5 29.6936C62.9607 29.6991 63.2269 29.993 63.2269 29.993C64.4753 31.7221 66.9156 32.2066 68.7835 31.0944C70.6317 29.9954 71.197 27.7024 70.097 25.7588C69.2621 24.2838 66.9259 22.2759 63.5591 21.9565C63.516 21.7564 63.4807 21.5851 63.4694 21.4831C63.273 20.2795 61.433 20.3009 61.2443 21.4831L61.1315 22.0593C59.0795 22.3787 57.2422 23.3198 55.9215 24.829C54.2837 26.7037 53.5543 29.2007 53.9196 31.6792C54.432 35.1851 57.7658 37.3961 60.452 39.1807C61.2915 39.7369 63.039 40.8966 63.3303 41.3548C63.5819 41.7677 63.8216 42.3662 63.5342 42.8588C63.3077 43.2506 62.8232 43.4995 62.1863 43.5446C61.6581 43.5551 60.7405 42.7582 60.3726 42.1943C59.2194 40.3697 56.7872 39.7689 54.8306 40.8201C53.0129 41.7997 52.3722 43.8783 53.2366 45.9941C54.1959 48.3362 57.3846 50.8226 61.106 51.2388L61.2443 51.946C61.433 53.1282 63.273 53.1499 63.4694 51.946C63.4864 51.7941 63.555 51.4853 63.6274 51.1499C66.6578 50.7025 69.2816 49.086 70.7166 46.6139ZM55.7466 44.967C55.589 44.583 55.3111 43.643 56.1172 43.2089C56.3477 43.0844 56.6045 43.0234 56.8572 43.0234C57.3496 43.0234 57.8317 43.2512 58.0925 43.6617C58.111 43.6883 59.9222 46.4154 62.3913 46.2487C63.923 46.1427 65.1955 45.4041 65.8785 44.2205C66.6147 42.9548 66.5284 41.3979 65.6456 39.9467C65.1014 39.0544 63.7722 38.1303 61.9425 36.9148C59.5979 35.3606 56.9393 33.597 56.6018 31.2853C56.3529 29.5933 56.848 27.8881 57.9616 26.6142C58.9729 25.4597 60.4401 24.758 62.0909 24.639C65.1784 24.3979 67.2277 26.1959 67.7375 27.0936C68.0235 27.602 68.1081 28.3433 67.3985 28.7644C66.7497 29.1511 65.8443 28.9843 65.3967 28.3699C65.1225 28.0177 64.074 26.8526 62.3197 26.9876C61.4471 27.0511 60.7297 27.3954 60.1869 28.0177C59.5063 28.7989 59.1953 29.9135 59.3542 31.0019C59.5236 32.1459 60.8105 33.176 63.6451 35.0612C65.4137 36.2342 67.2434 37.447 68.1095 38.8689C69.4004 40.9847 69.4956 43.3122 68.3703 45.253C67.2556 47.1755 65.1027 48.4252 62.6044 48.5973C59.3184 48.8197 56.3979 46.561 55.7466 44.967ZM32.5362 31.2931C29.5454 31.2931 27.1133 33.7267 27.1133 36.716C27.1133 39.7054 29.5454 42.1389 32.5362 42.1389C35.5269 42.1389 37.9591 39.7054 37.9591 36.716C37.9591 33.7267 35.5269 31.2931 32.5362 31.2931ZM32.5362 39.4275C31.0414 39.4275 29.8247 38.2122 29.8247 36.716C29.8247 35.2199 31.0414 34.0046 32.5362 34.0046C34.031 34.0046 35.2476 35.2199 35.2476 36.716C35.2476 38.2122 34.031 39.4275 32.5362 39.4275ZM92.1911 42.1389C95.1818 42.1389 97.614 39.7054 97.614 36.716C97.614 33.7267 95.1818 31.2931 92.1911 31.2931C89.2003 31.2931 86.7681 33.7267 86.7681 36.716C86.7681 39.7054 89.2003 42.1389 92.1911 42.1389ZM92.1911 34.0046C93.6859 34.0046 94.9025 35.2199 94.9025 36.716C94.9025 38.2122 93.6859 39.4275 92.1911 39.4275C90.6962 39.4275 89.4796 38.2122 89.4796 36.716C89.4796 35.2199 90.6962 34.0046 92.1911 34.0046Z" fill="white"/>
</svg>
