<svg width="133" height="133" viewBox="0 0 133 133" fill="none" xmlns="http://www.w3.org/2000/svg">
<g id="Vector" filter="url(#filter0_d_5544_2373)">
<path d="M127.19 62.5006L123.749 65.9498L126.364 69.951C127.19 71.3307 126.915 73.1243 125.538 73.9521L121.27 76.8495L123.198 81.5405C123.749 83.0582 123.06 84.7138 121.683 85.2657L117.278 87.0593L118.242 91.7503C118.517 93.268 117.553 94.7856 116.039 95.1996L111.082 96.1653V101.27C111.082 102.788 109.843 104.168 108.191 104.168H103.373L102.409 108.859C102.134 110.376 100.619 111.48 99.1047 111.066L94.1484 110.1L92.2209 114.929C91.6702 116.447 89.8804 117.137 88.5037 116.447L83.9604 114.653L81.3446 118.655C80.5185 120.034 78.7287 120.31 77.352 119.482L73.0841 116.585L69.5045 120.172C68.4031 121.276 66.6133 121.276 65.5119 120.172L62.0701 116.723L58.0775 119.482C56.7007 120.31 54.9109 120.034 54.0849 118.655L51.1937 114.377L46.5128 116.309C44.9983 116.861 43.3462 116.171 42.7955 114.791L41.0058 110.376L36.1871 111.48C34.6727 111.756 33.1583 110.79 32.7453 109.273L31.7815 104.306H26.6875C25.1731 104.306 23.7964 103.064 23.7964 101.408V96.5793L19.1154 95.6135C17.601 95.3375 16.4996 93.8198 16.9126 92.3022L17.8763 87.1973L13.0577 85.2657C11.5433 84.7138 10.8549 82.9202 11.5433 81.5405L13.3331 77.1254L9.34048 74.504C7.96373 73.6762 7.68838 71.8826 8.51443 70.5029L11.4056 66.2258L7.82605 62.6385C6.72465 61.5348 6.72465 59.7412 7.82605 58.6374L11.2679 55.1881L8.51443 51.187C7.68838 49.8073 7.96373 48.0137 9.34048 47.1859L13.6084 44.2885L11.681 39.5975C11.1303 38.0798 11.8186 36.4242 13.1954 35.8723L17.601 34.0787L16.4996 29.1117C16.2242 27.5941 17.188 26.0764 18.7024 25.6625L23.6587 24.6967V19.5918C23.6587 18.0741 24.8978 16.6944 26.5499 16.6944H31.3685L32.3322 12.0034C32.6076 10.4857 34.122 9.38198 35.6364 9.7959L40.5927 10.7617L42.5202 6.0707C43.0709 4.55302 44.8607 3.86317 46.2374 4.55302L50.643 6.34664L53.2588 2.3455C54.0849 0.965793 55.8747 0.689852 57.2514 1.51767L61.5194 4.41505L65.0989 0.827822C66.2003 -0.275941 67.9901 -0.275941 69.0915 0.827822L72.5334 4.27708L76.5259 1.65564C77.765 0.827822 79.6925 1.10376 80.5185 2.48347L83.4097 6.76055L88.0907 4.82896C89.6051 4.27708 91.2572 4.96693 91.8079 6.34664L93.5977 10.7617L98.2786 9.7959C99.7931 9.51995 101.307 10.4857 101.721 12.0034L102.684 16.9704H107.778C109.293 16.9704 110.669 18.2121 110.669 19.8677V24.6967L115.35 25.6625C116.865 25.9384 117.966 27.4561 117.553 28.9738L116.589 34.0787L121.27 36.0103C122.785 36.5621 123.473 38.3558 122.785 39.7355L121.546 43.8746L125.538 46.496C126.915 47.3238 127.19 49.1174 126.364 50.4972L123.473 54.7742L127.053 58.3615C128.292 59.4652 128.292 61.3968 127.19 62.5006Z" fill="#FDB827"/>
</g>
<defs>
<filter id="filter0_d_5544_2373" x="0" y="0" width="133" height="133" filterUnits="userSpaceOnUse" color-interpolation-filters="sRGB">
<feFlood flood-opacity="0" result="BackgroundImageFix"/>
<feColorMatrix in="SourceAlpha" type="matrix" values="0 0 0 0 0 0 0 0 0 0 0 0 0 0 0 0 0 0 127 0" result="hardAlpha"/>
<feOffset dx="-1" dy="6"/>
<feGaussianBlur stdDeviation="3"/>
<feComposite in2="hardAlpha" operator="out"/>
<feColorMatrix type="matrix" values="0 0 0 0 0 0 0 0 0 0 0 0 0 0 0 0 0 0 0.25 0"/>
<feBlend mode="normal" in2="BackgroundImageFix" result="effect1_dropShadow_5544_2373"/>
<feBlend mode="normal" in="SourceGraphic" in2="effect1_dropShadow_5544_2373" result="shape"/>
</filter>
</defs>
</svg>
