<svg width="85" height="103" viewBox="0 0 85 103" fill="none" xmlns="http://www.w3.org/2000/svg">
<path d="M49.4412 102.097C49.1229 102.097 48.802 102.095 48.4837 102.089C22.1449 101.588 0.396129 79.7124 0.00560817 53.3247C-0.192327 39.9474 4.85502 27.3362 14.2222 17.8143C23.5893 8.28963 36.0993 3.0437 49.4439 3.0437C53.2207 3.0437 56.9895 3.47238 60.646 4.32169L59.6777 8.512C56.3395 7.73771 52.8971 7.34654 49.4439 7.34654C37.2575 7.34654 25.8361 12.137 17.2795 20.8338C8.72812 29.5278 4.11677 41.0458 4.29866 53.2631C4.65708 77.3574 24.5148 97.331 48.5639 97.7892C53.1565 97.8963 57.6983 97.2774 62.0636 96.0075L63.2619 100.139C58.7843 101.441 54.1409 102.097 49.4412 102.097Z" fill="white"/>
<path d="M49.0107 91.3751C41.7673 91.3751 34.7005 89.3604 28.5779 85.5451L30.8461 81.8907C36.2866 85.2799 42.5698 87.0723 49.0107 87.0723C63.1924 87.0723 75.7533 78.5497 81.0119 65.3599L85.0001 66.9567C79.0861 81.7889 64.9578 91.3751 49.0107 91.3751Z" fill="#27E1C1"/>
<path d="M13.7808 68.7355C11.4511 63.6477 10.2688 58.2089 10.2688 52.5718C10.2688 31.1755 27.647 13.7686 49.0079 13.7686C63.5454 13.7686 76.7349 21.8089 83.4272 34.7469L79.6129 36.7268C73.6615 25.2196 61.9352 18.0714 49.0079 18.0714C30.0168 18.0714 14.5645 33.5493 14.5645 52.5718C14.5645 57.5873 15.613 62.4206 17.6833 66.9432L13.7808 68.7355Z" fill="#27E1C1"/>
<path d="M59.7017 91.8278C62.0771 91.8278 64.0028 89.899 64.0028 87.5196C64.0028 85.1403 62.0771 83.2114 59.7017 83.2114C57.3263 83.2114 55.4006 85.1403 55.4006 87.5196C55.4006 89.899 57.3263 91.8278 59.7017 91.8278Z" fill="white"/>
<path d="M62.4355 12.303C65.8273 12.303 68.5769 9.54888 68.5769 6.1515C68.5769 2.75412 65.8273 0 62.4355 0C59.0438 0 56.2942 2.75412 56.2942 6.1515C56.2942 9.54888 59.0438 12.303 62.4355 12.303Z" fill="white"/>
</svg>
