<svg width="295" height="130" viewBox="0 0 295 130" fill="none" xmlns="http://www.w3.org/2000/svg">
<path d="M35.645 63.376C35.645 60.9493 36.1117 58.791 37.045 56.901C37.9783 55.011 39.3083 53.541 41.035 52.491C42.7617 51.441 44.7567 50.916 47.02 50.916C49.61 50.916 51.78 51.5926 53.53 52.946C55.28 54.2993 56.4117 56.201 56.925 58.651H55.035C54.5217 56.7376 53.5533 55.2676 52.13 54.241C50.7067 53.191 48.9683 52.666 46.915 52.666C45.0483 52.666 43.415 53.121 42.015 54.031C40.615 54.941 39.53 56.2126 38.76 57.846C37.99 59.456 37.605 61.2993 37.605 63.376C37.605 65.4526 37.99 67.3076 38.76 68.941C39.53 70.551 40.615 71.811 42.015 72.721C43.415 73.631 45.0483 74.086 46.915 74.086C49.015 74.086 50.7533 73.5726 52.13 72.546C53.53 71.5193 54.4867 70.026 55 68.066H56.89C56.3533 70.5393 55.2217 72.4526 53.495 73.806C51.7917 75.1593 49.6333 75.836 47.02 75.836C44.7567 75.836 42.7617 75.3226 41.035 74.296C39.3083 73.246 37.9783 71.776 37.045 69.886C36.1117 67.996 35.645 65.826 35.645 63.376ZM60.6752 57.881H62.4602V75.626H60.6752V57.881ZM60.9202 55.641L64.1052 51.021H66.2052L62.3552 55.641H60.9202ZM74.7066 57.881V59.596H73.5516C71.6383 59.596 70.3083 60.2493 69.5616 61.556C68.815 62.8393 68.4416 64.531 68.4416 66.631V75.626H66.6566V57.881H68.1966L68.4766 61.416C68.8966 60.3193 69.5266 59.456 70.3666 58.826C71.2066 58.196 72.385 57.881 73.9016 57.881H74.7066ZM91.6253 69.886C91.2753 71.7293 90.4236 73.1876 89.0703 74.261C87.7403 75.311 86.0836 75.836 84.1003 75.836C82.4436 75.836 80.9736 75.451 79.6903 74.681C78.4303 73.911 77.4503 72.8376 76.7503 71.461C76.0503 70.0843 75.7003 68.4976 75.7003 66.701C75.7003 64.9276 76.0503 63.3643 76.7503 62.011C77.4736 60.6343 78.477 59.5726 79.7603 58.826C81.0436 58.056 82.5136 57.671 84.1703 57.671C86.1536 57.671 87.8103 58.2076 89.1403 59.281C90.4703 60.331 91.2986 61.766 91.6253 63.586H89.8403C89.537 62.256 88.872 61.206 87.8453 60.436C86.8186 59.6426 85.5703 59.246 84.1003 59.246C82.817 59.246 81.6736 59.561 80.6703 60.191C79.6903 60.821 78.9203 61.7076 78.3603 62.851C77.8003 63.971 77.5203 65.2543 77.5203 66.701C77.5203 68.1476 77.8003 69.4426 78.3603 70.586C78.9203 71.7293 79.6903 72.6276 80.6703 73.281C81.6736 73.911 82.817 74.226 84.1003 74.226C85.5703 74.226 86.8186 73.841 87.8453 73.071C88.872 72.2776 89.537 71.216 89.8403 69.886H91.6253ZM109.896 57.881V75.626H108.321L108.076 71.881C107.539 73.0943 106.746 74.0626 105.696 74.786C104.646 75.486 103.363 75.836 101.846 75.836C99.7925 75.836 98.1359 75.171 96.8759 73.841C95.6392 72.4876 95.0209 70.481 95.0209 67.821V57.881H96.8059V67.716C96.8059 69.816 97.2725 71.426 98.2059 72.546C99.1392 73.6426 100.446 74.191 102.126 74.191C103.969 74.191 105.428 73.5143 106.501 72.161C107.574 70.7843 108.111 68.9293 108.111 66.596V57.881H109.896ZM114.098 51.126H115.883V75.626H114.098V51.126ZM127.989 75.836C126.333 75.836 124.863 75.451 123.579 74.681C122.296 73.911 121.293 72.8376 120.569 71.461C119.846 70.0843 119.484 68.5093 119.484 66.736C119.484 64.9626 119.846 63.3993 120.569 62.046C121.293 60.6693 122.296 59.596 123.579 58.826C124.863 58.056 126.333 57.671 127.989 57.671C129.646 57.671 131.116 58.056 132.399 58.826C133.706 59.596 134.721 60.6693 135.444 62.046C136.168 63.3993 136.529 64.9626 136.529 66.736C136.529 68.5093 136.168 70.0843 135.444 71.461C134.721 72.8376 133.706 73.911 132.399 74.681C131.116 75.451 129.646 75.836 127.989 75.836ZM127.989 74.226C129.296 74.226 130.463 73.911 131.489 73.281C132.516 72.651 133.309 71.7643 133.869 70.621C134.429 69.4776 134.709 68.1826 134.709 66.736C134.709 65.2893 134.429 64.006 133.869 62.886C133.309 61.7426 132.516 60.856 131.489 60.226C130.463 59.5726 129.296 59.246 127.989 59.246C126.683 59.246 125.516 59.5726 124.489 60.226C123.486 60.856 122.704 61.7426 122.144 62.886C121.584 64.006 121.304 65.2893 121.304 66.736C121.304 68.1826 121.584 69.4776 122.144 70.621C122.704 71.7643 123.486 72.651 124.489 73.281C125.516 73.911 126.683 74.226 127.989 74.226ZM151.222 50.531C151.875 50.531 152.423 50.7526 152.867 51.196C153.31 51.616 153.532 52.1526 153.532 52.806C153.532 53.4593 153.31 54.0076 152.867 54.451C152.423 54.871 151.875 55.081 151.222 55.081C150.568 55.081 150.02 54.871 149.577 54.451C149.133 54.0076 148.912 53.4593 148.912 52.806C148.912 52.1526 149.133 51.616 149.577 51.196C150.02 50.7526 150.568 50.531 151.222 50.531ZM149.332 57.706H153.112V75.626H149.332V57.706ZM166.267 57.496C168.39 57.496 170.117 58.1493 171.447 59.456C172.8 60.7626 173.477 62.8626 173.477 65.756V75.626H169.662V65.966C169.662 64.2626 169.3 62.9676 168.577 62.081C167.854 61.1943 166.792 60.751 165.392 60.751C163.899 60.751 162.72 61.276 161.857 62.326C161.017 63.3526 160.597 64.776 160.597 66.596V75.626H156.817V57.706H160.107L160.527 60.051C161.88 58.3476 163.794 57.496 166.267 57.496ZM186.505 57.496C188.138 57.496 189.596 57.8693 190.88 58.616C192.163 59.3393 193.166 60.401 193.89 61.801C194.613 63.1776 194.975 64.7993 194.975 66.666C194.975 68.486 194.613 70.096 193.89 71.496C193.166 72.8726 192.163 73.946 190.88 74.716C189.596 75.4626 188.138 75.836 186.505 75.836C185.175 75.836 184.02 75.591 183.04 75.101C182.06 74.611 181.278 73.946 180.695 73.106V82.626H176.915V57.706H180.205L180.66 60.366C182.106 58.4526 184.055 57.496 186.505 57.496ZM185.875 72.651C187.438 72.651 188.698 72.091 189.655 70.971C190.635 69.851 191.125 68.416 191.125 66.666C191.125 64.8926 190.635 63.4576 189.655 62.361C188.698 61.2643 187.438 60.716 185.875 60.716C184.311 60.716 183.051 61.2643 182.095 62.361C181.138 63.4343 180.66 64.846 180.66 66.596C180.66 68.3926 181.138 69.851 182.095 70.971C183.051 72.091 184.311 72.651 185.875 72.651ZM207.418 57.496C209.565 57.496 211.303 58.1493 212.633 59.456C213.987 60.7626 214.663 62.8626 214.663 65.756V75.626H210.883V65.966C210.883 64.2626 210.51 62.9676 209.763 62.081C209.04 61.1943 207.978 60.751 206.578 60.751C205.085 60.751 203.907 61.276 203.043 62.326C202.203 63.3526 201.783 64.7643 201.783 66.561V75.626H198.003V51.126H201.783V60.296C203.137 58.4293 205.015 57.496 207.418 57.496ZM226.571 75.836C224.774 75.836 223.176 75.4626 221.776 74.716C220.399 73.946 219.326 72.8726 218.556 71.496C217.809 70.096 217.436 68.486 217.436 66.666C217.436 64.8693 217.809 63.2826 218.556 61.906C219.326 60.506 220.399 59.421 221.776 58.651C223.176 57.881 224.774 57.496 226.571 57.496C228.368 57.496 229.954 57.881 231.331 58.651C232.731 59.421 233.804 60.506 234.551 61.906C235.321 63.2826 235.706 64.8693 235.706 66.666C235.706 68.486 235.321 70.096 234.551 71.496C233.804 72.8726 232.731 73.946 231.331 74.716C229.954 75.4626 228.368 75.836 226.571 75.836ZM226.571 72.616C228.158 72.616 229.429 72.0676 230.386 70.971C231.366 69.851 231.856 68.416 231.856 66.666C231.856 64.916 231.366 63.4926 230.386 62.396C229.429 61.276 228.158 60.716 226.571 60.716C224.984 60.716 223.713 61.276 222.756 62.396C221.799 63.4926 221.321 64.916 221.321 66.666C221.321 68.416 221.799 69.851 222.756 70.971C223.713 72.0676 224.984 72.616 226.571 72.616ZM248.196 57.496C250.319 57.496 252.046 58.1493 253.376 59.456C254.729 60.7626 255.406 62.8626 255.406 65.756V75.626H251.591V65.966C251.591 64.2626 251.229 62.9676 250.506 62.081C249.782 61.1943 248.721 60.751 247.321 60.751C245.827 60.751 244.649 61.276 243.786 62.326C242.946 63.3526 242.526 64.776 242.526 66.596V75.626H238.746V57.706H242.036L242.456 60.051C243.809 58.3476 245.722 57.496 248.196 57.496ZM260.733 50.531C261.387 50.531 261.935 50.7526 262.378 51.196C262.822 51.616 263.043 52.1526 263.043 52.806C263.043 53.4593 262.822 54.0076 262.378 54.451C261.935 54.871 261.387 55.081 260.733 55.081C260.08 55.081 259.532 54.871 259.088 54.451C258.645 54.0076 258.423 53.4593 258.423 52.806C258.423 52.1526 258.645 51.616 259.088 51.196C259.532 50.7526 260.08 50.531 260.733 50.531ZM258.843 57.706H262.623V75.626H258.843V57.706ZM267.484 61.031H264.369V57.706H267.484V52.701H271.299V57.706H275.604V61.031H271.299V70.376C271.299 71.076 271.439 71.5776 271.719 71.881C271.999 72.161 272.477 72.301 273.154 72.301H276.024V75.626H272.384C270.68 75.626 269.432 75.2293 268.639 74.436C267.869 73.6426 267.484 72.4176 267.484 70.761V61.031ZM280.292 57.706L285.297 71.531L290.162 57.706H294.187L286.067 78.426C285.647 79.4993 285.262 80.316 284.912 80.876C284.562 81.4593 284.131 81.891 283.617 82.171C283.104 82.4743 282.416 82.626 281.552 82.626H277.492V79.301H280.152C280.876 79.301 281.377 79.1843 281.657 78.951C281.937 78.741 282.229 78.251 282.532 77.481L283.267 75.766L276.267 57.706H280.292Z" fill="white"/>
<path d="M62.8194 129.724C62.415 129.724 62.0071 129.72 61.6027 129.713C28.1371 129.077 0.503316 101.281 0.00712567 67.7536C-0.244368 50.7565 6.16872 34.733 18.0705 22.6345C29.9723 10.5326 45.8674 3.86719 62.8228 3.86719C67.6216 3.86719 72.4101 4.41186 77.056 5.49099L75.8257 10.8151C71.5843 9.83133 67.2103 9.33432 62.8228 9.33432C47.3389 9.33432 32.8271 15.421 21.9551 26.471C11.0898 37.5176 5.23072 52.1522 5.46182 67.6753C5.91723 98.2892 31.1482 123.667 61.7047 124.25C67.54 124.386 73.3108 123.599 78.8572 121.986L80.3798 127.235C74.6906 128.889 68.7907 129.724 62.8194 129.724Z" fill="white"/>
<path d="M62.2722 116.1C53.0689 116.1 44.0899 113.54 36.3105 108.693L39.1925 104.049C46.1052 108.356 54.0884 110.633 62.2722 110.633C80.2914 110.633 96.251 99.8042 102.933 83.0454L108 85.0743C100.486 103.92 82.5344 116.1 62.2722 116.1Z" fill="white"/>
<path d="M17.5097 87.3345C14.5495 80.8699 13.0474 73.9594 13.0474 66.797C13.0474 39.6112 35.1278 17.4941 62.2688 17.4941C80.74 17.4941 97.4983 27.7101 106.001 44.1489L101.155 46.6646C93.5933 32.0436 78.694 22.9613 62.2688 22.9613C38.139 22.9613 18.5055 42.6273 18.5055 66.797C18.5055 73.1697 19.8377 79.3108 22.4682 85.0571L17.5097 87.3345Z" fill="white"/>
<path d="M75.856 116.675C78.8742 116.675 81.3209 114.224 81.3209 111.201C81.3209 108.178 78.8742 105.727 75.856 105.727C72.8378 105.727 70.3911 108.178 70.3911 111.201C70.3911 114.224 72.8378 116.675 75.856 116.675Z" fill="white"/>
<path d="M79.33 15.632C83.6395 15.632 87.1331 12.1327 87.1331 7.81602C87.1331 3.49935 83.6395 0 79.33 0C75.0204 0 71.5269 3.49935 71.5269 7.81602C71.5269 12.1327 75.0204 15.632 79.33 15.632Z" fill="white"/>
</svg>
