<svg width="80" height="96" viewBox="0 0 80 96" fill="none" xmlns="http://www.w3.org/2000/svg">
<g id="Group 16964">
<path id="Vector" d="M57.2056 87.7164C53.2756 88.8564 49.2355 89.4064 45.2055 89.2964C23.8355 88.8864 6.18554 71.1364 5.87554 49.7264C5.71554 38.8664 9.80555 28.6364 17.4155 20.9064C25.0155 13.1764 35.1656 8.91637 45.9955 8.91637C47.9255 8.91637 49.8455 9.06637 51.7455 9.34637C52.7255 11.7364 55.0756 13.4364 57.8256 13.4364C61.4455 13.4364 64.3956 10.4864 64.3956 6.85637C64.3956 3.22637 61.4455 0.276367 57.8155 0.276367C55.4255 0.276367 53.3356 1.56637 52.1856 3.47637C50.1356 3.19637 48.0655 3.04637 45.9855 3.04637C33.5755 3.04637 21.9355 7.92637 13.2255 16.7864C4.51554 25.6364 -0.184457 37.3664 0.00554328 49.8164C0.365543 74.3564 20.5955 94.7064 45.0955 95.1664C45.3955 95.1664 45.6855 95.1664 45.9855 95.1664C50.3555 95.1664 54.6756 94.5564 58.8356 93.3464L59.7755 93.0764L58.1355 87.4364L57.1955 87.7064L57.2056 87.7164Z" fill="white"/>
<path id="Vector_2" d="M74.1853 59.4766L73.8253 60.3866C70.8253 67.9166 65.1153 73.7066 58.0753 76.8666C57.2953 76.3366 56.3453 76.0266 55.3353 76.0266C53.2853 76.0266 51.5353 77.2966 50.8053 79.0866C49.1053 79.3766 47.3753 79.5466 45.6053 79.5466C39.9253 79.5466 34.3853 77.9666 29.5853 74.9766L28.7553 74.4566L25.6553 79.4466L26.4853 79.9666C32.2153 83.5366 38.8253 85.4266 45.6053 85.4266C47.8953 85.4266 50.1453 85.1866 52.3353 84.7766C53.1653 85.4266 54.1953 85.8366 55.3353 85.8366C57.4953 85.8366 59.3153 84.4166 59.9653 82.4666C68.6053 78.7566 75.6253 71.7466 79.2753 62.5866L79.6353 61.6766L74.1853 59.4966V59.4766Z" fill="white"/>
<path id="Vector_3" d="M9.35547 49.1166C9.35547 54.3866 10.4655 59.4766 12.6455 64.2366L13.0555 65.1266L18.3855 62.6766L17.9755 61.7866C16.1555 57.7966 15.2255 53.5366 15.2255 49.1166C15.2255 32.3366 28.8555 18.6866 45.6055 18.6866C57.0055 18.6866 67.3455 24.9866 72.5955 35.1366L73.0455 36.0066L78.2555 33.3066L77.8055 32.4366C71.5454 20.3266 59.2055 12.8066 45.6055 12.8066C25.6255 12.8066 9.36546 29.0866 9.36546 49.1066L9.35547 49.1166Z" fill="white"/>
</g>
</svg>
