<svg width="63" height="60" viewBox="0 0 63 60" fill="none" xmlns="http://www.w3.org/2000/svg">
<path fill-rule="evenodd" clip-rule="evenodd" d="M31.5 5.936C45.4176 5.936 56.7 16.5666 56.7 29.68C56.7 42.7936 45.4176 53.424 31.5 53.424C17.5823 53.424 6.3 42.7936 6.3 29.68C6.3 16.5666 17.5823 5.936 31.5 5.936ZM63 29.68C63 13.2882 48.897 0 31.5 0C14.1029 0 -3.8147e-06 13.2882 -3.8147e-06 29.68C-3.8147e-06 46.0719 14.1029 59.36 31.5 59.36C48.8969 59.36 63 46.072 63 29.68ZM43.1774 18.6773C41.9472 17.5182 39.9528 17.5182 38.7226 18.6773L31.5003 25.4824L24.2777 18.6773C23.0475 17.5182 21.053 17.5183 19.8229 18.6773C18.5928 19.8364 18.5928 21.7157 19.823 22.8747L27.0455 29.6797L19.8229 36.485C18.5928 37.6441 18.5928 39.5233 19.8229 40.6824C21.0531 41.8415 23.0475 41.8415 24.2777 40.6824L31.5003 33.8771L38.7226 40.6824C39.9527 41.8415 41.9472 41.8415 43.1773 40.6824C44.4075 39.5234 44.4076 37.6442 43.1774 36.4851L35.955 29.6797L43.1774 22.8747C44.4075 21.7156 44.4075 19.8364 43.1774 18.6773Z" fill="#F4F0EC"/>
</svg>
