<svg width="40" height="40" viewBox="0 0 40 40" fill="none" xmlns="http://www.w3.org/2000/svg">
<g id="Vector">
<path d="M26.7453 13.2544C26.4047 12.9158 25.9439 12.7257 25.4635 12.7257C24.9832 12.7257 24.5224 12.9158 24.1817 13.2544L19.9999 17.4363L15.8362 13.2544C15.4939 12.9121 15.0295 12.7197 14.5453 12.7197C14.0612 12.7197 13.5968 12.9121 13.2544 13.2544C12.9121 13.5968 12.7197 14.0612 12.7197 14.5453C12.7197 15.0295 12.9121 15.4939 13.2544 15.8363L17.4362 19.9999L13.2544 24.1635C13.0641 24.3265 12.9095 24.5271 12.8004 24.7527C12.6913 24.9782 12.6299 25.2239 12.6203 25.4743C12.6106 25.7247 12.6528 25.9744 12.7442 26.2078C12.8356 26.4411 12.9742 26.653 13.1514 26.8302C13.3286 27.0074 13.5405 27.146 13.7738 27.2374C14.0072 27.3288 14.2569 27.371 14.5073 27.3613C14.7577 27.3517 15.0033 27.2903 15.2289 27.1812C15.4545 27.0721 15.6551 26.9175 15.8181 26.7272L19.9999 22.5635L24.1635 26.7272C24.5113 27.025 24.9588 27.1807 25.4163 27.163C25.8739 27.1453 26.308 26.9556 26.6318 26.6318C26.9556 26.308 27.1453 25.8739 27.163 25.4164C27.1807 24.9588 27.025 24.5113 26.7272 24.1635L22.5635 19.9999L26.7272 15.8363C26.8988 15.6684 27.0354 15.4683 27.1293 15.2474C27.2232 15.0265 27.2724 14.7892 27.2741 14.5491C27.2758 14.3091 27.2299 14.0711 27.1392 13.8489C27.0484 13.6267 26.9146 13.4247 26.7453 13.2544Z" fill="#313131"/>
<path d="M20 0C16.0444 0 12.1776 1.17298 8.8886 3.37061C5.59962 5.56823 3.03617 8.69181 1.52242 12.3463C0.00866572 16.0008 -0.387401 20.0222 0.384303 23.9018C1.15601 27.7814 3.06082 31.3451 5.85787 34.1421C8.65492 36.9392 12.2186 38.844 16.0982 39.6157C19.9778 40.3874 23.9992 39.9913 27.6537 38.4776C31.3082 36.9638 34.4318 34.4004 36.6294 31.1114C38.827 27.8224 40 23.9556 40 20C40 14.6957 37.8929 9.60859 34.1421 5.85786C30.3914 2.10714 25.3043 0 20 0ZM20 36.3636C16.7636 36.3636 13.5998 35.4039 10.9089 33.6059C8.21787 31.8078 6.1205 29.2521 4.88198 26.2621C3.64345 23.272 3.3194 19.9818 3.95079 16.8076C4.58219 13.6334 6.14067 10.7177 8.42917 8.42916C10.7177 6.14066 13.6334 4.58218 16.8076 3.95079C19.9819 3.31939 23.272 3.64345 26.2621 4.88197C29.2522 6.12049 31.8078 8.21786 33.6059 10.9088C35.4039 13.5998 36.3636 16.7636 36.3636 20C36.3636 24.3399 34.6396 28.5021 31.5708 31.5708C28.5021 34.6396 24.3399 36.3636 20 36.3636Z" fill="#313131"/>
</g>
</svg>
