<svg width="13" height="17" viewBox="0 0 13 17" fill="none" xmlns="http://www.w3.org/2000/svg">
<path d="M6.49782 0C2.91585 0 1.56297e-06 2.79721 0 6.23342C-2.23281e-06 12.2797 6.1315 16.8763 6.1315 16.8763C6.23617 16.9564 6.3661 17 6.5 17C6.6339 17 6.76383 16.9564 6.8685 16.8763C6.8685 16.8763 13 12.2797 13 6.23342C13 2.79721 10.0798 0 6.49782 0ZM6.49782 1.13373C9.44124 1.13373 11.8182 3.40977 11.8182 6.23342C11.8182 11.1798 7.14924 15.0877 6.50218 15.617C5.85821 15.0904 1.18182 11.1817 1.18182 6.23342C1.18182 3.40977 3.5544 1.13373 6.49782 1.13373Z" fill="#F4F0EC"/>
<path d="M6.49782 3.40119C4.87347 3.40119 3.54546 4.67518 3.54545 6.23343C3.54544 7.7917 4.87346 9.06984 6.49782 9.06984C8.12218 9.06984 9.45456 7.7917 9.45455 6.23343C9.45454 4.67518 8.12217 3.40119 6.49782 3.40119ZM6.49782 4.53492C7.48362 4.53492 8.27272 5.28773 8.27273 6.23343C8.27273 7.17912 7.48363 7.93611 6.49782 7.93611C5.51201 7.93611 4.72727 7.17912 4.72727 6.23343C4.72727 5.28773 5.51201 4.53492 6.49782 4.53492Z" fill="#F4F0EC"/>
</svg>
