<svg width="28" height="24" viewBox="0 0 28 24" fill="none" xmlns="http://www.w3.org/2000/svg">
<g clip-path="url(#clip0_512_1333)">
<path fill-rule="evenodd" clip-rule="evenodd" d="M14 0C14.7732 0 15.4 0.596954 15.4 1.33333V14.1144L18.6101 11.0572C19.1568 10.5365 20.0432 10.5365 20.59 11.0572C21.1367 11.5779 21.1367 12.4221 20.59 12.9428L14.99 18.2761C14.4432 18.7968 13.5568 18.7968 13.0101 18.2761L7.41005 12.9428C6.86332 12.4221 6.86332 11.5779 7.41005 11.0572C7.95678 10.5365 8.84322 10.5365 9.38995 11.0572L12.6 14.1144V1.33333C12.6 0.596954 13.2268 0 14 0ZM1.4 16C2.1732 16 2.8 16.597 2.8 17.3333V20C2.8 20.7364 3.42679 21.3333 4.2 21.3333H23.8C24.5732 21.3333 25.2 20.7364 25.2 20V17.3333C25.2 16.597 25.8268 16 26.6 16C27.3732 16 28 16.597 28 17.3333V20C28 22.2092 26.1196 24 23.8 24H4.2C1.88042 24 0 22.2092 0 20V17.3333C0 16.597 0.626801 16 1.4 16Z" fill="#27E1C1"/>
</g>
<defs>
<clipPath id="clip0_512_1333">
<rect width="28" height="24" fill="white"/>
</clipPath>
</defs>
</svg>
