<svg width="86" height="61" viewBox="0 0 86 61" fill="none" xmlns="http://www.w3.org/2000/svg">
<path d="M75.6555 0.276367H10.3445C4.64287 0.276367 0 4.91924 0 10.6208V49.8813C0 55.5829 4.64287 60.2258 10.3445 60.2258H75.6555C81.3571 60.2258 86 55.5829 86 49.8813V10.6208C86 4.91924 81.3571 0.276367 75.6555 0.276367ZM80.9395 49.8813C80.9395 52.7952 78.5695 55.1652 75.6555 55.1652H10.3445C7.43053 55.1652 5.06054 52.7952 5.06054 49.8813V16.6236V10.6208C5.06054 7.70691 7.43053 5.3369 10.3445 5.3369H75.6555C78.5695 5.3369 80.9395 7.70691 80.9395 10.6208V21.6841V49.8813Z" fill="white"/>
<path d="M42.9998 13.0488C33.5101 13.0488 25.7979 20.7708 25.7979 30.2508C25.7979 39.7308 33.5198 47.4527 42.9998 47.4527C52.4798 47.4527 60.2017 39.7308 60.2017 30.2508C60.2017 20.7708 52.4798 13.0488 42.9998 13.0488ZM42.9998 41.9454C36.5503 41.9454 31.3052 36.7003 31.3052 30.2508C31.3052 23.8013 36.5503 18.5562 42.9998 18.5562C49.4493 18.5562 54.6944 23.8013 54.6944 30.2508C54.6944 36.7003 49.4493 41.9454 42.9998 41.9454Z" fill="white"/>
</svg>
