<svg width="86" height="60" viewBox="0 0 86 60" fill="none" xmlns="http://www.w3.org/2000/svg">
<g id="Group 16989">
<path id="Vector" d="M75.6555 0H10.3445C4.64287 0 0 4.64287 0 10.3445V49.6049C0 55.3065 4.64287 59.9494 10.3445 59.9494H75.6555C81.3571 59.9494 86 55.3065 86 49.6049V10.3445C86 4.64287 81.3571 0 75.6555 0ZM80.9395 49.6049C80.9395 52.5189 78.5695 54.8889 75.6555 54.8889H10.3445C7.43053 54.8889 5.06054 52.5189 5.06054 49.6049V16.3472V10.3445C5.06054 7.43054 7.43053 5.06054 10.3445 5.06054H75.6555C78.5695 5.06054 80.9395 7.43054 80.9395 10.3445V21.4077V49.6049Z" fill="#1F719A"/>
<path id="Vector_2" d="M42.9988 12.7725C33.5091 12.7725 25.7969 20.4944 25.7969 29.9744C25.7969 39.4544 33.5188 47.1763 42.9988 47.1763C52.4788 47.1763 60.2008 39.4544 60.2008 29.9744C60.2008 20.4944 52.4788 12.7725 42.9988 12.7725ZM42.9988 41.669C36.5493 41.669 31.3042 36.4239 31.3042 29.9744C31.3042 23.5249 36.5493 18.2798 42.9988 18.2798C49.4483 18.2798 54.6934 23.5249 54.6934 29.9744C54.6934 36.4239 49.4483 41.669 42.9988 41.669Z" fill="#1F719A"/>
</g>
</svg>
