<svg width="16" height="11" viewBox="0 0 16 11" fill="none" xmlns="http://www.w3.org/2000/svg">
<path d="M15 0H1C0.734784 0 0.48043 0.105357 0.292893 0.292893C0.105357 0.48043 0 0.734784 0 1L0 10C0 10.2652 0.105357 10.5196 0.292893 10.7071C0.48043 10.8946 0.734784 11 1 11H15C15.2652 11 15.5196 10.8946 15.7071 10.7071C15.8946 10.5196 16 10.2652 16 10V1C16 0.734784 15.8946 0.48043 15.7071 0.292893C15.5196 0.105357 15.2652 0 15 0ZM13.7 1.25L8.42 6.06C8.30553 6.16541 8.15561 6.22393 8 6.22393C7.84439 6.22393 7.69447 6.16541 7.58 6.06L2.3 1.25H13.7ZM1.25 9.75V1.98L6.74 6.98C7.0834 7.29624 7.53317 7.47179 8 7.47179C8.46683 7.47179 8.9166 7.29624 9.26 6.98L14.75 1.98V9.75H1.25Z" fill="#F4F0EC"/>
</svg>
