<svg width="128" height="120" viewBox="0 0 128 120" fill="none" xmlns="http://www.w3.org/2000/svg">
<g id="Group 17155">
<path id="Vector" fill-rule="evenodd" clip-rule="evenodd" d="M116.556 40.5013C114.97 42.1744 113.033 43.4627 110.886 44.2695C105.299 46.3528 99.024 44.8722 94.9193 40.5013C89.3282 34.544 88.9234 25.3216 93.9706 18.8847C94.2721 18.5074 94.5881 18.1429 94.9193 17.7915L105.738 6.44043L116.556 17.7915C122.534 24.1494 122.534 34.1434 116.556 40.5013Z" stroke="#EB522D" stroke-width="12" stroke-linecap="round" stroke-linejoin="round"/>
<path id="Vector_2" d="M87.7906 78.4497C88.9819 75.4929 87.5506 72.1306 84.5931 70.9393C81.6365 69.7487 78.2743 71.1802 77.083 74.1369L87.7906 78.4497ZM75.6339 85.5745L79.2801 90.0489L79.3017 90.0312L75.6339 85.5745ZM42.9126 85.336L39.1761 89.7349L39.2019 89.7573L42.9126 85.336ZM41.652 73.8861C40.5096 70.9101 37.171 69.424 34.1952 70.566C31.2193 71.7089 29.733 75.0474 30.8753 78.0234L41.652 73.8861ZM77.1569 55.1966C78.4436 58.1134 81.8504 59.4347 84.7671 58.148C87.6837 56.8612 89.0042 53.4535 87.7175 50.5375L77.1569 55.1966ZM61.7657 50.5375C60.479 53.4535 61.7996 56.8612 64.7162 58.148C67.6328 59.4347 71.0397 58.1134 72.3264 55.1966L61.7657 50.5375ZM46.3745 55.1966C47.6612 58.1134 51.0681 59.4347 53.9847 58.148C56.9013 56.8612 58.2219 53.4535 56.9352 50.5375L46.3745 55.1966ZM30.9831 50.5375C29.6964 53.4535 31.0175 56.8612 33.9339 58.148C36.8503 59.4347 40.2575 58.1134 41.5442 55.1966L30.9831 50.5375ZM90.0077 23.5042C92.4673 25.5325 96.105 25.1833 98.1328 22.7242C100.161 20.265 99.8119 16.6272 97.3532 14.5988L90.0077 23.5042ZM116.204 42.502C115.24 39.4636 111.996 37.7821 108.957 38.7462C105.919 39.7104 104.238 42.955 105.202 45.9931L116.204 42.502ZM77.083 74.1369C75.9887 76.8551 74.2295 79.2555 71.967 81.1179L79.3017 90.0312C83.0556 86.9421 85.9745 82.9595 87.7906 78.4497L77.083 74.1369ZM71.9885 81.1002C64.5846 87.133 53.9385 87.0552 46.6231 80.9155L39.2019 89.7573C50.7603 99.4594 67.5813 99.5818 79.2801 90.0489L71.9885 81.1002ZM46.6493 80.937C44.4191 79.0423 42.7006 76.6181 41.652 73.8861L30.8753 78.0234C32.6173 82.5608 35.4716 86.5881 39.1761 89.7349L46.6493 80.937ZM87.7175 50.5375C85.4497 45.3959 80.3606 42.079 74.7412 42.079V53.6228C75.7871 53.6228 76.7344 54.24 77.1569 55.1966L87.7175 50.5375ZM74.7412 42.079C69.1227 42.079 64.0336 45.3959 61.7657 50.5375L72.3264 55.1966C72.7489 54.24 73.6962 53.6228 74.7412 53.6228V42.079ZM56.9352 50.5375C54.6673 45.3959 49.5782 42.079 43.9592 42.079V53.6228C45.0047 53.6228 45.952 54.24 46.3745 55.1966L56.9352 50.5375ZM43.9592 42.079C38.3403 42.079 33.2512 45.3959 30.9831 50.5375L41.5442 55.1966C41.9663 54.24 42.9135 53.6228 43.9592 53.6228V42.079ZM97.3532 14.5988C74.5396 -4.21885 41.3689 -3.42356 19.4837 16.4657L27.2471 25.0089C44.8862 8.9785 71.6207 8.33759 90.0077 23.5042L97.3532 14.5988ZM19.4837 16.4657C-2.40156 36.355 -6.35678 69.3001 10.1986 93.8053L19.7635 87.3423C6.42028 67.5924 9.6081 41.0391 27.2471 25.0089L19.4837 16.4657ZM10.1986 93.8053C26.7539 118.31 58.7937 126.934 85.4127 114.052L80.3844 103.661C58.9307 114.044 33.1068 107.092 19.7635 87.3423L10.1986 93.8053ZM85.4127 114.052C112.032 101.169 125.149 70.6899 116.204 42.502L105.202 45.9931C112.41 68.7129 101.839 93.2781 80.3844 103.661L85.4127 114.052Z" fill="#EB522D"/>
</g>
</svg>
