<svg width="187" height="176" viewBox="0 0 187 176" fill="none" xmlns="http://www.w3.org/2000/svg">
<path fill-rule="evenodd" clip-rule="evenodd" d="M171.406 59.0895C169.075 61.55 166.225 63.4445 163.069 64.631C154.852 67.6947 145.624 65.5173 139.588 59.0895C131.366 50.3287 130.771 36.7665 138.193 27.3004C138.636 26.7455 139.101 26.2096 139.588 25.6927L155.497 9L171.406 25.6927C180.198 35.0426 180.198 49.7397 171.406 59.0895Z" stroke="white" stroke-width="18" stroke-linecap="round" stroke-linejoin="round"/>
<path d="M129.104 114.897C130.856 110.548 128.751 105.604 124.402 103.852C120.054 102.101 115.109 104.206 113.357 108.554L129.104 114.897ZM111.226 125.374L116.588 131.954L116.62 131.928L111.226 125.374ZM63.1068 125.023L57.6119 131.493L57.6499 131.525L63.1068 125.023ZM61.2529 108.185C59.5729 103.809 54.6632 101.624 50.2871 103.303C45.9108 104.984 43.725 109.893 45.4049 114.27L61.2529 108.185ZM113.466 80.7009C115.358 84.9902 120.368 86.9334 124.657 85.0412C128.947 83.1489 130.889 78.1375 128.996 73.8493L113.466 80.7009ZM90.8319 73.8493C88.9397 78.1375 90.8817 83.1489 95.1709 85.0412C99.46 86.9334 104.47 84.9902 106.362 80.7009L90.8319 73.8493ZM68.1979 80.7009C70.0901 84.9902 75.1001 86.9334 79.3893 85.0412C83.6784 83.1489 85.6204 78.1375 83.7282 73.8493L68.1979 80.7009ZM45.5633 73.8493C43.6711 78.1375 45.614 83.1489 49.9028 85.0412C54.1916 86.9334 59.2023 84.9902 61.0945 80.7009L45.5633 73.8493ZM132.364 34.0943C135.981 37.0772 141.331 36.5637 144.313 32.9473C147.296 29.3309 146.782 23.9812 143.166 20.9982L132.364 34.0943ZM170.889 62.0324C169.471 57.5642 164.699 55.0913 160.231 56.5092C155.763 57.927 153.291 62.6986 154.709 67.1664L170.889 62.0324ZM113.357 108.554C111.748 112.552 109.161 116.082 105.834 118.82L116.62 131.928C122.141 127.385 126.433 121.529 129.104 114.897L113.357 108.554ZM105.865 118.794C94.9774 127.666 79.3214 127.552 68.5634 118.523L57.6499 131.525C74.6474 145.793 99.3842 145.973 116.588 131.954L105.865 118.794ZM68.6019 118.554C65.3222 115.768 62.795 112.203 61.2529 108.185L45.4049 114.27C47.9666 120.942 52.1641 126.865 57.6119 131.493L68.6019 118.554ZM128.996 73.8493C125.661 66.2881 118.177 61.4103 109.914 61.4103V78.3865C111.452 78.3865 112.845 79.2942 113.466 80.7009L128.996 73.8493ZM109.914 61.4103C101.651 61.4103 94.1671 66.2881 90.8319 73.8493L106.362 80.7009C106.984 79.2942 108.377 78.3865 109.914 78.3865V61.4103ZM83.7282 73.8493C80.3931 66.2881 72.9091 61.4103 64.6459 61.4103V78.3865C66.1834 78.3865 67.5765 79.2942 68.1979 80.7009L83.7282 73.8493ZM64.6459 61.4103C56.3827 61.4103 48.8988 66.2881 45.5633 73.8493L61.0945 80.7009C61.7152 79.2942 63.1081 78.3865 64.6459 78.3865V61.4103ZM143.166 20.9982C109.617 -6.67478 60.8366 -5.50523 28.6525 23.7437L40.0692 36.3071C66.0091 12.7331 105.325 11.7906 132.364 34.0943L143.166 20.9982ZM28.6525 23.7437C-3.5317 52.9927 -9.3482 101.441 14.9979 137.478L29.064 127.974C9.44159 98.9299 14.1296 59.8811 40.0692 36.3071L28.6525 23.7437ZM14.9979 137.478C39.344 173.514 86.4613 186.198 125.607 167.252L118.212 151.972C86.6627 167.241 48.6865 157.018 29.064 127.974L14.9979 137.478ZM125.607 167.252C164.753 148.308 184.042 103.485 170.889 62.0324L154.709 67.1664C165.309 100.578 149.763 136.703 118.212 151.972L125.607 167.252Z" fill="white"/>
</svg>
