<svg width="82" height="82" viewBox="0 0 82 82" fill="none" xmlns="http://www.w3.org/2000/svg">
<path d="M27.9542 37.2736C31.042 37.2736 33.5451 34.7704 33.5451 31.6827C33.5451 28.5949 31.042 26.0918 27.9542 26.0918C24.8664 26.0918 22.3633 28.5949 22.3633 31.6827C22.3633 34.7704 24.8664 37.2736 27.9542 37.2736Z" fill="#EB522D"/>
<path d="M57.5768 45.1209C59.418 46.0416 60.1642 48.2802 59.2436 50.1215L55.9099 48.4546C59.2436 50.1215 59.2443 50.12 59.2436 50.1215L59.2376 50.1334L59.2302 50.1479L59.2112 50.1856L59.1549 50.2922C59.1098 50.3771 59.0487 50.489 58.9715 50.6243C58.8172 50.8937 58.598 51.2586 58.3121 51.6869C57.7452 52.5375 56.895 53.6724 55.75 54.8174C53.4801 57.0874 49.7927 59.6364 44.7281 59.6364C40.3568 59.6364 36.9944 58.5391 34.6749 57.3792C33.5212 56.8026 32.6329 56.2141 32.0088 55.7463C31.6964 55.5118 31.4491 55.3068 31.2666 55.1469C31.1752 55.0672 31.1 54.9986 31.0407 54.9431L30.9638 54.8696L30.9343 54.8409L30.9217 54.8286L30.916 54.8227L30.9133 54.8201C30.912 54.8189 30.9107 54.8174 33.5167 52.2113L30.9133 54.8201C29.4577 53.3646 29.4551 51.0018 30.9107 49.5463C32.3538 48.1031 34.6857 48.0908 36.1442 49.5091L36.1755 49.537C36.2258 49.581 36.3279 49.6671 36.4815 49.7823C36.789 50.0134 37.2985 50.3566 38.0086 50.7119C39.4164 51.4156 41.6449 52.1819 44.7281 52.1819C47.118 52.1819 49.0215 51.0037 50.4789 49.5463C51.1975 48.8277 51.7447 48.099 52.1096 47.5519C52.29 47.2813 52.4201 47.0636 52.4991 46.9257C52.5382 46.8567 52.5643 46.8087 52.5774 46.7844L52.5856 46.7691C53.5118 44.9417 55.7418 44.2033 57.5768 45.1209Z" fill="#EB522D"/>
<path d="M48.4538 29.8184C46.3953 29.8184 44.7266 31.4871 44.7266 33.5456C44.7266 35.6042 46.3953 37.2729 48.4538 37.2729H55.9084C57.967 37.2729 59.6357 35.6042 59.6357 33.5456C59.6357 31.4871 57.967 29.8184 55.9084 29.8184H48.4538Z" fill="#EB522D"/>
<path fill-rule="evenodd" clip-rule="evenodd" d="M41 82C63.6436 82 82 63.6436 82 41C82 18.3563 63.6436 0 41 0C18.3563 0 0 18.3563 0 41C0 63.6436 18.3563 82 41 82ZM41 74.5201C22.4874 74.5201 7.48 59.5126 7.48 41C7.48 22.4874 22.4874 7.48 41 7.48C59.5126 7.48 74.5201 22.4874 74.5201 41C74.5201 59.5126 59.5126 74.5201 41 74.5201Z" fill="#EB522D"/>
</svg>
