<svg width="190" height="190" viewBox="0 0 190 190" fill="none" xmlns="http://www.w3.org/2000/svg">
<path d="M67.292 87.0835C73.8504 87.0835 79.167 81.7667 79.167 75.2085C79.167 68.6501 73.8504 63.3335 67.292 63.3335C60.7336 63.3335 55.417 68.6501 55.417 75.2085C55.417 81.7667 60.7336 87.0835 67.292 87.0835Z" fill="white"/>
<path d="M130.207 103.753C134.118 105.708 135.703 110.463 133.747 114.374L126.667 110.833C133.747 114.374 133.749 114.371 133.747 114.374L133.735 114.399L133.719 114.43L133.679 114.51L133.559 114.736C133.463 114.917 133.333 115.154 133.17 115.442C132.842 116.014 132.376 116.789 131.769 117.699C130.565 119.505 128.759 121.916 126.327 124.348C121.506 129.169 113.674 134.583 102.917 134.583C93.6322 134.583 86.4905 132.253 81.564 129.789C79.1136 128.564 77.2269 127.314 75.9012 126.321C75.2378 125.823 74.7125 125.387 74.3247 125.048C74.1308 124.878 73.9709 124.733 73.8451 124.615L73.6816 124.459L73.619 124.398L73.5923 124.372L73.5802 124.359L73.5745 124.353C73.5716 124.351 73.5689 124.348 79.104 118.813L73.5745 124.353C70.4828 121.262 70.4772 116.244 73.5689 113.152C76.634 110.087 81.5869 110.061 84.6847 113.073L84.7512 113.132C84.8581 113.226 85.075 113.409 85.4012 113.653C86.0543 114.144 87.1365 114.873 88.6447 115.628C91.6348 117.122 96.3682 118.75 102.917 118.75C107.993 118.75 112.036 116.248 115.131 113.152C116.658 111.626 117.82 110.078 118.595 108.916C118.978 108.341 119.254 107.879 119.422 107.586C119.505 107.439 119.561 107.337 119.589 107.286L119.606 107.253C121.573 103.372 126.31 101.804 130.207 103.753Z" fill="white"/>
<path d="M110.834 71.25C106.461 71.25 102.917 74.7944 102.917 79.1667C102.917 83.539 106.461 87.0833 110.834 87.0833H126.667C131.039 87.0833 134.584 83.539 134.584 79.1667C134.584 74.7944 131.039 71.25 126.667 71.25H110.834Z" fill="white"/>
<path fill-rule="evenodd" clip-rule="evenodd" d="M95.0003 182.083C143.095 182.083 182.084 143.094 182.084 94.9998C182.084 46.9051 143.095 7.9165 95.0003 7.9165C46.9055 7.9165 7.91699 46.9051 7.91699 94.9998C7.91699 143.094 46.9055 182.083 95.0003 182.083ZM95.0003 166.196C55.6799 166.196 23.8044 134.32 23.8044 94.9998C23.8044 55.6794 55.6799 23.8039 95.0003 23.8039C134.321 23.8039 166.196 55.6794 166.196 94.9998C166.196 134.32 134.321 166.196 95.0003 166.196Z" fill="white"/>
</svg>
