<svg width="23" height="24" viewBox="0 0 23 24" fill="none" xmlns="http://www.w3.org/2000/svg">
<path fill-rule="evenodd" clip-rule="evenodd" d="M0 12.3505C0 6.00144 5.14836 0.854492 11.4992 0.854492C17.85 0.854492 22.9984 6.00144 22.9984 12.3505C22.9984 18.6996 17.85 23.8466 11.4992 23.8466C5.14835 23.8466 0 18.6996 0 12.3505ZM11.4992 2.45859C6.03452 2.45859 1.60454 6.88736 1.60454 12.3505C1.60454 17.8137 6.03452 22.2425 11.4992 22.2425C16.9638 22.2425 21.3938 17.8137 21.3938 12.3505C21.3938 6.88737 16.9638 2.45859 11.4992 2.45859Z" fill="#B6B6B6"/>
<path fill-rule="evenodd" clip-rule="evenodd" d="M9.79978 7.7992C9.44943 8.09733 9.19503 8.55186 9.19503 9.22404C9.19503 9.64654 8.85351 9.98904 8.43223 9.98904C8.01095 9.98904 7.66943 9.64654 7.66943 9.22404C7.66943 8.11118 8.11426 7.22694 8.81276 6.63256C9.49467 6.05229 10.3767 5.78149 11.2292 5.78149C12.0816 5.7815 12.9636 6.05229 13.6456 6.63257C14.344 7.22695 14.7889 8.11119 14.7889 9.22404C14.7889 10.0052 14.5893 10.6005 14.2635 11.0907C13.9896 11.5027 13.6338 11.8212 13.3538 12.0717C13.3232 12.0991 13.2936 12.1256 13.265 12.1514C12.9526 12.4334 12.7171 12.6658 12.5445 12.9716C12.3794 13.2642 12.2462 13.6729 12.2462 14.324C12.2462 14.7465 11.9047 15.089 11.4834 15.089C11.0621 15.089 10.7206 14.7465 10.7206 14.324C10.7206 13.4451 10.9053 12.77 11.2169 12.2179C11.521 11.679 11.9212 11.3059 12.2445 11.0141C12.2696 10.9915 12.294 10.9694 12.3179 10.9479C12.6233 10.6729 12.8336 10.4834 12.9941 10.242C13.145 10.0151 13.2633 9.71785 13.2633 9.22404C13.2633 8.55187 13.0089 8.09734 12.6585 7.79921C12.2916 7.48697 11.7752 7.31151 11.2292 7.31151C10.6831 7.31151 10.1667 7.48697 9.79978 7.7992Z" fill="#B6B6B6"/>
<path fill-rule="evenodd" clip-rule="evenodd" d="M11.8661 17.9639C12.0893 18.1648 12.1073 18.5084 11.9062 18.7315L11.8989 18.7395C11.6978 18.9625 11.3538 18.9804 11.1306 18.7795C10.9074 18.5786 10.8894 18.235 11.0905 18.012L11.0978 18.0039C11.2989 17.7809 11.6429 17.763 11.8661 17.9639Z" fill="#B6B6B6" stroke="#B6B6B6" stroke-linecap="round" stroke-linejoin="round"/>
</svg>
