<svg width="16" height="17" viewBox="0 0 16 17" fill="none" xmlns="http://www.w3.org/2000/svg">
<g id="Group 16921">
<path id="Vector" d="M7.99989 3.86719C6.68841 3.86719 5.60645 4.93276 5.60645 6.26063C5.60645 6.60489 5.88513 6.86719 6.213 6.86719C6.54087 6.86719 6.81956 6.5885 6.81956 6.26063C6.81956 5.62129 7.34415 5.0967 7.98349 5.0967C8.65563 5.0967 9.14743 5.57211 9.14743 6.21145C9.14743 6.21145 9.14743 6.22784 9.14743 6.26063C9.14743 6.62129 9.04907 7.47374 7.88513 7.65407C7.59005 7.70325 7.36054 7.94915 7.36054 8.26063V9.91637C7.36054 10.2606 7.63923 10.5229 7.9671 10.5229C8.29497 10.5229 8.57366 10.2442 8.57366 9.91637V8.75243C10.1146 8.27702 10.3605 6.94915 10.3605 6.21145C10.3933 4.89997 9.31136 3.86719 7.99989 3.86719Z" fill="#27E1C1"/>
<path id="Vector_2" d="M8.00002 11.2588C7.5574 11.2588 7.21313 11.6194 7.21313 12.0457C7.21313 12.4719 7.57379 12.8326 8.00002 12.8326C8.42625 12.8326 8.78691 12.4719 8.78691 12.0457C8.78691 11.6194 8.42625 11.2588 8.00002 11.2588Z" fill="#27E1C1"/>
<path id="Vector_3" d="M8 0.276367C3.59016 0.276367 0 3.86653 0 8.27637C0 12.6862 3.59016 16.2764 8 16.2764C12.4098 16.2764 16 12.6862 16 8.27637C16 3.86653 12.4098 0.276367 8 0.276367ZM8 15.0633C4.2623 15.0633 1.21311 12.0141 1.21311 8.27637C1.21311 4.53866 4.2623 1.48948 8 1.48948C11.7377 1.48948 14.7869 4.53866 14.7869 8.27637C14.7705 12.0141 11.7377 15.0633 8 15.0633Z" fill="#27E1C1"/>
</g>
</svg>
