<svg width="22" height="22" viewBox="0 0 22 22" fill="none" xmlns="http://www.w3.org/2000/svg">
<path id="Vector" d="M11 1.98162C13.9368 1.98162 14.2845 1.99236 15.4447 2.0451C16.5171 2.09394 17.1001 2.27266 17.4869 2.42404C18.0006 2.62328 18.3669 2.86158 18.7517 3.24638C19.1365 3.63118 19.3748 3.99743 19.574 4.51114C19.7244 4.89887 19.9041 5.48095 19.9529 6.55331C20.0057 7.71357 20.0164 8.06126 20.0164 10.998C20.0164 13.9348 20.0057 14.2825 19.9529 15.4428C19.9041 16.5151 19.7254 17.0982 19.574 17.4849C19.3748 17.9987 19.1365 18.3649 18.7517 18.7497C18.3669 19.1345 18.0006 19.3728 17.4869 19.572C17.0992 19.7225 16.5171 19.9022 15.4447 19.951C14.2845 20.0037 13.9368 20.0145 11 20.0145C8.06322 20.0145 7.71553 20.0037 6.55527 19.951C5.48291 19.9022 4.89985 19.7234 4.51309 19.572C3.99937 19.3718 3.63314 19.1345 3.24834 18.7497C2.86354 18.3649 2.62523 17.9987 2.42599 17.4849C2.27559 17.0972 2.09589 16.5151 2.04705 15.4428C1.99431 14.2825 1.98357 13.9348 1.98357 10.998C1.98357 8.06126 1.99431 7.71357 2.04705 6.55331C2.09589 5.48095 2.27461 4.8979 2.42599 4.51114C2.62523 3.99743 2.86354 3.63118 3.24834 3.24638C3.63314 2.86158 3.99937 2.62328 4.51309 2.42404C4.90082 2.27364 5.48291 2.09394 6.55527 2.0451C7.71553 1.99236 8.06322 1.98162 11 1.98162ZM11 0C8.01243 0 7.63837 0.0126957 6.46541 0.0664114C5.29441 0.120127 4.49551 0.305691 3.79526 0.578176C3.07156 0.859451 2.45822 1.23546 1.84684 1.84684C1.23545 2.45822 0.858467 3.07156 0.578169 3.79526C0.30666 4.49454 0.120121 5.29441 0.0664055 6.46542C0.0126898 7.63837 0 8.0134 0 11C0 13.9866 0.0126898 14.3616 0.0664055 15.5346C0.120121 16.7056 0.305684 17.5045 0.578169 18.2047C0.859444 18.9284 1.23545 19.5418 1.84684 20.1532C2.45822 20.7645 3.07156 21.1405 3.79526 21.4218C4.49454 21.6933 5.29441 21.8799 6.46541 21.9336C7.63837 21.9873 8.01341 22 11 22C13.9866 22 14.3616 21.9873 15.5346 21.9336C16.7056 21.8799 17.5045 21.6943 18.2047 21.4218C18.9284 21.1405 19.5418 20.7645 20.1532 20.1532C20.7645 19.5418 21.1405 18.9284 21.4218 18.2047C21.6933 17.5055 21.8799 16.7056 21.9336 15.5346C21.9873 14.3616 22 13.9866 22 11C22 8.0134 21.9873 7.63837 21.9336 6.46542C21.8799 5.29441 21.6943 4.49552 21.4218 3.79526C21.1405 3.07156 20.7645 2.45822 20.1532 1.84684C19.5418 1.23546 18.9284 0.859451 18.2047 0.578176C17.5055 0.306668 16.7056 0.120127 15.5346 0.0664114C14.3616 0.0126957 13.9866 0 11 0ZM11 5.35106C7.88058 5.35106 5.35203 7.8796 5.35203 10.999C5.35203 14.1184 7.88058 16.647 11 16.647C14.1194 16.647 16.648 14.1184 16.648 10.999C16.648 7.8796 14.1194 5.35106 11 5.35106ZM11 14.6654C8.97541 14.6654 7.33366 13.0236 7.33366 10.999C7.33366 8.97443 8.97541 7.33268 11 7.33268C13.0246 7.33268 14.6663 8.97443 14.6663 10.999C14.6663 13.0236 13.0246 14.6654 11 14.6654ZM16.8716 3.80795C16.1421 3.80795 15.5522 4.39883 15.5522 5.12741C15.5522 5.85599 16.143 6.44686 16.8716 6.44686C17.6002 6.44686 18.1911 5.85599 18.1911 5.12741C18.1911 4.39883 17.6002 3.80795 16.8716 3.80795Z" fill="white"/>
</svg>
