<svg width="21" height="21" viewBox="0 0 21 21" fill="none" xmlns="http://www.w3.org/2000/svg">
<path fill-rule="evenodd" clip-rule="evenodd" d="M5.9628 0.124677C4.30908 0.199292 2.87573 0.603605 1.71833 1.75612C0.556894 2.91468 0.157603 4.35371 0.0828018 5.99022C0.0363035 7.01166 -0.235594 14.7284 0.552852 16.7521C1.08455 18.1173 2.13174 19.1671 3.5095 19.7005C4.15238 19.9505 4.88626 20.1198 5.9628 20.1692C14.9642 20.5766 18.3009 20.3548 19.708 16.7521C19.9577 16.1108 20.1295 15.3775 20.177 14.3037C20.5885 5.27917 20.1103 3.32305 18.5415 1.75612C17.2972 0.514869 15.8335 -0.330077 5.9628 0.124677ZM6.04566 18.3543C5.06011 18.3099 4.52539 18.1457 4.16857 18.0075C3.27095 17.6586 2.59673 16.9872 2.25002 16.0948C1.64958 14.5571 1.84873 7.25383 1.9023 6.07207C1.95486 4.91451 2.18937 3.85658 3.00612 3.03984C4.01695 2.03151 5.32292 1.53734 14.2152 1.93866C15.3756 1.99109 16.436 2.22512 17.2548 3.03984C18.2656 4.04816 18.7669 5.36419 18.3586 14.2223C18.3141 15.2054 18.1493 15.7389 18.0109 16.0948C17.0961 18.4392 14.9915 18.7646 6.04566 18.3543ZM14.3132 4.76404C14.3132 5.43156 14.8561 5.97435 15.5262 5.97435C16.1964 5.97435 16.7402 5.43156 16.7402 4.76404C16.7402 4.09653 16.1964 3.55422 15.5262 3.55422C14.8561 3.55422 14.3132 4.09653 14.3132 4.76404ZM4.93983 10.1465C4.93983 13.0061 7.26373 15.3245 10.1304 15.3245C12.9971 15.3245 15.321 13.0061 15.321 10.1465C15.321 7.28685 12.9971 4.96989 10.1304 4.96989C7.26373 4.96989 4.93983 7.28685 4.93983 10.1465ZM6.76134 10.1465C6.76134 8.29114 8.2695 6.78586 10.1304 6.78586C11.9914 6.78586 13.4995 8.29114 13.4995 10.1465C13.4995 12.0028 11.9914 13.5085 10.1304 13.5085C8.2695 13.5085 6.76134 12.0028 6.76134 10.1465Z" fill="#F4F0EC"/>
</svg>
