<svg width="99" height="124" viewBox="0 0 99 124" fill="none" xmlns="http://www.w3.org/2000/svg">
<mask id="path-1-outside-1_9633_635" maskUnits="userSpaceOnUse" x="0" y="0" width="99" height="125" fill="black">
<rect fill="white" width="99" height="125"/>
<path d="M97.703 65.1538C97.7004 62.5628 96.4625 60.0859 94.3916 58.5284L87.1641 53.0932V5.08423C87.1641 2.83211 85.332 1 83.0799 1H15.6242C13.3721 1 11.54 2.83211 11.54 5.08423V53.0932L4.31244 58.5284C2.24161 60.0859 1.00369 62.5626 1.00105 65.1538L1 116.808C1 120.222 3.77781 123 7.19222 123H91.5119C94.9263 123 97.7041 120.222 97.7041 116.808L97.703 65.1538ZM92.0159 61.6872C92.2673 61.8762 92.4939 62.092 92.6958 62.3273L87.1641 66.5422V58.0388L92.0159 61.6872ZM15.6242 4.95248H83.0799C83.1526 4.95248 83.2117 5.01151 83.2117 5.08423V69.5535L79.7738 72.1729C78.9056 72.8343 78.738 74.0743 79.3996 74.9425C79.7885 75.4529 80.3772 75.7212 80.973 75.7212C81.3904 75.7212 81.8114 75.5894 82.1693 75.3167L93.7516 66.4921V116.532L71.6264 99.6746C70.7584 99.0132 69.5184 99.1805 68.8568 100.049C68.1954 100.917 68.3627 102.157 69.2309 102.818L90.5319 119.048H8.17218L42.8845 92.6001C46.6926 89.6987 52.0118 89.699 55.8194 92.6001L62.9201 98.0103C63.7881 98.6717 65.0281 98.5044 65.6898 97.6361C66.3512 96.7679 66.1838 95.5279 65.3156 94.8665L60.9131 91.5121L65.3051 88.166C66.173 87.5046 66.3409 86.2646 65.6792 85.3963C65.0179 84.5284 63.7781 84.3608 62.9096 85.0222L57.6362 89.04C52.6629 85.6219 46.0407 85.6219 41.0676 89.04L27.3644 78.5994C26.4964 77.938 25.2564 78.1053 24.5947 78.9735C23.9334 79.8418 24.1007 81.0818 24.9689 81.7432L37.7908 91.5121L4.95248 116.532V66.4921L18.6441 76.9241C19.002 77.1968 19.4228 77.3285 19.8404 77.3285C20.4359 77.3285 21.0249 77.0603 21.4138 76.5499C22.0752 75.6816 21.9078 74.4416 21.0396 73.7803L15.4924 69.5535V5.08423C15.4924 5.01151 15.5515 4.95248 15.6242 4.95248ZM6.68815 61.6872L11.54 58.0386V66.5419L6.00832 62.3273C6.21016 62.092 6.43677 61.8764 6.68815 61.6872Z"/>
<path d="M68.8604 82.9725C69.2493 83.4829 69.838 83.7511 70.4337 83.7511C70.8511 83.7511 71.2722 83.6194 71.63 83.3466L75.8465 80.1341C76.7148 79.4727 76.8823 78.2327 76.2207 77.3644C75.5593 76.4965 74.3195 76.3289 73.4511 76.9903L69.2346 80.2028C68.3666 80.8642 68.199 82.1042 68.8604 82.9725Z"/>
<path fill-rule="evenodd" clip-rule="evenodd" d="M49.3511 28.4078C56.7351 28.4078 62.721 34.0944 62.721 41.1091C62.721 48.124 56.7351 53.8105 49.3511 53.8105C41.9671 53.8105 35.9813 48.124 35.9813 41.1091C35.9813 34.0944 41.9671 28.4078 49.3511 28.4078ZM66.0635 41.1091C66.0635 32.3407 58.5811 25.2324 49.3511 25.2324C40.1211 25.2324 32.6388 32.3407 32.6388 41.1091C32.6388 49.8777 40.1211 56.9858 49.3511 56.9858C58.5811 56.9858 66.0635 49.8777 66.0635 41.1091ZM55.5466 35.2235C54.8939 34.6034 53.8358 34.6034 53.1831 35.2235L49.3513 38.8637L45.5193 35.2234C44.8667 34.6034 43.8085 34.6035 43.1559 35.2235C42.5032 35.8435 42.5032 36.8488 43.1559 37.4688L46.9878 41.109L43.1559 44.7493C42.5032 45.3694 42.5032 46.3746 43.1559 46.9946C43.8085 47.6147 44.8667 47.6147 45.5194 46.9946L49.3513 43.3543L53.1831 46.9946C53.8357 47.6147 54.8939 47.6147 55.5466 46.9947C56.1992 46.3746 56.1993 45.3694 55.5466 44.7494L51.7148 41.109L55.5466 37.4688C56.1992 36.8487 56.1992 35.8435 55.5466 35.2235Z"/>
</mask>
<path d="M97.703 65.1538C97.7004 62.5628 96.4625 60.0859 94.3916 58.5284L87.1641 53.0932V5.08423C87.1641 2.83211 85.332 1 83.0799 1H15.6242C13.3721 1 11.54 2.83211 11.54 5.08423V53.0932L4.31244 58.5284C2.24161 60.0859 1.00369 62.5626 1.00105 65.1538L1 116.808C1 120.222 3.77781 123 7.19222 123H91.5119C94.9263 123 97.7041 120.222 97.7041 116.808L97.703 65.1538ZM92.0159 61.6872C92.2673 61.8762 92.4939 62.092 92.6958 62.3273L87.1641 66.5422V58.0388L92.0159 61.6872ZM15.6242 4.95248H83.0799C83.1526 4.95248 83.2117 5.01151 83.2117 5.08423V69.5535L79.7738 72.1729C78.9056 72.8343 78.738 74.0743 79.3996 74.9425C79.7885 75.4529 80.3772 75.7212 80.973 75.7212C81.3904 75.7212 81.8114 75.5894 82.1693 75.3167L93.7516 66.4921V116.532L71.6264 99.6746C70.7584 99.0132 69.5184 99.1805 68.8568 100.049C68.1954 100.917 68.3627 102.157 69.2309 102.818L90.5319 119.048H8.17218L42.8845 92.6001C46.6926 89.6987 52.0118 89.699 55.8194 92.6001L62.9201 98.0103C63.7881 98.6717 65.0281 98.5044 65.6898 97.6361C66.3512 96.7679 66.1838 95.5279 65.3156 94.8665L60.9131 91.5121L65.3051 88.166C66.173 87.5046 66.3409 86.2646 65.6792 85.3963C65.0179 84.5284 63.7781 84.3608 62.9096 85.0222L57.6362 89.04C52.6629 85.6219 46.0407 85.6219 41.0676 89.04L27.3644 78.5994C26.4964 77.938 25.2564 78.1053 24.5947 78.9735C23.9334 79.8418 24.1007 81.0818 24.9689 81.7432L37.7908 91.5121L4.95248 116.532V66.4921L18.6441 76.9241C19.002 77.1968 19.4228 77.3285 19.8404 77.3285C20.4359 77.3285 21.0249 77.0603 21.4138 76.5499C22.0752 75.6816 21.9078 74.4416 21.0396 73.7803L15.4924 69.5535V5.08423C15.4924 5.01151 15.5515 4.95248 15.6242 4.95248ZM6.68815 61.6872L11.54 58.0386V66.5419L6.00832 62.3273C6.21016 62.092 6.43677 61.8764 6.68815 61.6872Z" fill="#EB522D"/>
<path d="M68.8604 82.9725C69.2493 83.4829 69.838 83.7511 70.4337 83.7511C70.8511 83.7511 71.2722 83.6194 71.63 83.3466L75.8465 80.1341C76.7148 79.4727 76.8823 78.2327 76.2207 77.3644C75.5593 76.4965 74.3195 76.3289 73.4511 76.9903L69.2346 80.2028C68.3666 80.8642 68.199 82.1042 68.8604 82.9725Z" fill="#EB522D"/>
<path fill-rule="evenodd" clip-rule="evenodd" d="M49.3511 28.4078C56.7351 28.4078 62.721 34.0944 62.721 41.1091C62.721 48.124 56.7351 53.8105 49.3511 53.8105C41.9671 53.8105 35.9813 48.124 35.9813 41.1091C35.9813 34.0944 41.9671 28.4078 49.3511 28.4078ZM66.0635 41.1091C66.0635 32.3407 58.5811 25.2324 49.3511 25.2324C40.1211 25.2324 32.6388 32.3407 32.6388 41.1091C32.6388 49.8777 40.1211 56.9858 49.3511 56.9858C58.5811 56.9858 66.0635 49.8777 66.0635 41.1091ZM55.5466 35.2235C54.8939 34.6034 53.8358 34.6034 53.1831 35.2235L49.3513 38.8637L45.5193 35.2234C44.8667 34.6034 43.8085 34.6035 43.1559 35.2235C42.5032 35.8435 42.5032 36.8488 43.1559 37.4688L46.9878 41.109L43.1559 44.7493C42.5032 45.3694 42.5032 46.3746 43.1559 46.9946C43.8085 47.6147 44.8667 47.6147 45.5194 46.9946L49.3513 43.3543L53.1831 46.9946C53.8357 47.6147 54.8939 47.6147 55.5466 46.9947C56.1992 46.3746 56.1993 45.3694 55.5466 44.7494L51.7148 41.109L55.5466 37.4688C56.1992 36.8487 56.1992 35.8435 55.5466 35.2235Z" fill="#EB522D"/>
<path d="M97.703 65.1538L98.703 65.1538V65.1528L97.703 65.1538ZM94.3916 58.5284L94.9927 57.7292L94.9927 57.7292L94.3916 58.5284ZM87.1641 53.0932H86.1641V53.5924L86.5631 53.8924L87.1641 53.0932ZM11.54 53.0932L12.141 53.8924L12.54 53.5924V53.0932H11.54ZM4.31244 58.5284L3.71141 57.7292L3.71135 57.7292L4.31244 58.5284ZM1.00105 65.1538L0.00105447 65.1528L0.00105441 65.1538L1.00105 65.1538ZM1 116.808L0 116.808V116.808H1ZM97.7041 116.808H98.7041V116.808L97.7041 116.808ZM92.0159 61.6872L91.4149 62.4865L91.4151 62.4866L92.0159 61.6872ZM92.6958 62.3273L93.3018 63.1227L94.1447 62.4805L93.4548 61.6762L92.6958 62.3273ZM87.1641 66.5422H86.1641V68.5614L87.7702 67.3376L87.1641 66.5422ZM87.1641 58.0388L87.7651 57.2396L86.1641 56.0357V58.0388H87.1641ZM83.2117 69.5535L83.8177 70.3489L84.2117 70.0487V69.5535H83.2117ZM79.7738 72.1729L80.3798 72.9684L80.3799 72.9683L79.7738 72.1729ZM79.3996 74.9425L80.195 74.3364L80.195 74.3364L79.3996 74.9425ZM82.1693 75.3167L81.5632 74.5213L81.5631 74.5214L82.1693 75.3167ZM93.7516 66.4921H94.7516V64.4731L93.1456 65.6967L93.7516 66.4921ZM93.7516 116.532L93.1456 117.327L94.7516 118.551V116.532H93.7516ZM71.6264 99.6746L71.0203 100.47L71.0204 100.47L71.6264 99.6746ZM68.8568 100.049L68.0614 99.4426L68.0613 99.4427L68.8568 100.049ZM69.2309 102.818L69.837 102.023L69.8369 102.023L69.2309 102.818ZM90.5319 119.048V120.048H93.4945L91.138 118.252L90.5319 119.048ZM8.17218 119.048L7.56613 118.252L5.20962 120.048H8.17218V119.048ZM42.8845 92.6001L42.2784 91.8047L42.8845 92.6001ZM55.8194 92.6001L55.2133 93.3956L55.2133 93.3956L55.8194 92.6001ZM62.9201 98.0103L63.5262 97.2149L63.5262 97.2149L62.9201 98.0103ZM65.6898 97.6361L66.4851 98.2422L66.4853 98.2421L65.6898 97.6361ZM65.3156 94.8665L64.7096 95.6619L64.7096 95.662L65.3156 94.8665ZM60.9131 91.5121L60.307 90.7167L59.263 91.5121L60.307 92.3076L60.9131 91.5121ZM65.3051 88.166L65.9111 88.9614L65.9111 88.9614L65.3051 88.166ZM65.6792 85.3963L64.8838 86.0024L64.8839 86.0025L65.6792 85.3963ZM62.9096 85.0222L62.3037 84.2266L62.3036 84.2267L62.9096 85.0222ZM57.6362 89.04L57.0698 89.8641L57.6664 90.2742L58.2422 89.8354L57.6362 89.04ZM41.0676 89.04L40.4616 89.8354L41.0375 90.2742L41.6341 89.8641L41.0676 89.04ZM27.3644 78.5994L26.7583 79.3948L26.7583 79.3948L27.3644 78.5994ZM24.5947 78.9735L23.7994 78.3674L23.7993 78.3676L24.5947 78.9735ZM24.9689 81.7432L25.575 80.9478L25.5749 80.9477L24.9689 81.7432ZM37.7908 91.5121L38.3968 92.3076L39.4408 91.5121L38.3968 90.7167L37.7908 91.5121ZM4.95248 116.532H3.95248V118.551L5.55852 117.327L4.95248 116.532ZM4.95248 66.4921L5.55853 65.6967L3.95248 64.473V66.4921H4.95248ZM18.6441 76.9241L19.2503 76.1287L19.2502 76.1286L18.6441 76.9241ZM21.4138 76.5499L22.2092 77.156L22.2093 77.1559L21.4138 76.5499ZM21.0396 73.7803L20.4335 74.5757L20.4336 74.5757L21.0396 73.7803ZM15.4924 69.5535H14.4924V70.0487L14.8864 70.3489L15.4924 69.5535ZM6.68815 61.6872L6.08712 60.888L6.08681 60.8882L6.68815 61.6872ZM11.54 58.0386H12.54V56.0353L10.9389 57.2393L11.54 58.0386ZM11.54 66.5419L10.9339 67.3374L12.54 68.561V66.5419H11.54ZM6.00832 62.3273L5.24931 61.6762L4.5594 62.4805L5.40227 63.1227L6.00832 62.3273ZM68.8604 82.9725L68.0649 83.5784L68.065 83.5786L68.8604 82.9725ZM71.63 83.3466L71.024 82.5512L71.0239 82.5513L71.63 83.3466ZM75.8465 80.1341L75.2406 79.3386L75.2405 79.3386L75.8465 80.1341ZM76.2207 77.3644L75.4253 77.9705L75.4253 77.9706L76.2207 77.3644ZM73.4511 76.9903L72.8452 76.1947L72.845 76.1948L73.4511 76.9903ZM69.2346 80.2028L68.6285 79.4074L68.6285 79.4074L69.2346 80.2028ZM53.1831 35.2235L52.4944 34.4985H52.4944L53.1831 35.2235ZM55.5466 35.2235L56.2353 34.4985H56.2353L55.5466 35.2235ZM49.3513 38.8637L48.6626 39.5887C49.0485 39.9554 49.6541 39.9554 50.04 39.5887L49.3513 38.8637ZM45.5193 35.2234L44.8306 35.9485L45.5193 35.2234ZM43.1559 35.2235L43.8446 35.9485L43.1559 35.2235ZM43.1559 37.4688L42.4672 38.1938L43.1559 37.4688ZM46.9878 41.109L47.6766 41.834C47.8753 41.6452 47.9878 41.3831 47.9878 41.109C47.9878 40.8349 47.8753 40.5728 47.6766 40.384L46.9878 41.109ZM43.1559 44.7493L42.4671 44.0243L43.1559 44.7493ZM43.1559 46.9946L43.8446 46.2696H43.8446L43.1559 46.9946ZM45.5194 46.9946L44.8306 46.2696L45.5194 46.9946ZM49.3513 43.3543L50.0401 42.6293C49.6541 42.2626 49.0485 42.2626 48.6625 42.6293L49.3513 43.3543ZM53.1831 46.9946L52.4943 47.7196L53.1831 46.9946ZM55.5466 46.9947L54.8578 46.2696L55.5466 46.9947ZM55.5466 44.7494L56.2354 44.0244L55.5466 44.7494ZM51.7148 41.109L51.026 40.384C50.8273 40.5728 50.7148 40.8349 50.7148 41.109C50.7148 41.3831 50.8273 41.6452 51.026 41.834L51.7148 41.109ZM55.5466 37.4688L56.2353 38.1938L55.5466 37.4688ZM98.703 65.1528C98.7001 62.2479 97.3144 59.4754 94.9927 57.7292L93.7906 59.3276C95.6105 60.6964 96.7007 62.8778 96.703 65.1548L98.703 65.1528ZM94.9927 57.7292L87.7652 52.294L86.5631 53.8924L93.7906 59.3276L94.9927 57.7292ZM88.1641 53.0932V5.08423H86.1641V53.0932H88.1641ZM88.1641 5.08423C88.1641 2.27982 85.8843 0 83.0799 0V2C84.7797 2 86.1641 3.38439 86.1641 5.08423H88.1641ZM83.0799 0H15.6242V2H83.0799V0ZM15.6242 0C12.8198 0 10.54 2.27982 10.54 5.08423H12.54C12.54 3.38439 13.9243 2 15.6242 2V0ZM10.54 5.08423V53.0932H12.54V5.08423H10.54ZM10.9389 52.294L3.71141 57.7292L4.91347 59.3276L12.141 53.8924L10.9389 52.294ZM3.71135 57.7292C1.38966 59.4754 0.00400919 62.2476 0.00105494 65.1528L2.00105 65.1548C2.00337 62.8775 3.09355 60.6965 4.91353 59.3276L3.71135 57.7292ZM0 116.808C0 120.775 3.22552 124 7.19222 124V122C4.33009 122 2 119.67 2 116.808H0ZM7.19222 124H91.5119V122H7.19222V124ZM91.5119 124C95.4786 124 98.7041 120.775 98.7041 116.808H96.7041C96.7041 119.67 94.374 122 91.5119 122V124ZM91.4151 62.4866C91.6048 62.6292 91.779 62.7944 91.9368 62.9783L93.4548 61.6762C93.2089 61.3895 92.9298 61.1231 92.6168 60.8878L91.4151 62.4866ZM92.0897 61.5319L86.5581 65.7468L87.7702 67.3376L93.3018 63.1227L92.0897 61.5319ZM88.1641 66.5422V58.0388H86.1641V66.5422H88.1641ZM86.5631 58.8381L91.4149 62.4865L92.617 60.888L87.7651 57.2396L86.5631 58.8381ZM15.6242 5.95248H83.0799V3.95248H15.6242V5.95248ZM83.0799 5.95248C82.6003 5.95248 82.2117 5.56374 82.2117 5.08423H84.2117C84.2117 4.45927 83.705 3.95248 83.0799 3.95248V5.95248ZM82.2117 5.08423V69.5535H84.2117V5.08423H82.2117ZM82.6056 68.758L79.1677 71.3775L80.3799 72.9683L83.8177 70.3489L82.6056 68.758ZM79.1678 71.3774C77.8602 72.3735 77.6078 74.2411 78.6042 75.5487L80.195 74.3364C79.8681 73.9075 79.951 73.295 80.3798 72.9684L79.1678 71.3774ZM78.6042 75.5486C79.1902 76.3177 80.0785 76.7212 80.973 76.7212V74.7212C80.6759 74.7212 80.3868 74.5882 80.195 74.3364L78.6042 75.5486ZM80.973 76.7212C81.6016 76.7212 82.2373 76.5222 82.7754 76.112L81.5631 74.5214C81.3855 74.6567 81.1791 74.7212 80.973 74.7212V76.7212ZM82.7753 76.1121L94.3577 67.2876L93.1456 65.6967L81.5632 74.5213L82.7753 76.1121ZM92.7516 66.4921V116.532H94.7516V66.4921H92.7516ZM94.3577 115.736L72.2324 98.8791L71.0204 100.47L93.1456 117.327L94.3577 115.736ZM72.2325 98.8792C70.9253 97.8831 69.0578 98.1351 68.0614 99.4426L69.6521 100.655C69.979 100.226 70.5916 100.143 71.0203 100.47L72.2325 98.8792ZM68.0613 99.4427C67.0654 100.75 67.3171 102.618 68.625 103.614L69.8369 102.023C69.4083 101.696 69.3253 101.084 69.6523 100.655L68.0613 99.4427ZM68.6249 103.614L89.9259 119.843L91.138 118.252L69.837 102.023L68.6249 103.614ZM90.5319 118.048H8.17218V120.048H90.5319V118.048ZM8.77822 119.843L43.4905 93.3956L42.2784 91.8047L7.56613 118.252L8.77822 119.843ZM43.4905 93.3956C46.9406 90.7669 51.7637 90.7672 55.2133 93.3956L56.4254 91.8047C52.2599 88.6308 46.4445 88.6306 42.2784 91.8047L43.4905 93.3956ZM55.2133 93.3956L62.3141 98.8057L63.5262 97.2149L56.4254 91.8047L55.2133 93.3956ZM62.314 98.8057C63.6213 99.8018 65.4887 99.5497 66.4851 98.2422L64.8944 97.03C64.5675 97.459 63.9549 97.5416 63.5262 97.2149L62.314 98.8057ZM66.4853 98.2421C67.4811 96.9348 67.2294 95.0673 65.9216 94.071L64.7096 95.662C65.1383 95.9885 65.2212 96.601 64.8943 97.0302L66.4853 98.2421ZM65.9217 94.0711L61.5191 90.7167L60.307 92.3076L64.7096 95.6619L65.9217 94.0711ZM61.5191 92.3076L65.9111 88.9614L64.699 87.3705L60.307 90.7167L61.5191 92.3076ZM65.9111 88.9614C67.2182 87.9654 67.4712 86.0979 66.4746 84.7902L64.8839 86.0025C65.2106 86.4312 65.1278 87.0438 64.699 87.3706L65.9111 88.9614ZM66.4746 84.7902C65.4785 83.4829 63.6114 83.2308 62.3037 84.2266L63.5154 85.8177C63.9448 85.4908 64.5572 85.5738 64.8838 86.0024L66.4746 84.7902ZM62.3036 84.2267L57.0301 88.2446L58.2422 89.8354L63.5156 85.8176L62.3036 84.2267ZM58.2026 88.2159C52.8881 84.5633 45.8154 84.5632 40.5012 88.2159L41.6341 89.8641C46.2659 86.6805 52.4377 86.6805 57.0698 89.8641L58.2026 88.2159ZM41.6737 88.2446L27.9704 77.8039L26.7583 79.3948L40.4616 89.8354L41.6737 88.2446ZM27.9705 77.804C26.6632 76.8079 24.7958 77.0599 23.7994 78.3674L25.3901 79.5797C25.717 79.1507 26.3296 79.0681 26.7583 79.3948L27.9705 77.804ZM23.7993 78.3676C22.8034 79.6749 23.0551 81.5424 24.3629 82.5387L25.5749 80.9477C25.1463 80.6212 25.0633 80.0087 25.3902 79.5795L23.7993 78.3676ZM24.3629 82.5386L37.1847 92.3076L38.3968 90.7167L25.575 80.9478L24.3629 82.5386ZM37.1847 90.7167L4.34644 115.736L5.55852 117.327L38.3968 92.3076L37.1847 90.7167ZM5.95248 116.532V66.4921H3.95248V116.532H5.95248ZM4.34643 67.2876L18.0381 77.7195L19.2502 76.1286L5.55853 65.6967L4.34643 67.2876ZM18.038 77.7194C18.576 78.1295 19.2115 78.3285 19.8404 78.3285V76.3285C19.6341 76.3285 19.4279 76.2641 19.2503 76.1287L18.038 77.7194ZM19.8404 78.3285C20.7346 78.3285 21.6231 77.9251 22.2092 77.156L20.6184 75.9438C20.4266 76.1955 20.1373 76.3285 19.8404 76.3285V78.3285ZM22.2093 77.1559C23.2051 75.8486 22.9534 73.981 21.6456 72.9848L20.4336 74.5757C20.8623 74.9022 20.9452 75.5147 20.6183 75.9439L22.2093 77.1559ZM21.6457 72.9848L16.0985 68.7581L14.8864 70.3489L20.4335 74.5757L21.6457 72.9848ZM16.4924 69.5535V5.08423H14.4924V69.5535H16.4924ZM16.4924 5.08423C16.4924 5.5638 16.1037 5.95248 15.6242 5.95248V3.95248C14.9992 3.95248 14.4924 4.45922 14.4924 5.08423H16.4924ZM7.28918 62.4865L12.141 58.8378L10.9389 57.2393L6.08712 60.888L7.28918 62.4865ZM10.54 58.0386V66.5419H12.54V58.0386H10.54ZM12.146 65.7465L6.61438 61.5318L5.40227 63.1227L10.9339 67.3374L12.146 65.7465ZM6.76734 62.9783C6.92483 62.7947 7.09909 62.6295 7.28949 62.4862L6.08681 60.8882C5.77445 61.1233 5.4955 61.3892 5.24931 61.6762L6.76734 62.9783ZM68.065 83.5786C68.651 84.3476 69.5392 84.7511 70.4337 84.7511V82.7511C70.1367 82.7511 69.8476 82.6181 69.6558 82.3664L68.065 83.5786ZM70.4337 84.7511C71.0624 84.7511 71.6981 84.5521 72.2362 84.142L71.0239 82.5513C70.8463 82.6866 70.6399 82.7511 70.4337 82.7511V84.7511ZM72.2361 84.1421L76.4526 80.9295L75.2405 79.3386L71.024 82.5512L72.2361 84.1421ZM76.4525 80.9296C77.7601 79.9334 78.0125 78.0658 77.0161 76.7583L75.4253 77.9706C75.7522 78.3995 75.6694 79.0119 75.2406 79.3386L76.4525 80.9296ZM77.0161 76.7583C76.0199 75.451 74.1528 75.1989 72.8452 76.1947L74.0569 77.7858C74.4863 77.4589 75.0987 77.5419 75.4253 77.9705L77.0161 76.7583ZM72.845 76.1948L68.6285 79.4074L69.8406 80.9983L74.0571 77.7857L72.845 76.1948ZM68.6285 79.4074C67.3212 80.4036 67.0689 82.271 68.0649 83.5784L69.6559 82.3665C69.3291 81.9375 69.412 81.3249 69.8406 80.9982L68.6285 79.4074ZM63.721 41.1091C63.721 33.4944 57.2384 27.4078 49.3511 27.4078V29.4078C56.2318 29.4078 61.721 34.6944 61.721 41.1091H63.721ZM49.3511 54.8105C57.2384 54.8105 63.721 48.724 63.721 41.1091H61.721C61.721 47.524 56.2318 52.8105 49.3511 52.8105V54.8105ZM34.9813 41.1091C34.9813 48.724 41.4638 54.8105 49.3511 54.8105V52.8105C42.4704 52.8105 36.9813 47.524 36.9813 41.1091H34.9813ZM49.3511 27.4078C41.4638 27.4078 34.9813 33.4944 34.9813 41.1091H36.9813C36.9813 34.6944 42.4705 29.4078 49.3511 29.4078V27.4078ZM49.3511 26.2324C58.0778 26.2324 65.0635 32.9407 65.0635 41.1091H67.0635C67.0635 31.7407 59.0844 24.2324 49.3511 24.2324V26.2324ZM33.6388 41.1091C33.6388 32.9407 40.6245 26.2324 49.3511 26.2324V24.2324C39.6178 24.2324 31.6388 31.7407 31.6388 41.1091H33.6388ZM49.3511 55.9858C40.6245 55.9858 33.6388 49.2777 33.6388 41.1091H31.6388C31.6388 50.4777 39.6178 57.9858 49.3511 57.9858V55.9858ZM65.0635 41.1091C65.0635 49.2777 58.0778 55.9858 49.3511 55.9858V57.9858C59.0844 57.9858 67.0635 50.4777 67.0635 41.1091H65.0635ZM53.8719 35.9485C54.1385 35.6951 54.5911 35.6951 54.8578 35.9485L56.2353 34.4985C55.1967 33.5118 53.533 33.5118 52.4944 34.4985L53.8719 35.9485ZM50.04 39.5887L53.8719 35.9485L52.4944 34.4985L48.6625 38.1387L50.04 39.5887ZM44.8306 35.9485L48.6626 39.5887L50.04 38.1387L46.2081 34.4984L44.8306 35.9485ZM43.8446 35.9485C44.1113 35.6951 44.5639 35.6951 44.8306 35.9485L46.2081 34.4984C45.1694 33.5118 43.5057 33.5118 42.4671 34.4985L43.8446 35.9485ZM43.8446 36.7438C43.607 36.518 43.607 36.1743 43.8446 35.9485L42.4671 34.4985C41.3995 35.5128 41.3995 37.1795 42.4672 38.1938L43.8446 36.7438ZM47.6766 40.384L43.8446 36.7438L42.4672 38.1938L46.2991 41.834L47.6766 40.384ZM43.8446 45.4743L47.6766 41.834L46.2991 40.384L42.4671 44.0243L43.8446 45.4743ZM43.8446 46.2696C43.607 46.0439 43.607 45.7001 43.8446 45.4743L42.4671 44.0243C41.3995 45.0386 41.3995 46.7054 42.4671 47.7196L43.8446 46.2696ZM44.8306 46.2696C44.5639 46.523 44.1113 46.523 43.8446 46.2696L42.4671 47.7196C43.5057 48.7063 45.1695 48.7063 46.2081 47.7196L44.8306 46.2696ZM48.6625 42.6293L44.8306 46.2696L46.2081 47.7196L50.04 44.0793L48.6625 42.6293ZM53.8718 46.2696L50.0401 42.6293L48.6625 44.0793L52.4943 47.7196L53.8718 46.2696ZM54.8578 46.2696C54.5911 46.523 54.1385 46.523 53.8718 46.2696L52.4943 47.7196C53.5329 48.7063 55.1967 48.7063 56.2353 47.7197L54.8578 46.2696ZM54.8578 45.4743C55.0955 45.7001 55.0955 46.0439 54.8578 46.2696L56.2353 47.7197C57.303 46.7054 57.303 45.0387 56.2354 44.0244L54.8578 45.4743ZM51.026 41.834L54.8578 45.4743L56.2354 44.0244L52.4035 40.384L51.026 41.834ZM54.8578 36.7438L51.026 40.384L52.4035 41.834L56.2353 38.1938L54.8578 36.7438ZM54.8578 35.9485C55.0955 36.1742 55.0955 36.518 54.8578 36.7438L56.2353 38.1938C57.303 37.1795 57.303 35.5127 56.2353 34.4985L54.8578 35.9485ZM98.7041 116.808L98.703 65.1538L96.703 65.1538L96.7041 116.808L98.7041 116.808ZM0.00105441 65.1538L0 116.808L2 116.808L2.00105 65.1538L0.00105441 65.1538Z" fill="#EB522D" mask="url(#path-1-outside-1_9633_635)"/>
</svg>
