<svg width="146" height="154" viewBox="0 0 146 154" fill="none" xmlns="http://www.w3.org/2000/svg">
<g clip-path="url(#clip0_1235_4)" filter="url(#filter0_d_1235_4)">
<path d="M130.864 78.0431L130.863 76.7742C130.859 73.6736 129.378 70.7094 126.9 68.8455L118.251 62.3411V4.88769C118.251 2.19252 116.058 0 113.363 0H32.6371C29.942 0 27.7494 2.19252 27.7494 4.88769V62.3411L19.1001 68.8455C16.6219 70.7094 15.1405 73.6732 15.1373 76.7742L15.136 78.0431C15.136 78.0435 15.136 78.0438 15.136 78.0444C15.136 78.045 15.136 78.045 15.136 78.0457V138.59C15.136 142.676 18.4603 146 22.5464 146H123.454C127.54 146 130.864 142.676 130.864 138.59V78.0457C130.864 78.0454 130.864 78.045 130.864 78.0444C130.864 78.0438 130.864 78.0435 130.864 78.0431ZM124.057 72.6257C124.358 72.8518 124.629 73.1101 124.87 73.3916L118.251 78.4357V68.2596L124.057 72.6257ZM32.6371 4.73002H113.363C113.45 4.73002 113.52 4.80066 113.52 4.88769V82.0394L109.406 85.1741C108.367 85.9656 108.167 87.4496 108.959 88.4886C109.424 89.0994 110.128 89.4204 110.841 89.4204C111.341 89.4204 111.845 89.2628 112.273 88.9364L126.134 78.3758V138.259L99.6562 118.086C98.6175 117.294 97.1335 117.495 96.3417 118.534C95.5502 119.573 95.7504 121.057 96.7895 121.848L122.281 141.27H23.7191L65.2601 109.62C69.8173 106.148 76.183 106.148 80.7396 109.62L89.2372 116.094C90.2759 116.886 91.7599 116.686 92.5517 115.647C93.3432 114.607 93.1429 113.124 92.1039 112.332L86.8353 108.318L92.0913 104.313C93.13 103.522 93.3309 102.038 92.5391 100.999C91.7476 99.9602 90.2639 99.7596 89.2246 100.551L82.9138 105.359C76.9622 101.269 69.0372 101.269 63.0858 105.359L46.6869 92.8648C45.6482 92.0733 44.1642 92.2736 43.3724 93.3126C42.5809 94.3516 42.7811 95.8356 43.8202 96.6271L59.1643 108.318L19.8661 138.259V78.3758L36.2512 90.8599C36.6794 91.1863 37.183 91.344 37.6828 91.344C38.3955 91.344 39.1002 91.023 39.5657 90.4121C40.3572 89.3731 40.1569 87.8892 39.1179 87.0977L32.4795 82.0394V4.88769C32.4795 4.80066 32.5501 4.73002 32.6371 4.73002ZM21.9432 72.6257L27.7494 68.2593V78.4354L21.1296 73.3916C21.3712 73.1101 21.6423 72.8521 21.9432 72.6257Z" fill="white"/>
<path d="M96.3454 98.0985C96.8109 98.7093 97.5153 99.0303 98.2283 99.0303C98.7278 99.0303 99.2317 98.8726 99.6599 98.5462L104.706 94.7017C105.745 93.9102 105.945 92.4262 105.154 91.3872C104.362 90.3485 102.879 90.1479 101.839 90.9394L96.7932 94.784C95.7545 95.5755 95.5539 97.0594 96.3454 98.0985Z" fill="white"/>
</g>
<path fill-rule="evenodd" clip-rule="evenodd" d="M73 32.8C81.8365 32.8 89 39.6053 89 48C89 56.3948 81.8366 63.2 73 63.2C64.1634 63.2 57 56.3948 57 48C57 39.6053 64.1634 32.8 73 32.8ZM93 48C93 37.5066 84.0457 29 73 29C61.9542 29 53 37.5066 53 48C53 58.4935 61.9542 67 73 67C84.0457 67 93 58.4935 93 48ZM80.4142 40.9565C79.6332 40.2145 78.3668 40.2145 77.5858 40.9565L73.0002 45.3128L68.4144 40.9565C67.6333 40.2145 66.367 40.2145 65.586 40.9565C64.8049 41.6985 64.8049 42.9015 65.586 43.6435L70.1717 47.9998L65.586 52.3563C64.8049 53.0983 64.8049 54.3013 65.586 55.0433C66.367 55.7853 67.6334 55.7853 68.4144 55.0433L73.0002 50.6868L77.5858 55.0433C78.3668 55.7853 79.6331 55.7853 80.4142 55.0433C81.1953 54.3014 81.1953 53.0983 80.4142 52.3563L75.8286 47.9998L80.4142 43.6435C81.1953 42.9015 81.1953 41.6985 80.4142 40.9565Z" fill="#F4F0EC"/>
<defs>
<filter id="filter0_d_1235_4" x="-4" y="0" width="154" height="154" filterUnits="userSpaceOnUse" color-interpolation-filters="sRGB">
<feFlood flood-opacity="0" result="BackgroundImageFix"/>
<feColorMatrix in="SourceAlpha" type="matrix" values="0 0 0 0 0 0 0 0 0 0 0 0 0 0 0 0 0 0 127 0" result="hardAlpha"/>
<feOffset dy="4"/>
<feGaussianBlur stdDeviation="2"/>
<feComposite in2="hardAlpha" operator="out"/>
<feColorMatrix type="matrix" values="0 0 0 0 0 0 0 0 0 0 0 0 0 0 0 0 0 0 0.25 0"/>
<feBlend mode="normal" in2="BackgroundImageFix" result="effect1_dropShadow_1235_4"/>
<feBlend mode="normal" in="SourceGraphic" in2="effect1_dropShadow_1235_4" result="shape"/>
</filter>
<clipPath id="clip0_1235_4">
<rect width="146" height="146" fill="white"/>
</clipPath>
</defs>
</svg>
