<svg width="146" height="146" viewBox="0 0 146 146" fill="none" xmlns="http://www.w3.org/2000/svg">
<g clip-path="url(#clip0_963_8)">
<path d="M130.864 78.0431L130.863 76.7742C130.859 73.6736 129.378 70.7094 126.9 68.8455L118.251 62.3411V4.88769C118.251 2.19252 116.058 0 113.363 0H32.6371C29.942 0 27.7494 2.19252 27.7494 4.88769V62.3411L19.1001 68.8455C16.6219 70.7094 15.1405 73.6732 15.1373 76.7742L15.136 78.0431C15.136 78.0435 15.136 78.0438 15.136 78.0444C15.136 78.045 15.136 78.045 15.136 78.0457V138.59C15.136 142.676 18.4603 146 22.5464 146H123.454C127.54 146 130.864 142.676 130.864 138.59V78.0457C130.864 78.0454 130.864 78.045 130.864 78.0444C130.864 78.0438 130.864 78.0435 130.864 78.0431ZM124.057 72.6257C124.358 72.8518 124.629 73.1101 124.87 73.3916L118.251 78.4357V68.2596L124.057 72.6257ZM32.6371 4.73002H113.363C113.45 4.73002 113.52 4.80066 113.52 4.88769V82.0394L109.406 85.1741C108.367 85.9656 108.167 87.4496 108.959 88.4886C109.424 89.0994 110.128 89.4204 110.841 89.4204C111.341 89.4204 111.845 89.2628 112.273 88.9364L126.134 78.3758V138.259L99.6562 118.086C98.6175 117.294 97.1335 117.495 96.3417 118.534C95.5502 119.573 95.7504 121.057 96.7895 121.848L122.281 141.27H23.7191L65.2601 109.62C69.8173 106.148 76.183 106.148 80.7396 109.62L89.2372 116.094C90.2759 116.886 91.7599 116.686 92.5517 115.647C93.3432 114.607 93.1429 113.124 92.1039 112.332L86.8353 108.318L92.0913 104.313C93.13 103.522 93.3309 102.038 92.5391 100.999C91.7476 99.9602 90.2639 99.7596 89.2246 100.551L82.9138 105.359C76.9622 101.269 69.0372 101.269 63.0858 105.359L46.6869 92.8648C45.6482 92.0733 44.1642 92.2736 43.3724 93.3126C42.5809 94.3516 42.7811 95.8356 43.8202 96.6271L59.1643 108.318L19.8661 138.259V78.3758L36.2512 90.8599C36.6794 91.1863 37.183 91.344 37.6828 91.344C38.3955 91.344 39.1002 91.023 39.5657 90.4121C40.3572 89.3731 40.1569 87.8892 39.1179 87.0977L32.4795 82.0394V4.88769C32.4795 4.80066 32.5501 4.73002 32.6371 4.73002ZM21.9432 72.6257L27.7494 68.2593V78.4354L21.1296 73.3916C21.3712 73.1101 21.6423 72.8521 21.9432 72.6257Z" fill="white"/>
<path d="M96.3455 98.0985C96.8109 98.7093 97.5154 99.0303 98.2283 99.0303C98.7278 99.0303 99.2317 98.8726 99.66 98.5462L104.706 94.7017C105.745 93.9102 105.946 92.4262 105.154 91.3872C104.362 90.3485 102.879 90.1479 101.839 90.9394L96.7932 94.784C95.7545 95.5755 95.554 97.0594 96.3455 98.0985Z" fill="white"/>
</g>
<path fill-rule="evenodd" clip-rule="evenodd" d="M58.8882 55.5045C58.8875 53.3312 59.4073 51.1894 60.404 49.2581C61.4007 47.3269 62.8454 45.6624 64.6171 44.4039C66.3889 43.1453 68.4363 42.3293 70.588 42.0242C72.7397 41.719 74.9333 41.9335 76.9851 42.6497C77.4722 42.8194 78.0067 42.7886 78.4711 42.5642C78.9355 42.3397 79.2917 41.94 79.4614 41.4529C79.631 40.9659 79.6003 40.4313 79.3758 39.967C79.1514 39.5026 78.7516 39.1464 78.2646 38.9767C74.6816 37.7267 70.7895 37.6752 67.1747 38.8299C63.5599 39.9847 60.4185 42.2831 58.2238 45.3788C56.0291 48.4745 54.9001 52.1997 55.0069 55.9929C55.1138 59.7861 56.4508 63.4418 58.8163 66.409C61.1818 69.3762 64.4477 71.4941 68.1218 72.4435C71.7958 73.3928 75.6789 73.1223 79.1858 71.6725C82.6927 70.2227 85.6333 67.6724 87.5644 64.4058C89.4956 61.1392 90.3126 57.3334 89.8923 53.562C89.8642 53.3082 89.7864 53.0624 89.6634 52.8386C89.5403 52.6149 89.3743 52.4175 89.175 52.2579C88.9757 52.0983 88.7468 51.9795 88.5016 51.9084C88.2563 51.8372 87.9995 51.815 87.7457 51.8431C87.4919 51.8712 87.2461 51.949 87.0223 52.0721C86.7986 52.1951 86.6012 52.3611 86.4416 52.5604C86.282 52.7598 86.1632 52.9886 86.0921 53.2338C86.0209 53.4791 85.9987 53.7359 86.0268 53.9897C86.2316 55.829 86.0592 57.6907 85.5201 59.461C84.981 61.2314 84.0866 62.8732 82.8914 64.2861C81.6963 65.6991 80.2256 66.8535 78.5692 67.6788C76.9128 68.5041 75.1055 68.9829 73.2578 69.086C71.4101 69.1892 69.5607 68.9144 67.8228 68.2786C66.0848 67.6427 64.4948 66.6592 63.1499 65.388C61.8049 64.1168 60.7333 62.5847 60.0006 60.8854C59.2678 59.186 58.8893 57.3551 58.8882 55.5045ZM87.5687 45.125C87.9101 44.7383 88.0839 44.2317 88.0518 43.7168C88.0197 43.2019 87.7844 42.7209 87.3976 42.3795C87.0108 42.0381 86.5043 41.8643 85.9894 41.8964C85.4745 41.9285 84.9935 42.1638 84.6521 42.5506L72.1396 56.7061L65.9504 51.6642C65.7525 51.5028 65.5248 51.382 65.2802 51.3086C65.0356 51.2353 64.7789 51.2108 64.5249 51.2366C64.0118 51.2888 63.5405 51.5426 63.2146 51.9422C63.0532 52.1401 62.9324 52.3679 62.859 52.6125C62.7856 52.8571 62.7612 53.1137 62.787 53.3678C62.8391 53.8808 63.093 54.3522 63.4926 54.6781L71.1323 60.9003C71.5216 61.217 72.0181 61.3709 72.5182 61.33C73.0183 61.289 73.4832 61.0563 73.8157 60.6806L87.5687 45.125Z" fill="white"/>
<defs>
<clipPath id="clip0_963_8">
<rect width="146" height="146" fill="white"/>
</clipPath>
</defs>
</svg>
