<svg width="102" height="102" viewBox="0 0 102 102" fill="none" xmlns="http://www.w3.org/2000/svg">
<path d="M28.2564 54.3884C28.6427 54.3859 28.9984 54.219 29.2664 53.9468C29.5334 53.6758 29.7015 53.3147 29.7607 52.9334L29.7608 52.9334L29.7618 52.9261C29.8066 52.6068 30.1981 49.3703 29.2687 44.7891C33.9034 39.0435 34.0019 33.4994 33.1694 29.7803L33.1694 29.7801C31.4945 22.3118 24.7004 15.628 16.6623 13.4882L16.6621 13.4881C6.51228 10.7911 5.91418 2.46921 5.90041 2.16599L5.90056 2.16598L5.8997 2.15371C5.88113 1.88877 5.8103 1.62869 5.68892 1.39546L5.68541 1.38872L5.6817 1.38208C5.66108 1.34524 5.63861 1.30936 5.61429 1.27466C5.44597 0.987692 5.19924 0.75259 4.89515 0.620303C4.83085 0.581469 4.76121 0.55855 4.69406 0.549422C4.68906 0.548742 4.68398 0.548113 4.67883 0.547542C4.55309 0.512196 4.42269 0.496169 4.29124 0.500772L4.2774 0.501256L4.26362 0.502505C4.03198 0.523492 3.81232 0.603595 3.61904 0.730837L3.57636 0.758933L3.55184 0.783483C3.25064 1.00255 3.03701 1.32685 2.92678 1.68722L2.9267 1.6872L2.92417 1.69603C2.77279 2.22548 1.01323 8.48273 0.590796 16.227C0.16955 23.9494 1.07034 33.2741 6.35965 39.8338L6.74888 39.52L6.35966 39.8338C10.3696 44.8065 14.7401 46.7567 18.5285 47.2995C21.8999 47.7826 24.7789 47.1472 26.4955 46.5897C27.0428 49.9302 26.7646 52.1678 26.738 52.3482L26.7379 52.3482L26.737 52.3554C26.6797 52.788 26.7621 53.2378 26.9793 53.611C27.197 53.9853 27.5461 54.2712 27.9732 54.3625L27.9732 54.3626L27.9829 54.3645C28.073 54.3819 28.1646 54.3899 28.2564 54.3884ZM28.2564 54.3884C28.255 54.3884 28.2535 54.3884 28.252 54.3884L28.2505 53.8884L28.2608 54.3883C28.2593 54.3883 28.2579 54.3883 28.2564 54.3884ZM17.3557 25.2037L17.3556 25.2037C12.1366 20.7162 9.26151 16.2042 7.68349 12.4099C9.59721 14.2699 12.2533 15.9307 15.9645 16.9177L15.9646 16.9177C22.8615 18.7505 28.841 24.575 30.2045 30.6648C30.9777 34.1198 30.2979 37.5729 28.1984 40.817C26.5611 36.0057 23.3989 30.4012 17.3557 25.2037ZM8.60342 37.4342C5.55613 33.6546 4.19797 28.6124 3.7664 23.5034C3.41719 19.3695 3.67752 15.2266 4.11696 11.7412C5.6591 16.4636 8.88739 22.3239 15.5181 28.0233C21.5307 33.1939 24.3858 38.7319 25.7165 43.2129C24.3363 43.6973 21.9252 44.2835 19.0672 43.8929C15.9034 43.4604 12.1481 41.8256 8.60342 37.4342Z" fill="white" stroke="white"/>
<path d="M47.1662 56.8841L47.1662 56.8839C49.9482 43.3719 61.2648 31.2073 74.7058 27.3099L74.706 27.3098C92.0076 22.302 93.0634 6.80586 93.0903 6.15925L93.0902 6.15925L93.0909 6.14797C93.1184 5.72178 93.2229 5.3051 93.4006 4.93309L93.4037 4.92655L93.4071 4.92011C93.4379 4.86007 93.4717 4.80181 93.5085 4.74572C93.7584 4.27495 94.1282 3.89217 94.5851 3.68247C94.6552 3.63213 94.7363 3.60011 94.8203 3.58768L94.8215 3.5964L94.8203 3.58768C94.8339 3.58566 94.8477 3.58401 94.862 3.58281C95.0514 3.52168 95.2487 3.49362 95.4479 3.50122L95.463 3.50179L95.478 3.50327C95.8169 3.53672 96.1374 3.66428 96.4186 3.86596L96.4607 3.89615L96.4957 3.93433L96.4969 3.93562C96.9462 4.28262 97.267 4.8055 97.4321 5.39346L97.4322 5.39344L97.4343 5.4017C97.6855 6.35877 100.639 17.7977 101.348 31.952C102.055 46.083 100.533 63.0421 91.7221 74.9448L91.3203 74.6473L91.7221 74.9448C85.0303 83.9839 77.7491 87.5176 71.4439 88.5017C65.583 89.4164 60.6129 88.1214 57.806 87.083C56.7823 93.5153 57.2749 97.8634 57.3261 98.2416L57.3269 98.2483C57.4117 98.9462 57.289 99.6691 56.9705 100.265C56.6523 100.861 56.1439 101.314 55.521 101.46L55.5211 101.46L55.5106 101.462C55.3788 101.49 55.2447 101.502 55.1102 101.5C54.5442 101.496 54.0253 101.23 53.635 100.799C53.2462 100.369 52.9983 99.7924 52.9107 99.178L52.9098 99.1713C52.8386 98.6183 52.1717 92.643 53.775 84.1934C45.9409 73.716 45.7808 63.6259 47.1662 56.8841ZM55.3051 77.8886C57.9735 68.9774 63.2688 58.4632 73.6681 48.7211L73.6681 48.7211C83.2846 39.7144 88.2118 30.6399 90.7207 23.2603C87.4821 27.1595 82.7411 30.7557 75.7262 32.7878L75.7261 32.7878C64.0254 36.1747 53.8299 46.9472 51.4949 58.3069C50.1196 65.0002 51.4256 71.6766 55.3051 77.8886ZM88.4509 71.1004C93.6507 64.0756 95.9521 54.728 96.6824 45.3108C97.3262 37.0093 96.7461 28.6963 95.8852 21.9573C93.5146 30.7965 88.1608 42.1717 76.3479 53.2316C66.0031 62.9217 61.1655 73.3257 58.9518 81.6887C61.2408 82.609 65.5107 83.8421 70.6195 83.0815C76.0223 82.2771 82.4231 79.2345 88.4509 71.1004Z" fill="white" stroke="white"/>
</svg>
