<svg width="106" height="92" viewBox="0 0 106 92" fill="none" xmlns="http://www.w3.org/2000/svg">
<path id="Vector" d="M103.03 0.27977C100.486 0.368663 40.5986 2.88729 25.0672 31.2342C17.1388 45.6941 18.7461 58.6725 21.4974 67.0383C21.8623 68.1149 22.2567 69.1124 22.7103 70.0804C23.371 71.5027 25.0573 72.115 26.4872 71.4533C27.9072 70.7915 28.5186 69.0927 27.8579 67.6704C27.493 66.8901 27.1775 66.0901 26.8816 65.2407C24.4952 57.9712 23.0949 46.6522 30.0471 33.98C42.1566 11.8753 87.7055 7.06525 100.111 6.15657C99.2037 18.5818 94.4111 64.1937 72.3418 76.3325C59.6504 83.2958 48.3692 81.8834 41.1409 79.4833C39.9872 79.0981 38.8827 78.6338 37.8374 78.0807C49.5821 67.8877 54.6902 55.4723 54.779 55.255C55.3608 53.7932 54.6508 52.1438 53.2012 51.561C51.7516 50.9783 50.0949 51.6894 49.5131 53.1414C49.3849 53.4673 36.1807 85.5872 2.84003 85.5872C1.27209 85.5872 0 86.8614 0 88.4318C0 90.0022 1.27209 91.2764 2.84003 91.2764C15.3539 91.2764 25.3137 87.2268 33.0252 81.8439C34.9777 83.0982 37.0978 84.1254 39.3659 84.8761C43.123 86.1305 47.8367 87.1379 53.211 87.1379C59.6997 87.1379 67.1646 85.6564 75.093 81.3105C103.375 65.7543 105.899 5.77137 105.998 3.22311C106.028 2.43295 105.722 1.66255 105.17 1.10944C104.617 0.546449 103.858 0.240262 103.059 0.27977H103.03Z" fill="white"/>
</svg>
