<svg width="127" height="127" viewBox="0 0 127 127" fill="none" xmlns="http://www.w3.org/2000/svg">
<path d="M2.29175 54.9208L52.7103 74.3064L72.102 124.709C72.6309 126.119 73.8649 127 75.4515 127C76.8618 127 78.2721 126.119 78.801 124.709L126.752 4.87075C127.28 3.63712 126.928 2.05102 126.046 0.993628C124.989 -0.0637681 123.578 -0.240001 122.168 0.288697L2.29175 48.224C0.881443 48.7527 0 49.9863 0 51.5724C0 52.9823 0.881443 54.3921 2.29175 54.9208ZM117.056 9.9815L75.4515 113.783L60.1144 73.7777L80.3876 53.511C81.7979 52.1011 81.7979 49.9863 80.3876 48.5765C78.9773 47.1666 76.8618 47.1666 75.4515 48.5765L56.0598 67.9621L13.2216 51.3962L117.056 9.9815Z" fill="black"/>
</svg>
