<svg width="140" height="140" viewBox="0 0 140 140" fill="none" xmlns="http://www.w3.org/2000/svg">
<path d="M135.962 65.9615H125.196C123.217 38.6571 101.343 16.7825 74.0385 14.8041V4.03846C74.0385 1.80788 72.2306 0 70 0C67.7694 0 65.9615 1.80788 65.9615 4.03846V14.8041C38.6571 16.7825 16.7825 38.6571 14.8041 65.9615H4.03846C1.80788 65.9615 0 67.7694 0 70C0 72.2306 1.80788 74.0385 4.03846 74.0385H14.8041C16.7825 101.343 38.6571 123.217 65.9615 125.196V135.962C65.9615 138.192 67.7694 140 70 140C72.2306 140 74.0385 138.192 74.0385 135.962V125.196C101.343 123.217 123.217 101.343 125.196 74.0385H135.962C138.192 74.0385 140 72.2306 140 70C140 67.7694 138.192 65.9615 135.962 65.9615ZM74.0385 117.093V106.649C74.0385 104.419 72.2306 102.611 70 102.611C67.7694 102.611 65.9615 104.419 65.9615 106.649V117.093C43.1133 115.15 24.85 96.8867 22.9071 74.0385H33.3505C35.5811 74.0385 37.389 72.2306 37.389 70C37.389 67.7694 35.5811 65.9615 33.3505 65.9615H22.9071C24.85 43.1133 43.1133 24.85 65.9615 22.9071V33.3505C65.9615 35.5811 67.7694 37.389 70 37.389C72.2306 37.389 74.0385 35.5811 74.0385 33.3505V22.9071C96.8867 24.8496 115.15 43.1133 117.093 65.9615H106.649C104.419 65.9615 102.611 67.7694 102.611 70C102.611 72.2306 104.419 74.0385 106.649 74.0385H117.093C115.15 96.8867 96.8867 115.15 74.0385 117.093Z" fill="white"/>
<path d="M82.2532 57.7469C80.6759 56.1697 78.1191 56.1697 76.5419 57.7469L70 64.2888L63.4582 57.7469C61.8809 56.1697 59.3241 56.1697 57.7469 57.7469C56.1697 59.3241 56.1697 61.8809 57.7469 63.4582L64.2888 70L57.7469 76.5419C56.1697 78.1191 56.1697 80.6759 57.7469 82.2532C58.5353 83.0416 59.5691 83.436 60.6025 83.436C61.6359 83.436 62.6693 83.0416 63.4582 82.2532L70 75.7113L76.5419 82.2532C77.3303 83.0416 78.3641 83.436 79.3975 83.436C80.4309 83.436 81.4643 83.0416 82.2532 82.2532C83.8304 80.6759 83.8304 78.1191 82.2532 76.5419L75.7113 70L82.2532 63.4582C83.8304 61.8809 83.8304 59.3241 82.2532 57.7469Z" fill="white"/>
</svg>
