<svg width="22" height="22" viewBox="0 0 22 22" fill="none" xmlns="http://www.w3.org/2000/svg">
<g id="Messenger">
<path id="Vector" d="M13.7762 12.968L16.6912 8.65658C16.9798 8.23193 16.4326 7.77032 16.0147 8.07498L12.8708 10.2907C12.7675 10.3626 12.6418 10.4015 12.5127 10.4015C12.3835 10.4015 12.2578 10.3626 12.1545 10.2907L9.82647 8.66582C9.13006 8.18577 8.13513 8.36118 7.66753 9.03509L4.75248 13.3465C4.46396 13.7712 5.01116 14.2328 5.42901 13.9281L8.57291 11.7124C8.6762 11.6405 8.80193 11.6016 8.93107 11.6016C9.06021 11.6016 9.18594 11.6405 9.28923 11.7124L11.6173 13.3096C12.3137 13.8173 13.3086 13.642 13.7762 12.968Z" fill="white"/>
<path id="Vector_2" fill-rule="evenodd" clip-rule="evenodd" d="M10.725 0C4.80174 0 0 4.80174 0 10.725C0 13.7666 1.26713 16.5133 3.3 18.4641V21.175C3.3 21.4402 3.42747 21.6892 3.64261 21.8442C3.85774 21.9993 4.1343 22.0416 4.38588 21.9576L7.4435 20.9385C8.4787 21.2708 9.58165 21.45 10.725 21.45C16.6483 21.45 21.45 16.6483 21.45 10.725C21.45 4.80174 16.6483 0 10.725 0ZM1.65 10.725C1.65 5.71301 5.71301 1.65 10.725 1.65C15.7369 1.65 19.8 5.71301 19.8 10.725C19.8 15.7369 15.7369 19.8 10.725 19.8C9.66954 19.8 8.65776 19.6201 7.71772 19.2901C7.54507 19.2294 7.35714 19.228 7.18354 19.2858L4.94999 20.0303V18.1041C4.94999 17.8695 4.85006 17.6458 4.6752 17.4894C2.81729 15.8266 1.65 13.4126 1.65 10.725Z" fill="white"/>
</g>
</svg>
