<svg width="20" height="21" viewBox="0 0 20 21" fill="none" xmlns="http://www.w3.org/2000/svg">
<path d="M12.7967 12.2411L15.5042 8.23648C15.7722 7.84205 15.264 7.4133 14.8759 7.69627L11.9557 9.75432C11.8598 9.82104 11.743 9.85721 11.6231 9.85721C11.5031 9.85721 11.3863 9.82104 11.2904 9.75432L9.12805 8.24506C8.4812 7.79918 7.55709 7.9621 7.12277 8.58805L4.4152 12.5926C4.14722 12.9871 4.65547 13.4158 5.04358 13.1328L7.96371 11.0748C8.05965 11.0081 8.17643 10.9719 8.29638 10.9719C8.41633 10.9719 8.53311 11.0081 8.62905 11.0748L10.7914 12.5583C11.4382 13.0299 12.3624 12.8671 12.7967 12.2411Z" fill="#F4F0EC"/>
<path fill-rule="evenodd" clip-rule="evenodd" d="M9.96164 0.197266C4.45997 0.197266 0 4.65724 0 10.1589C0 12.984 1.17694 15.5352 3.06512 17.3472V19.8651C3.06512 20.1115 3.18353 20.3428 3.38335 20.4867C3.58317 20.6308 3.84004 20.67 4.07372 20.5921L6.91372 19.6455C7.87523 19.9541 8.89968 20.1205 9.96164 20.1205C15.4633 20.1205 19.9233 15.6606 19.9233 10.1589C19.9233 4.65724 15.4633 0.197266 9.96164 0.197266ZM1.53256 10.1589C1.53256 5.50365 5.30639 1.72983 9.96164 1.72983C14.6168 1.72983 18.3907 5.50365 18.3907 10.1589C18.3907 14.8141 14.6168 18.588 9.96164 18.588C8.98131 18.588 8.04155 18.4209 7.16842 18.1144C7.00805 18.058 6.8335 18.0567 6.67226 18.1104L4.59768 18.8019V17.0128C4.59768 16.7949 4.50486 16.5872 4.34245 16.4419C2.61677 14.8974 1.53256 12.6552 1.53256 10.1589Z" fill="#F4F0EC"/>
</svg>
