<svg width="20" height="21" viewBox="0 0 20 21" fill="none" xmlns="http://www.w3.org/2000/svg">
<g id="Group 16926">
<path id="Vector" d="M19.8704 18.6786L18.418 15.5212C19.281 14.0267 19.7441 12.3217 19.7441 10.5957C19.7441 5.14395 15.3238 0.723633 9.87205 0.723633C4.42032 0.723633 0 5.14395 0 10.5957C0 16.0474 4.42032 20.4677 9.87205 20.4677C11.5981 20.4677 13.3031 20.0047 14.7976 19.1416L17.9549 20.594C18.1444 20.6782 18.3549 20.7203 18.5653 20.7203C18.9442 20.7203 19.3021 20.573 19.5757 20.2993C19.9967 19.8573 20.123 19.2258 19.8704 18.6786ZM16.692 15.8159L18.0391 18.7417L15.1133 17.3946C14.8397 17.2683 14.545 17.2893 14.2924 17.4577C12.9663 18.2997 11.4507 18.7417 9.8931 18.7417C5.38858 18.7417 1.72603 15.0792 1.72603 10.5746C1.70498 6.09117 5.36753 2.42861 9.87205 2.42861C14.3766 2.42861 18.0391 6.09117 18.0391 10.5957C18.0391 12.1533 17.5971 13.6899 16.7551 14.995C16.5867 15.2475 16.5657 15.5422 16.692 15.8159Z" fill="white"/>
<ellipse id="Ellipse 81" cx="10.2085" cy="10.7222" rx="1.1577" ry="1.1577" fill="white"/>
<g id="Group 16925">
<ellipse id="Ellipse 82" cx="5.9995" cy="10.7222" rx="1.1577" ry="1.1577" fill="white"/>
<ellipse id="Ellipse 83" cx="14.4194" cy="10.7223" rx="1.1577" ry="1.1577" fill="white"/>
<ellipse id="Ellipse 84" cx="10.2095" cy="10.7223" rx="1.1577" ry="1.1577" fill="white"/>
</g>
</g>
</svg>
