<svg width="137" height="95" viewBox="0 0 137 95" fill="none" xmlns="http://www.w3.org/2000/svg">
<path id="Vector" d="M135.006 56.8596L126.913 54.7537C126.443 54.6367 125.974 54.6367 125.505 54.8707L118.35 58.3805C117.881 58.6145 117.529 59.0825 117.294 59.5505L114.596 67.7402C114.479 67.9741 114.362 68.2081 114.127 68.3251L102.632 74.2919C102.398 74.4089 102.046 74.4089 101.811 74.2919L93.6005 70.314C93.3659 70.197 93.2486 70.08 93.1313 69.8461L86.9146 57.9126C86.7973 57.7956 86.7973 57.6786 86.7973 57.5616L86.4454 42.8202C86.4454 42.5862 86.5627 42.3522 86.68 42.1182L88.9086 39.5443C89.0259 39.3103 89.2605 39.0764 89.2605 38.8424C89.3778 38.3744 89.3778 37.7894 89.1432 37.3214C88.9086 36.8534 88.4394 36.5025 87.9702 36.3855L79.4076 33.6946C79.173 33.5776 78.9385 33.4606 78.8212 33.2266L71.6661 19.8892C71.3142 19.4212 70.845 19.0702 70.2585 18.9532L62.8689 17.3153C62.0478 17.1983 61.1095 17.5493 60.7576 18.3682L60.0538 19.6552C59.8192 20.1232 59.35 20.3571 58.8808 20.1232L55.7138 18.8362C55.4792 18.7192 55.3619 18.6022 55.2447 18.4852L48.3242 8.54064C47.9723 8.07266 47.3858 7.72167 46.7993 7.72167L38.9405 7.25369C38.1194 7.25369 37.2984 7.72167 36.9465 8.42365L36.7119 9.12562C36.5946 9.4766 36.1254 9.71059 35.6562 9.71059L26.1552 8.42365C26.0379 8.42365 25.9206 8.42365 25.8033 8.30665L11.2586 0.23399C10.9068 0 10.4376 0 9.96839 0L1.64038 1.40394C1.52308 1.40394 1.40578 1.40394 1.28849 1.52094C0.232824 1.87192 -0.23636 3.04187 0.115528 4.09483L5.39385 18.1342L5.98033 19.0702L10.203 23.984C10.4376 24.335 10.5549 24.803 10.203 25.1539L8.56084 27.4938C8.09165 28.3128 8.09165 29.2488 8.79543 29.9507L14.6602 36.0345L17.5926 38.2574C17.8272 38.3744 17.9445 38.6084 17.9445 38.9594L18.2964 42.8202C18.2964 43.2882 18.531 43.6392 18.8829 43.9901L24.865 50.1909L28.2666 54.6367C28.6185 55.1047 29.2049 55.4557 29.9087 55.4557C30.4952 55.4557 31.0817 55.1047 31.4336 54.6367L36.1254 48.202L36.2427 48.085C36.4773 47.617 36.5946 47.149 36.4773 46.564C36.36 46.0961 36.0081 45.6281 35.5389 45.3941L30.9644 42.8202C30.8471 42.7032 30.7298 42.5862 30.6125 42.4692L24.1612 30.0677V29.9507L23.9266 25.0369V24.9199C23.692 24.335 23.4574 23.75 22.9883 23.399L17.2408 17.9002V17.5493C17.1235 17.1983 17.2407 16.8473 17.5926 16.6133C17.9445 16.3793 18.2964 16.3793 18.6483 16.4963L19.5867 17.0813C19.704 17.1983 19.8213 17.3153 19.9385 17.4323L26.859 29.3658L31.5509 40.7143C31.7855 41.1823 32.02 41.6502 32.3719 42.0012L46.0956 54.8707C46.2129 54.9877 46.3302 55.2217 46.4475 55.4557L47.2685 67.5062C47.2685 67.9741 47.5031 68.4421 47.855 68.7931L57.356 78.7377C57.5906 78.9717 57.9425 79.2057 58.4116 79.3227L65.3321 80.8436C65.4103 80.8436 65.4885 80.8826 65.5667 80.9606L76.3579 85.8744C76.7098 85.9914 77.0617 86.1084 77.4136 85.9914L80.1114 85.6404C80.346 85.6404 80.5806 85.6404 80.6979 85.7574L87.6184 90.2032C88.0875 90.5542 88.674 90.5542 89.2605 90.4372L99.8171 87.6293C100.052 87.5123 100.404 87.6293 100.521 87.7463L111.547 94.649C111.899 94.883 112.251 95 112.602 95C113.423 95 114.245 94.415 114.479 93.5961L116.239 87.6293C116.356 87.2783 116.708 86.9273 117.177 86.9273H120.813C121.048 86.9273 121.4 86.9273 121.634 86.8103C122.103 86.5763 122.455 86.2254 122.69 85.7574C122.924 85.2894 122.924 84.7044 122.69 84.2365L121.048 80.4926C120.93 80.1416 120.93 79.9076 121.165 79.5566C121.4 79.2057 121.634 79.0887 121.986 79.0887H125.505C126.913 79.0887 128.085 78.2697 128.672 77.0998L136.883 59.7845C136.883 59.6675 137 59.5505 137 59.4335C136.765 58.2635 136.179 57.0936 135.006 56.8596ZM115.183 77.9187L116.825 81.6626C116.942 82.0135 116.942 82.2475 116.708 82.5985C116.473 82.9495 116.239 83.0665 115.887 83.0665H114.596C113.775 83.0665 112.954 83.6515 112.72 84.4704L111.429 88.7993C111.312 89.0332 111.078 89.2672 110.843 89.3842C110.608 89.5012 110.257 89.5012 110.022 89.2672L101.225 83.7685C100.873 83.5345 100.521 83.4175 100.169 83.4175H99.5825L89.0259 86.2254C88.7913 86.3424 88.4394 86.2254 88.2048 86.1084L81.8709 82.0135C81.1671 81.5456 80.346 81.4286 79.5249 81.4286L77.179 81.6626C77.0617 81.6626 76.8271 81.6626 76.7098 81.5456L66.2705 76.8658L59.5846 75.3448C59.35 75.3448 59.2327 75.2278 59.1154 75.1108L50.9047 66.4532C50.7874 66.3362 50.6701 66.1022 50.6701 65.8682L49.849 53.7007C49.849 53.2328 49.6144 52.7648 49.2626 52.4138L34.8352 38.9594C34.7179 38.8424 34.6006 38.7254 34.6006 38.6084L30.026 27.4938C30.026 27.3768 30.026 27.2599 29.9087 27.1429L22.7537 14.8584C22.4018 14.2734 21.9326 13.8054 21.3461 13.4544L14.3084 9.71059C13.9565 9.4766 13.4873 9.4766 13.0181 9.4766C11.9624 9.71059 11.2586 10.7635 11.4932 11.8165L13.4873 19.3042C13.6046 20.0062 13.9565 20.5911 14.5429 21.0591L19.5867 25.7389C19.704 25.8559 19.8213 25.9729 19.8213 26.0899L19.9385 30.8867V31.1207L20.1732 31.7057L26.9763 44.9261C27.0936 45.2771 27.4455 45.5111 27.7974 45.7451L30.2606 47.149C30.4952 47.266 30.6125 47.5 30.7298 47.734C30.8471 47.968 30.7298 48.319 30.6125 48.436L30.1433 49.0209C29.9087 49.2549 29.6741 49.3719 29.3222 49.3719C28.9703 49.3719 28.7358 49.2549 28.6185 49.0209L27.5628 47.617L21.9326 41.7672C21.8153 41.6502 21.698 41.4163 21.698 41.1823L21.3461 37.2044C21.3461 36.7365 20.9942 36.1515 20.6423 35.8005L17.0061 32.8756L13.0181 28.7808C12.6662 28.4298 12.6662 27.9618 12.9008 27.6108L14.4256 25.5049C15.0121 24.803 15.0121 23.75 14.4256 23.048L8.91273 16.4963C8.83453 16.4183 8.79543 16.3403 8.79543 16.2623L4.92467 5.96675C4.80738 5.73276 4.80736 5.38177 5.04196 5.14778C5.15925 4.91379 5.39385 4.6798 5.74574 4.6798L9.61651 4.09483C9.8511 4.09483 10.0857 4.09483 10.203 4.21182L24.2785 12.0505C24.5131 12.1675 24.7477 12.2845 24.9823 12.2845L37.2984 13.9224C38.2367 14.0394 39.0578 13.5714 39.4097 12.7525L39.7616 11.9335C39.8789 11.5825 40.3481 11.3485 40.7 11.3485L45.0399 11.5825C45.2745 11.5825 45.6264 11.6995 45.7437 11.9335L52.0777 21.0591C52.4296 21.6441 53.016 22.1121 53.7198 22.3461L59.8192 24.686C60.7576 25.0369 61.8132 24.686 62.2824 23.75L63.1035 22.1121C63.3381 21.7611 63.69 21.5271 64.1592 21.6441L68.0299 22.4631C68.2645 22.58 68.4991 22.697 68.6164 22.931L75.6542 36.0345C75.8887 36.5025 76.3579 36.8534 76.8271 36.9704L82.2227 38.6084C82.5746 38.7254 82.8092 38.9594 82.8092 39.3103C82.9265 39.6613 82.8092 40.0123 82.5746 40.2463C82.2227 40.5973 82.1054 41.0653 82.1054 41.6502L82.5746 58.0296C82.5746 58.3805 82.6919 58.7315 82.8092 58.9655L89.7297 72.42C89.9643 72.7709 90.1989 73.1219 90.6681 73.2389L101.107 78.2697C101.694 78.5037 102.28 78.5037 102.867 78.2697L116.825 71.133C117.294 70.899 117.646 70.431 117.763 69.9631L120.461 61.7734C120.579 61.5394 120.696 61.3054 120.93 61.1884L126.091 58.7315C126.326 58.6145 126.561 58.6145 126.795 58.6145L130.431 59.5505C130.666 59.6675 130.901 59.7845 131.018 60.0185C131.135 60.2525 131.135 60.6034 131.018 60.8374L124.684 74.1749C124.567 74.5259 124.215 74.7598 123.863 74.7598H116.708C116.356 74.7598 116.004 74.8768 115.769 74.9938C115.066 75.6958 114.714 76.9828 115.183 77.9187Z" fill="black"/>
</svg>
