<svg width="209" height="209" viewBox="0 0 209 209" fill="none" xmlns="http://www.w3.org/2000/svg">
<g clip-path="url(#clip0_1_957)">
<path d="M206.858 119.192H195.024C194.726 119.192 194.429 119.256 194.156 119.375L183.764 123.996C182.99 124.339 182.493 125.107 182.493 125.95V133.128C182.493 133.451 182.42 133.77 182.279 134.061L177.46 144.019H172.175C171.898 144.019 171.623 144.074 171.367 144.179L158.116 149.6C157.419 149.884 156.626 149.783 156.023 149.329L152.154 146.43C151.809 146.171 151.393 146.022 150.963 146.002L145.01 145.746C144.319 145.714 143.684 145.35 143.309 144.772L128.946 122.605C128.644 122.137 128.537 121.57 128.644 121.023L134.164 93.4304C134.366 92.4156 133.815 91.4032 132.852 91.0224L119.171 85.6043C118.679 85.4124 118.278 85.0434 118.044 84.5723L106.856 62.1967C106.529 61.5423 105.889 61.1003 105.162 61.0276L97.9748 60.283C97.1388 60.1957 96.3289 60.6088 95.9056 61.3329L93.0179 66.2795C92.7269 66.7824 92.2444 67.1433 91.6803 67.2796C91.1173 67.4192 90.5214 67.3233 90.0315 67.0123L83.6248 62.9784C83.1276 62.6673 82.7798 62.1644 82.6647 61.5885L81.3054 54.789C81.2164 54.3441 80.9853 53.9371 80.6482 53.6285L70.3733 44.2586C69.9794 43.9006 69.4646 43.7002 68.9307 43.7002H59.8208C58.6399 43.7002 57.6818 44.657 57.6818 45.8404V47.056H43.4478C43.1004 47.056 42.7571 46.9719 42.4501 46.8087L17.8898 33.8833C17.5812 33.7204 17.2383 33.6359 16.8905 33.6359H2.1405C1.4686 33.6359 0.834659 33.9498 0.432171 34.4879C0.0276415 35.023 -0.102984 35.7182 0.0831571 36.364L5.86617 56.6076C5.9621 56.9447 6.14089 57.2533 6.38541 57.5064L14.0266 65.4223C14.8058 66.2281 14.8291 67.4988 14.0817 68.3332L11.2071 71.5466C10.816 71.983 10.6209 72.5618 10.6691 73.1463C10.7173 73.7333 11.0034 74.2717 11.4614 74.6412L22.9242 83.8662C23.2715 84.1482 23.5242 84.5319 23.6438 84.9593L26.696 95.9498C26.7747 96.2318 26.9099 96.4935 27.0927 96.7205L39.367 111.919C39.7548 112.402 40.3324 112.689 40.9504 112.713C41.5668 112.736 42.1644 112.491 42.5893 112.044L45.4247 109.039C46.117 108.307 46.204 107.19 45.6354 106.361L37.9256 95.0917C37.8995 95.0542 37.8746 95.0162 37.8513 94.9754L30.6453 82.8571C30.5523 82.7003 30.4796 82.5313 30.4286 82.3566L26.9201 70.2297C26.8499 69.9942 26.7396 69.7701 26.5943 69.5668L16.3272 55.4532C16.1643 55.2266 16.0447 54.9703 15.9782 54.7L13.0595 42.6952L23.9275 47.6622C24.4831 47.9186 24.9048 48.3982 25.0836 48.9827L29.6958 64.0503C29.7877 64.35 29.9432 64.6231 30.1522 64.8561L47.1363 83.7274C47.6425 84.2915 47.8139 85.0769 47.5882 85.7978L46.6404 88.834C46.4134 89.5581 46.5881 90.3464 47.0967 90.9105L75.2436 121.935C75.6015 122.331 75.7991 122.843 75.7991 123.375V131.27L73.7952 131.887C73.2017 132.07 72.7176 132.501 72.4678 133.068C72.2176 133.635 72.2249 134.283 72.4882 134.845L76.4784 143.322C76.6894 143.773 77.0531 144.136 77.5062 144.349L139.865 173.579C140.681 173.963 141.649 173.794 142.288 173.155L149.323 166.123C149.723 165.722 150.268 165.495 150.835 165.495H155.971C156.418 165.495 156.855 165.634 157.219 165.896L169.861 174.964C170.397 175.351 171.082 175.465 171.713 175.278C172.347 175.095 172.858 174.624 173.1 174.01L175.94 166.798C176.253 166.007 177.003 165.475 177.854 165.443L183.452 165.237C184.602 165.193 185.514 164.248 185.514 163.099V161.247C185.514 160.545 185.169 159.888 184.59 159.487L182.073 157.745C181.496 157.347 181.151 156.69 181.151 155.986V151.068H192.714C193.453 151.068 194.138 150.687 194.529 150.062L208.674 127.43C208.886 127.092 209 126.697 209 126.296V121.334C209 120.149 208.04 119.192 206.858 119.192Z" fill="white"/>
</g>
<defs>
<clipPath id="clip0_1_957">
<rect width="209" height="209" fill="white"/>
</clipPath>
</defs>
</svg>
