<svg width="137" height="96" viewBox="0 0 137 96" fill="none" xmlns="http://www.w3.org/2000/svg">
<path id="Vector" d="M135.006 57.136L126.913 55.0301C126.443 54.9131 125.974 54.9131 125.505 55.1471L118.35 58.6569C117.881 58.8909 117.529 59.3589 117.294 59.8269L114.596 68.0165C114.479 68.2505 114.362 68.4845 114.127 68.6015L102.632 74.5682C102.398 74.6852 102.046 74.6852 101.811 74.5682L93.6005 70.5904C93.3659 70.4734 93.2486 70.3564 93.1313 70.1224L86.9146 58.1889C86.7973 58.0719 86.7973 57.9549 86.7973 57.8379L86.4454 43.0966C86.4454 42.8626 86.5627 42.6286 86.68 42.3946L88.9086 39.8207C89.0259 39.5867 89.2605 39.3527 89.2605 39.1187C89.3778 38.6508 89.3778 38.0658 89.1432 37.5978C88.9086 37.1298 88.4394 36.7788 87.9702 36.6618L79.4076 33.9709C79.173 33.854 78.9385 33.737 78.8212 33.503L71.6661 20.1655C71.3142 19.6975 70.845 19.3466 70.2585 19.2296L62.8689 17.5916C62.0478 17.4746 61.1095 17.8256 60.7576 18.6446L60.0538 19.9315C59.8192 20.3995 59.35 20.6335 58.8808 20.3995L55.7138 19.1126C55.4792 18.9956 55.3619 18.8786 55.2447 18.7616L48.3242 8.81701C47.9723 8.34903 47.3858 7.99804 46.7993 7.99804L38.9405 7.53006C38.1194 7.53006 37.2984 7.99804 36.9465 8.70001L36.7119 9.40198C36.5946 9.75297 36.1254 9.98696 35.6562 9.98696L26.1552 8.70001C26.0379 8.70001 25.9206 8.70001 25.8033 8.58302L11.2586 0.510357C10.9068 0.276367 10.4376 0.276367 9.96839 0.276367L1.64038 1.68031C1.52308 1.68031 1.40578 1.68031 1.28849 1.7973C0.232824 2.14829 -0.23636 3.31824 0.115528 4.37119L5.39385 18.4106L5.98033 19.3466L10.203 24.2604C10.4376 24.6113 10.5549 25.0793 10.203 25.4303L8.56084 27.7702C8.09165 28.5892 8.09165 29.5251 8.79543 30.2271L14.6602 36.3108L17.5926 38.5338C17.8272 38.6508 17.9445 38.8847 17.9445 39.2357L18.2964 43.0966C18.2964 43.5645 18.531 43.9155 18.8829 44.2665L24.865 50.4673L28.2666 54.9131C28.6185 55.381 29.2049 55.732 29.9087 55.732C30.4952 55.732 31.0817 55.381 31.4336 54.9131L36.1254 48.4783L36.2427 48.3613C36.4773 47.8934 36.5946 47.4254 36.4773 46.8404C36.36 46.3724 36.0081 45.9044 35.5389 45.6705L30.9644 43.0966C30.8471 42.9796 30.7298 42.8626 30.6125 42.7456L24.1612 30.3441V30.2271L23.9266 25.3133V25.1963C23.692 24.6113 23.4574 24.0264 22.9883 23.6754L17.2408 18.1766V17.8256C17.1235 17.4746 17.2407 17.1237 17.5926 16.8897C17.9445 16.6557 18.2964 16.6557 18.6483 16.7727L19.5867 17.3576C19.704 17.4746 19.8213 17.5916 19.9385 17.7086L26.859 29.6421L31.5509 40.9907C31.7855 41.4586 32.02 41.9266 32.3719 42.2776L46.0956 55.1471C46.2129 55.2641 46.3302 55.498 46.4475 55.732L47.2685 67.7825C47.2685 68.2505 47.5031 68.7185 47.855 69.0695L57.356 79.0141C57.5906 79.248 57.9425 79.482 58.4116 79.599L65.3321 81.12C65.4103 81.12 65.4885 81.159 65.5667 81.237L76.3579 86.1507C76.7098 86.2677 77.0617 86.3847 77.4136 86.2677L80.1114 85.9168C80.346 85.9168 80.5806 85.9168 80.6979 86.0338L87.6184 90.4796C88.0875 90.8306 88.674 90.8306 89.2605 90.7136L99.8171 87.9057C100.052 87.7887 100.404 87.9057 100.521 88.0227L111.547 94.9254C111.899 95.1594 112.251 95.2764 112.602 95.2764C113.423 95.2764 114.245 94.6914 114.479 93.8724L116.239 87.9057C116.356 87.5547 116.708 87.2037 117.177 87.2037H120.813C121.048 87.2037 121.4 87.2037 121.634 87.0867C122.103 86.8527 122.455 86.5017 122.69 86.0338C122.924 85.5658 122.924 84.9808 122.69 84.5128L121.048 80.769C120.93 80.418 120.93 80.184 121.165 79.833C121.4 79.482 121.634 79.365 121.986 79.365H125.505C126.913 79.365 128.085 78.5461 128.672 77.3761L136.883 60.0608C136.883 59.9439 137 59.8269 137 59.7099C136.765 58.5399 136.179 57.37 135.006 57.136ZM115.183 78.1951L116.825 81.9389C116.942 82.2899 116.942 82.5239 116.708 82.8749C116.473 83.2259 116.239 83.3429 115.887 83.3429H114.596C113.775 83.3429 112.954 83.9278 112.72 84.7468L111.429 89.0756C111.312 89.3096 111.078 89.5436 110.843 89.6606C110.608 89.7776 110.257 89.7776 110.022 89.5436L101.225 84.0448C100.873 83.8108 100.521 83.6939 100.169 83.6939H99.5825L89.0259 86.5017C88.7913 86.6187 88.4394 86.5017 88.2048 86.3847L81.8709 82.2899C81.1671 81.8219 80.346 81.7049 79.5249 81.7049L77.179 81.9389C77.0617 81.9389 76.8271 81.9389 76.7098 81.8219L66.2705 77.1421L59.5846 75.6212C59.35 75.6212 59.2327 75.5042 59.1154 75.3872L50.9047 66.7296C50.7874 66.6126 50.6701 66.3786 50.6701 66.1446L49.849 53.9771C49.849 53.5091 49.6144 53.0411 49.2626 52.6902L34.8352 39.2357C34.7179 39.1187 34.6006 39.0017 34.6006 38.8847L30.026 27.7702C30.026 27.6532 30.026 27.5362 29.9087 27.4192L22.7537 15.1347C22.4018 14.5498 21.9326 14.0818 21.3461 13.7308L14.3084 9.98696C13.9565 9.75297 13.4873 9.75297 13.0181 9.75297C11.9624 9.98696 11.2586 11.0399 11.4932 12.0929L13.4873 19.5806C13.6046 20.2825 13.9565 20.8675 14.5429 21.3355L19.5867 26.0153C19.704 26.1323 19.8213 26.2493 19.8213 26.3663L19.9385 31.1631V31.3971L20.1732 31.982L26.9763 45.2025C27.0936 45.5535 27.4455 45.7874 27.7974 46.0214L30.2606 47.4254C30.4952 47.5424 30.6125 47.7764 30.7298 48.0104C30.8471 48.2443 30.7298 48.5953 30.6125 48.7123L30.1433 49.2973C29.9087 49.5313 29.6741 49.6483 29.3222 49.6483C28.9703 49.6483 28.7358 49.5313 28.6185 49.2973L27.5628 47.8934L21.9326 42.0436C21.8153 41.9266 21.698 41.6926 21.698 41.4586L21.3461 37.4808C21.3461 37.0128 20.9942 36.4278 20.6423 36.0769L17.0061 33.152L13.0181 29.0572C12.6662 28.7062 12.6662 28.2382 12.9008 27.8872L14.4256 25.7813C15.0121 25.0793 15.0121 24.0264 14.4256 23.3244L8.91273 16.7727C8.83453 16.6947 8.79543 16.6167 8.79543 16.5387L4.92467 6.24312C4.80738 6.00913 4.80736 5.65814 5.04196 5.42415C5.15925 5.19016 5.39385 4.95617 5.74574 4.95617L9.61651 4.37119C9.8511 4.37119 10.0857 4.37119 10.203 4.48819L24.2785 12.3269C24.5131 12.4439 24.7477 12.5609 24.9823 12.5609L37.2984 14.1988C38.2367 14.3158 39.0578 13.8478 39.4097 13.0288L39.7616 12.2099C39.8789 11.8589 40.3481 11.6249 40.7 11.6249L45.0399 11.8589C45.2745 11.8589 45.6264 11.9759 45.7437 12.2099L52.0777 21.3355C52.4296 21.9205 53.016 22.3884 53.7198 22.6224L59.8192 24.9623C60.7576 25.3133 61.8132 24.9623 62.2824 24.0264L63.1035 22.3884C63.3381 22.0375 63.69 21.8035 64.1592 21.9205L68.0299 22.7394C68.2645 22.8564 68.4991 22.9734 68.6164 23.2074L75.6542 36.3108C75.8887 36.7788 76.3579 37.1298 76.8271 37.2468L82.2227 38.8847C82.5746 39.0017 82.8092 39.2357 82.8092 39.5867C82.9265 39.9377 82.8092 40.2887 82.5746 40.5227C82.2227 40.8737 82.1054 41.3416 82.1054 41.9266L82.5746 58.3059C82.5746 58.6569 82.6919 59.0079 82.8092 59.2419L89.7297 72.6963C89.9643 73.0473 90.1989 73.3983 90.6681 73.5153L101.107 78.5461C101.694 78.7801 102.28 78.7801 102.867 78.5461L116.825 71.4094C117.294 71.1754 117.646 70.7074 117.763 70.2394L120.461 62.0498C120.579 61.8158 120.696 61.5818 120.93 61.4648L126.091 59.0079C126.326 58.8909 126.561 58.8909 126.795 58.8909L130.431 59.8269C130.666 59.9439 130.901 60.0608 131.018 60.2948C131.135 60.5288 131.135 60.8798 131.018 61.1138L124.684 74.4512C124.567 74.8022 124.215 75.0362 123.863 75.0362H116.708C116.356 75.0362 116.004 75.1532 115.769 75.2702C115.066 75.9722 114.714 77.2591 115.183 78.1951Z" fill="white"/>
</svg>
