<svg width="43" height="27" viewBox="0 0 43 27" fill="none" xmlns="http://www.w3.org/2000/svg">
<path d="M34.3141 1.54158L34.2362 1.46804C34.1843 1.419 34.1324 1.36997 34.0804 1.32094L33.7818 1.05126L26.8745 7.73193C18.1496 -0.137776 7.77573 -2.31972 2.62125 2.66933C-0.0793262 5.29257 -0.715521 9.28871 0.816539 13.9468C2.1149 17.8694 4.88039 21.9391 8.63264 25.4571L9.17795 25.9597L16.0852 19.2668C19.9024 22.7113 24.2908 25.212 28.4715 26.3397C30.5099 26.8913 32.4185 27.0875 34.1583 26.9649C36.6512 26.781 38.7805 25.8984 40.3645 24.3539C45.5189 19.3404 42.9092 9.5829 34.3141 1.54158ZM35.7683 20.1249C34.8075 21.0442 32.7431 21.1913 30.2113 20.5171C26.9784 19.6468 23.356 17.5262 20.2659 14.6823L19.3571 13.8732L12.4628 20.5539C9.51552 17.7713 7.91855 15.0745 6.9318 12.1326C6.15278 9.76677 6.25665 7.80548 7.20445 6.88612C8.16523 5.96676 10.2426 5.81966 12.7614 6.49386C15.9294 7.35193 19.4869 9.41129 22.538 12.1816L23.5767 13.1132L30.471 6.43257C36.8719 12.439 37.6509 18.2984 35.7683 20.1249Z" fill="#F79F1A"/>
</svg>
