<svg width="28" height="28" viewBox="0 0 28 28" fill="none" xmlns="http://www.w3.org/2000/svg">
<g id="Group 16990">
<path id="Vector" d="M28 20.165C27.9916 19.8972 27.8817 19.5869 27.6959 19.3914L21.7364 13.0155C21.3309 12.6499 20.558 12.5012 20.106 12.922C19.6626 13.3385 19.6752 14.1461 20.1187 14.5627L24.3085 19.0386H1.11926C0.502612 19.0386 0 19.5402 0 20.165C0 20.7898 0.498388 21.2914 1.11926 21.2914H24.3085L20.1187 25.7673C19.7386 26.1498 19.6668 26.9872 20.106 27.408C20.5453 27.8288 21.3478 27.6928 21.7364 27.3145L27.6959 20.9428C27.8986 20.7261 28 20.4668 28 20.1692V20.165Z" fill="black"/>
<path id="Vector_2" d="M6.55496e-07 7.502C0.00844637 7.76979 0.118262 8.08008 0.304103 8.27561L6.26364 14.6515C6.66911 15.0171 7.44204 15.1658 7.89396 14.745C8.33744 14.3285 8.32478 13.5209 7.88129 13.1043L3.69145 8.62841L26.8807 8.62841C27.4974 8.62841 28 8.12684 28 7.502C28 6.87716 27.5016 6.37559 26.8807 6.37559L3.69145 6.37559L7.8813 1.89971C8.26142 1.51716 8.33322 0.679787 7.89396 0.258978C7.45471 -0.161832 6.65222 -0.0258121 6.26364 0.352491L0.304103 6.72414C0.101369 6.94092 6.81879e-07 7.20021 6.55867e-07 7.49775L6.55496e-07 7.502Z" fill="black"/>
</g>
</svg>
