<svg width="40" height="28" viewBox="0 0 40 28" fill="none" xmlns="http://www.w3.org/2000/svg">
<g id="Group 16989">
<path id="Vector" d="M34.8954 0H4.77129C2.14148 0 0 2.14148 0 4.77129V22.8798C0 25.5096 2.14148 27.6511 4.77129 27.6511H34.8954C37.5252 27.6511 39.6667 25.5096 39.6667 22.8798V4.77129C39.6667 2.14148 37.5252 0 34.8954 0ZM37.3325 22.8798C37.3325 24.2238 36.2394 25.317 34.8954 25.317H4.77129C3.42726 25.317 2.33412 24.2238 2.33412 22.8798V7.53998V4.77129C2.33412 3.42726 3.42726 2.33412 4.77129 2.33412H34.8954C36.2394 2.33412 37.3325 3.42726 37.3325 4.77129V9.87411V22.8798Z" fill="black"/>
<path id="Vector_2" d="M19.8327 5.8916C15.4556 5.8916 11.8984 9.45327 11.8984 13.8258C11.8984 18.1984 15.4601 21.7601 19.8327 21.7601C24.2052 21.7601 27.7669 18.1984 27.7669 13.8258C27.7669 9.45327 24.2052 5.8916 19.8327 5.8916ZM19.8327 19.2199C16.8579 19.2199 14.4387 16.8006 14.4387 13.8258C14.4387 10.8511 16.8579 8.43181 19.8327 8.43181C22.8074 8.43181 25.2267 10.8511 25.2267 13.8258C25.2267 16.8006 22.8074 19.2199 19.8327 19.2199Z" fill="black"/>
</g>
</svg>
