<svg width="40" height="28" viewBox="0 0 40 28" fill="none" xmlns="http://www.w3.org/2000/svg">
<g id="Group 16988">
<path id="Vector" d="M39.3333 22.6875V4.73119C39.3333 2.12348 37.2098 0 34.6021 0H4.73119C2.12348 0 0 2.12348 0 4.73119V22.6875C0 25.2952 2.12348 27.4187 4.73119 27.4187H34.6021C37.2098 27.4187 39.3333 25.2952 39.3333 22.6875ZM4.73119 2.31451H34.6021C35.9349 2.31451 37.0188 3.39846 37.0188 4.73119V7.47662H2.31451V4.73119C2.31451 3.39846 3.39846 2.31451 4.73119 2.31451ZM2.31451 22.6875V9.79113H37.0233V22.6875C37.0233 24.0203 35.9393 25.1042 34.6066 25.1042H4.73119C3.39846 25.1042 2.31451 24.0203 2.31451 22.6875Z" fill="black"/>
<path id="Vector_2" d="M33.3129 19.0488H28.9993C28.3596 19.0488 27.8398 19.5642 27.8398 20.2083C27.8398 20.8525 28.3552 21.3678 28.9993 21.3678H33.3129C33.9526 21.3678 34.4724 20.8525 34.4724 20.2083C34.4724 19.5686 33.9526 19.0488 33.3129 19.0488Z" fill="black"/>
</g>
</svg>
