<svg width="45" height="45" viewBox="0 0 45 45" fill="none" xmlns="http://www.w3.org/2000/svg">
<circle cx="22.5" cy="22.5" r="21" fill="#F4F0EC" stroke="#00BF63" stroke-width="3"/>
<path d="M22.5001 25.6371V28.0891M16.3703 20.1556C16.9482 20.1203 17.6607 20.1203 18.577 20.1203H26.4232C27.3394 20.1203 28.052 20.1203 28.6299 20.1556M16.3703 20.1556C15.649 20.1996 15.1373 20.2987 14.7005 20.5212C14.0085 20.8738 13.4459 21.4364 13.0932 22.1284C12.6924 22.9153 12.6924 23.9451 12.6924 26.0049V27.7213C12.6924 29.7811 12.6924 30.8109 13.0932 31.5978C13.4459 32.2898 14.0085 32.8524 14.7005 33.205C15.4873 33.6059 16.5172 33.6059 18.577 33.6059H26.4232C28.483 33.6059 29.5128 33.6059 30.2996 33.205C30.9917 32.8524 31.5543 32.2898 31.9069 31.5978C32.3078 30.8109 32.3078 29.7811 32.3078 27.7213V26.0049C32.3078 23.9451 32.3078 22.9153 31.9069 22.1284C31.5543 21.4364 30.9917 20.8738 30.2996 20.5212C29.8628 20.2987 29.3511 20.1996 28.6299 20.1556M16.3703 20.1556V17.6684C16.3703 14.283 19.1147 11.5386 22.5001 11.5386C25.8854 11.5386 28.6299 14.283 28.6299 17.6684V20.1556" stroke="#00BF63" stroke-width="2.45192" stroke-linecap="round" stroke-linejoin="round"/>
</svg>
