<svg width="90" height="90" viewBox="0 0 90 90" fill="none" xmlns="http://www.w3.org/2000/svg">
<path fill-rule="evenodd" clip-rule="evenodd" d="M9.89823 44.5614C9.89658 39.0289 11.2197 33.5764 13.7571 28.66C16.2944 23.7436 19.972 19.5063 24.4825 16.3024C28.9929 13.0985 34.2049 11.0213 39.6827 10.2444C45.1604 9.4675 50.7445 10.0136 55.9679 11.8369C57.2078 12.2689 58.5686 12.1905 59.7508 11.6191C60.933 11.0478 61.8398 10.0302 62.2717 8.79021C62.7036 7.55025 62.6253 6.1895 62.0539 5.0073C61.4825 3.8251 60.4649 2.9183 59.225 2.48638C50.1038 -0.695761 40.1955 -0.826887 30.9933 2.11277C21.7912 5.05242 13.7939 10.9036 8.20678 18.7843C2.61969 26.665 -0.254399 36.1483 0.0176823 45.8047C0.289763 55.4612 3.69327 64.7676 9.71523 72.3212C15.7372 79.8749 24.0513 85.2664 33.4044 87.6832C42.7574 90.1001 52.6427 89.4113 61.5702 85.7206C70.4977 82.0299 77.9836 75.5374 82.8998 67.2215C87.8159 58.9057 89.8958 49.2172 88.826 39.6163C88.7545 38.9702 88.5564 38.3445 88.2431 37.7749C87.9297 37.2053 87.5073 36.703 86.9998 36.2966C86.4924 35.8903 85.9099 35.5879 85.2855 35.4067C84.6612 35.2255 84.0073 35.169 83.3612 35.2405C82.715 35.312 82.0893 35.5101 81.5197 35.8234C80.9501 36.1368 80.4478 36.5592 80.0415 37.0667C79.6352 37.5741 79.3328 38.1566 79.1516 38.781C78.9703 39.4053 78.9139 40.0592 78.9854 40.7053C79.5068 45.3875 79.0679 50.1268 77.6955 54.6336C76.3231 59.1404 74.0461 63.32 71.0037 66.917C67.9613 70.514 64.2173 73.4527 60.0005 75.5537C55.7838 77.6546 51.183 78.8736 46.4792 79.1362C41.7754 79.3987 37.0675 78.6993 32.6431 77.0806C28.2188 75.462 24.171 72.9581 20.7472 69.722C17.3234 66.486 14.5954 62.5857 12.7301 58.2596C10.8647 53.9335 9.90113 49.2725 9.89823 44.5614ZM82.9107 18.1383C83.7798 17.1537 84.2222 15.8641 84.1405 14.5534C84.0588 13.2426 83.4597 12.018 82.4751 11.1489C81.4905 10.2798 80.201 9.83744 78.8902 9.91913C77.5795 10.0008 76.3548 10.5999 75.4857 11.5845L43.6325 47.6205L27.8766 34.7851C27.3728 34.3743 26.7931 34.0667 26.1704 33.88C25.5478 33.6932 24.8944 33.6309 24.2477 33.6966C22.9416 33.8294 21.7417 34.4755 20.912 35.493C20.5012 35.9968 20.1936 36.5765 20.0068 37.1992C19.82 37.8218 19.7577 38.4752 19.8235 39.1219C19.9562 40.428 20.6024 41.6279 21.6198 42.4576L41.0684 58.2976C42.0592 59.1038 43.3233 59.4957 44.5964 59.3914C45.8694 59.2872 47.0529 58.6949 47.8994 57.7383L82.9107 18.1383Z" fill="white"/>
</svg>
