<svg width="25" height="25" viewBox="0 0 25 25" fill="none" xmlns="http://www.w3.org/2000/svg">
<path fill-rule="evenodd" clip-rule="evenodd" d="M23.78 10.2609C22.6706 4.67068 17.6337 0.736552 11.9408 1.01378C6.24818 1.29099 1.6174 5.69592 1.0564 11.3674C0.49539 17.039 4.17343 22.2656 9.70152 23.6526C15.2296 25.0397 20.9397 22.1685 23.1229 16.9041C23.9941 14.8034 24.2227 12.4916 23.78 10.2609Z" stroke="#F4F0EC" stroke-width="1.5" stroke-linecap="round" stroke-linejoin="round"/>
<path fill-rule="evenodd" clip-rule="evenodd" d="M19.2011 12.2861C19.2862 12.814 19.2358 13.3539 19.0541 13.8591C18.9449 14.0381 18.7919 14.1891 18.6082 14.2988C18.3546 14.432 18.2593 14.4397 16.9734 14.4428C16.5 14.489 16.0218 14.4707 15.5535 14.3886C15.2558 14.3026 15.0107 14.0985 14.8799 13.8282C14.7547 13.4947 14.7122 13.1379 14.7555 12.7862V12.3573C14.755 12.2433 14.6781 12.1429 14.5649 12.108C13.2185 11.7731 11.8051 11.7731 10.4586 12.108C10.3088 12.1517 10.2057 12.2831 10.2033 12.4332V12.8435C10.2067 13.1019 10.1943 13.3604 10.1662 13.6176C10.0793 13.9794 9.80302 14.2724 9.43601 14.3917C8.9698 14.4846 8.49116 14.5066 8.01775 14.4568C6.8159 14.4568 6.77875 14.4568 6.57521 14.3886C6.22294 14.2896 5.94842 14.0242 5.84828 13.6857C5.76669 13.3826 5.74045 13.0683 5.77074 12.7568C5.77074 12.3604 5.77074 11.9919 5.77074 11.9362C5.8187 11.4463 6.06379 10.9937 6.45405 10.6743C7.17594 10.0963 8.02126 9.67722 8.93039 9.44648C10.876 8.87324 12.9403 8.77637 14.9348 9.16469C15.3592 9.23762 15.7771 9.34114 16.1851 9.4744C17.156 9.71949 18.0391 10.2123 18.7407 10.9004C19.0854 11.2825 19.2518 11.7832 19.2011 12.2861Z" stroke="#F4F0EC" stroke-width="1.5" stroke-linecap="round" stroke-linejoin="round"/>
</svg>
