<svg width="15" height="21" viewBox="0 0 15 21" fill="none" xmlns="http://www.w3.org/2000/svg">
<path id="Vector" d="M9.89221 20.7236C9.30957 20.7236 8.73294 20.5328 8.27584 20.1657C5.77948 18.161 3.7131 15.6546 2.30252 12.9195C0.872001 10.1479 0.0974776 7.18714 0.00103824 4.12215C-0.0270912 3.24523 0.51839 2.44099 1.39136 2.07205L4.0986 0.928851C4.68326 0.683489 5.33825 0.657132 5.94201 0.855242C6.54677 1.05426 7.02997 1.455 7.30222 1.98299L8.66142 4.6183C8.93366 5.14626 8.9628 5.73876 8.74279 6.28583C8.52279 6.8329 8.07978 7.27 7.4961 7.51627L5.81142 8.2269C5.91389 9.20288 6.2032 10.167 6.67032 11.0739C7.13544 11.9754 7.7633 12.7932 8.53682 13.5038L10.2145 12.7859C11.4179 12.2779 12.8564 12.7495 13.4191 13.84L14.7783 16.4753C15.0646 17.0296 15.0736 17.643 14.8054 18.2001C14.5392 18.7508 14.0299 19.1979 13.3307 19.4932L10.9026 20.5183C10.5791 20.6546 10.2336 20.7209 9.89 20.7209L9.89221 20.7236ZM5.11757 2.1809C5.00305 2.1809 4.88853 2.20271 4.77903 2.24905L2.07178 3.39225C1.78046 3.51493 1.59864 3.78664 1.60767 4.08197C1.69808 6.94805 2.42239 9.71433 3.75947 12.3061C5.07848 14.8633 7.00935 17.2052 9.34292 19.0798C9.58904 19.277 9.93462 19.3261 10.2249 19.2043L12.653 18.1793C12.9875 18.0384 13.2296 17.8403 13.3341 17.6222C13.4165 17.4505 13.4135 17.2678 13.3241 17.0933L11.9648 14.458C11.8744 14.2817 11.7137 14.1491 11.5118 14.0818C11.3099 14.0146 11.0919 14.0236 10.897 14.1063L9.21332 14.817C8.59652 15.0769 7.86618 14.9606 7.39404 14.5262C6.49193 13.6965 5.75958 12.7432 5.21713 11.6908C4.67265 10.633 4.33411 9.50894 4.21257 8.34946C4.15028 7.74879 4.51996 7.17174 5.13476 6.91183L6.81944 6.20029C7.22127 6.03127 7.39607 5.59688 7.2072 5.23432L5.848 2.59902C5.71238 2.33549 5.42104 2.17918 5.11868 2.17918L5.11757 2.1809Z" fill="white"/>
</svg>
