<svg width="7" height="23" viewBox="0 0 7 23" fill="none" xmlns="http://www.w3.org/2000/svg">
<path d="M0 3.13427C0 2.21243 0.318945 1.45959 0.956834 0.875751C1.6283 0.291917 2.46763 0 3.47482 0C4.48201 0 5.32134 0.291917 5.99281 0.875751C6.66427 1.45959 7 2.21243 7 3.13427C7 4.05611 6.66427 4.80895 5.99281 5.39279C5.32134 5.97662 4.48201 6.26854 3.47482 6.26854C2.46763 6.26854 1.6283 5.97662 0.956834 5.39279C0.318945 4.80895 0 4.05611 0 3.13427ZM0 19.8657C0 18.9439 0.318945 18.191 0.956834 17.6072C1.6283 17.0234 2.46763 16.7315 3.47482 16.7315C4.48201 16.7315 5.32134 17.0234 5.99281 17.6072C6.66427 18.191 7 18.9439 7 19.8657C7 20.7876 6.66427 21.5404 5.99281 22.1242C5.32134 22.7081 4.48201 23 3.47482 23C2.46763 23 1.6283 22.7081 0.956834 22.1242C0.318945 21.5404 0 20.7876 0 19.8657Z" fill="#27E1C1"/>
</svg>
