<svg width="86" height="85" viewBox="0 0 86 85" fill="none" xmlns="http://www.w3.org/2000/svg">
<path d="M60.9115 16.9824C60.5207 16.9824 60.2039 17.2992 60.2039 17.69V24.766C60.2039 25.1567 60.5207 25.4735 60.9115 25.4735H67.9875C68.3783 25.4735 68.6951 25.1567 68.6951 24.766V17.69C68.6951 17.2992 68.3783 16.9824 67.9875 16.9824H60.9115ZM60.2039 67.9295V65.8067C60.2039 64.6343 61.1543 63.6839 62.3267 63.6839C63.4991 63.6839 64.4495 64.6343 64.4495 65.8067V67.9295H68.6951V65.8067C68.6951 64.6343 69.6455 63.6839 70.8179 63.6839C71.9903 63.6839 72.9407 64.6343 72.9407 65.8067V70.0523C72.9407 71.2246 71.9903 72.1751 70.8179 72.1751H53.8355C52.6631 72.1751 51.7127 71.2246 51.7127 70.0523V65.8067C51.7127 64.6343 52.6631 63.6839 53.8355 63.6839C55.0079 63.6839 55.9583 64.6343 55.9583 65.8067V67.9295H60.2039ZM47.4671 38.2103H49.5899C50.7623 38.2103 51.7127 39.1607 51.7127 40.3331C51.7127 41.5055 50.7623 42.4559 49.5899 42.4559H41.0987C39.9264 42.4559 38.9759 41.5055 38.9759 40.3331C38.9759 39.1607 39.9264 38.2103 41.0987 38.2103H43.2215V33.9647H36.8532C35.6808 33.9647 34.7304 33.0143 34.7304 31.8419C34.7304 30.6695 35.6808 29.7191 36.8532 29.7191H49.5899C50.7623 29.7191 51.7127 30.6695 51.7127 31.8419C51.7127 33.0143 50.7623 33.9647 49.5899 33.9647H47.4671V38.2103ZM68.6951 42.4559H66.5723C65.3999 42.4559 64.4495 41.5055 64.4495 40.3331C64.4495 39.1607 65.3999 38.2103 66.5723 38.2103H68.6951V36.0875C68.6951 34.9151 69.6455 33.9647 70.8179 33.9647C71.9903 33.9647 72.9407 34.9151 72.9407 36.0875V44.5787C72.9407 45.7511 71.9903 46.7015 70.8179 46.7015C69.6455 46.7015 68.6951 45.7511 68.6951 44.5787V42.4559ZM47.4671 50.9471H45.3443C44.172 50.9471 43.2215 49.9967 43.2215 48.8243C43.2215 47.6519 44.172 46.7015 45.3443 46.7015H49.5899C50.7623 46.7015 51.7127 47.6519 51.7127 48.8243V57.3155C51.7127 58.4879 50.7623 59.4383 49.5899 59.4383H36.8532C35.6808 59.4383 34.7304 58.4879 34.7304 57.3155C34.7304 56.1431 35.6808 55.1927 36.8532 55.1927H47.4671V50.9471ZM60.9115 12.7368H67.9875C70.7231 12.7368 72.9407 14.9544 72.9407 17.69V24.766C72.9407 27.5015 70.7231 29.7191 67.9875 29.7191H60.9115C58.1759 29.7191 55.9583 27.5015 55.9583 24.766V17.69C55.9583 14.9544 58.1759 12.7368 60.9115 12.7368ZM18.4556 12.7368H25.5316C28.2671 12.7368 30.4848 14.9544 30.4848 17.69V24.766C30.4848 27.5015 28.2671 29.7191 25.5316 29.7191H18.4556C15.72 29.7191 13.5024 27.5015 13.5024 24.766V17.69C13.5024 14.9544 15.72 12.7368 18.4556 12.7368ZM18.4556 16.9824C18.0648 16.9824 17.748 17.2992 17.748 17.69V24.766C17.748 25.1567 18.0648 25.4735 18.4556 25.4735H25.5316C25.9224 25.4735 26.2392 25.1567 26.2392 24.766V17.69C26.2392 17.2992 25.9224 16.9824 25.5316 16.9824H18.4556ZM18.4556 55.1927H25.5316C28.2671 55.1927 30.4848 57.4103 30.4848 60.1459V67.2219C30.4848 69.9574 28.2671 72.1751 25.5316 72.1751H18.4556C15.72 72.1751 13.5024 69.9574 13.5024 67.2219V60.1459C13.5024 57.4103 15.72 55.1927 18.4556 55.1927ZM18.4556 59.4383C18.0648 59.4383 17.748 59.7551 17.748 60.1459V67.2219C17.748 67.6127 18.0648 67.9295 18.4556 67.9295H25.5316C25.9224 67.9295 26.2392 67.6127 26.2392 67.2219V60.1459C26.2392 59.7551 25.9224 59.4383 25.5316 59.4383H18.4556ZM47.4671 16.9824H36.8532C35.6808 16.9824 34.7304 16.032 34.7304 14.8596C34.7304 13.6872 35.6808 12.7368 36.8532 12.7368H49.5899C50.7623 12.7368 51.7127 13.6872 51.7127 14.8596V23.3508C51.7127 24.5231 50.7623 25.4735 49.5899 25.4735C48.4175 25.4735 47.4671 24.5231 47.4671 23.3508V16.9824ZM36.8532 25.4735C35.6808 25.4735 34.7304 24.5231 34.7304 23.3508C34.7304 22.1784 35.6808 21.228 36.8532 21.228H41.0987C42.2711 21.228 43.2215 22.1784 43.2215 23.3508C43.2215 24.5231 42.2711 25.4735 41.0987 25.4735H36.8532ZM15.6252 50.9471C14.4528 50.9471 13.5024 49.9967 13.5024 48.8243C13.5024 47.6519 14.4528 46.7015 15.6252 46.7015H24.1164C25.2888 46.7015 26.2392 47.6519 26.2392 48.8243C26.2392 49.9967 25.2888 50.9471 24.1164 50.9471H15.6252ZM32.6076 50.9471C31.4352 50.9471 30.4848 49.9967 30.4848 48.8243C30.4848 47.6519 31.4352 46.7015 32.6076 46.7015H36.8532C38.0255 46.7015 38.9759 47.6519 38.9759 48.8243C38.9759 49.9967 38.0255 50.9471 36.8532 50.9471H32.6076ZM38.9759 67.9295V70.0523C38.9759 71.2246 38.0255 72.1751 36.8532 72.1751C35.6808 72.1751 34.7304 71.2246 34.7304 70.0523V65.8067C34.7304 64.6343 35.6808 63.6839 36.8532 63.6839H45.3443C46.5167 63.6839 47.4671 64.6343 47.4671 65.8067C47.4671 66.9791 46.5167 67.9295 45.3443 67.9295H38.9759ZM30.4848 38.2103H32.6076C33.7799 38.2103 34.7304 39.1607 34.7304 40.3331C34.7304 41.5055 33.7799 42.4559 32.6076 42.4559H28.362C27.1896 42.4559 26.2392 41.5055 26.2392 40.3331V38.2103H24.1164C22.944 38.2103 21.9936 37.2599 21.9936 36.0875C21.9936 34.9151 22.944 33.9647 24.1164 33.9647H28.362C29.5344 33.9647 30.4848 34.9151 30.4848 36.0875V38.2103ZM13.5024 36.0875C13.5024 34.9151 14.4528 33.9647 15.6252 33.9647C16.7976 33.9647 17.748 34.9151 17.748 36.0875V40.3331C17.748 41.5055 16.7976 42.4559 15.6252 42.4559C14.4528 42.4559 13.5024 41.5055 13.5024 40.3331V36.0875ZM55.9583 36.0875C55.9583 34.9151 56.9087 33.9647 58.0811 33.9647C59.2535 33.9647 60.2039 34.9151 60.2039 36.0875V44.5787C60.2039 45.7511 59.2535 46.7015 58.0811 46.7015C56.9087 46.7015 55.9583 45.7511 55.9583 44.5787V36.0875ZM64.4495 55.1927V53.0699C64.4495 51.8975 65.3999 50.9471 66.5723 50.9471H70.8179C71.9903 50.9471 72.9407 51.8975 72.9407 53.0699C72.9407 54.2423 71.9903 55.1927 70.8179 55.1927H68.6951V57.3155C68.6951 58.4879 67.7447 59.4383 66.5723 59.4383H58.0811C56.9087 59.4383 55.9583 58.4879 55.9583 57.3155V53.0699C55.9583 51.8975 56.9087 50.9471 58.0811 50.9471C59.2535 50.9471 60.2039 51.8975 60.2039 53.0699V55.1927H64.4495ZM5.01122 19.1052C5.01122 20.2775 4.06081 21.228 2.88842 21.228C1.71603 21.228 0.765625 20.2775 0.765625 19.1052V10.614C0.765625 4.75204 5.51766 0 11.3796 0H19.8708C21.0432 0 21.9936 0.950408 21.9936 2.1228C21.9936 3.29518 21.0432 4.24559 19.8708 4.24559H11.3796C7.86244 4.24559 5.01122 7.09682 5.01122 10.614V19.1052ZM66.5723 4.24559C65.3999 4.24559 64.4495 3.29518 64.4495 2.1228C64.4495 0.950408 65.3999 0 66.5723 0H75.0635C80.9254 0 85.6775 4.75204 85.6775 10.614V19.1052C85.6775 20.2775 84.7271 21.228 83.5547 21.228C82.3823 21.228 81.4319 20.2775 81.4319 19.1052V10.614C81.4319 7.09682 78.5806 4.24559 75.0635 4.24559H66.5723ZM19.8708 80.6662C21.0432 80.6662 21.9936 81.6166 21.9936 82.789C21.9936 83.9614 21.0432 84.9118 19.8708 84.9118H11.3796C5.51766 84.9118 0.765625 80.1598 0.765625 74.2979V65.8067C0.765625 64.6343 1.71603 63.6839 2.88842 63.6839C4.06081 63.6839 5.01122 64.6343 5.01122 65.8067V74.2979C5.01122 77.815 7.86244 80.6662 11.3796 80.6662H19.8708ZM81.4319 65.8067C81.4319 64.6343 82.3823 63.6839 83.5547 63.6839C84.7271 63.6839 85.6775 64.6343 85.6775 65.8067V74.2979C85.6775 80.1598 80.9254 84.9118 75.0635 84.9118H66.5723C65.3999 84.9118 64.4495 83.9614 64.4495 82.789C64.4495 81.6166 65.3999 80.6662 66.5723 80.6662H75.0635C78.5806 80.6662 81.4319 77.815 81.4319 74.2979V65.8067Z" fill="#298A9A"/>
</svg>
