<svg width="245" height="245" viewBox="0 0 245 245" fill="none" xmlns="http://www.w3.org/2000/svg">
<path d="M164.74 61.152C163.805 61.152 163.047 61.91 163.047 62.8451V79.7765C163.047 80.7116 163.805 81.4697 164.74 81.4697H181.672C182.607 81.4697 183.365 80.7116 183.365 79.7765V62.8451C183.365 61.91 182.607 61.152 181.672 61.152H164.74ZM163.047 183.058V177.979C163.047 175.173 165.321 172.899 168.126 172.899C170.932 172.899 173.206 175.173 173.206 177.979V183.058H183.365V177.979C183.365 175.173 185.639 172.899 188.444 172.899C191.249 172.899 193.524 175.173 193.524 177.979V188.138C193.524 190.943 191.249 193.217 188.444 193.217H147.809C145.004 193.217 142.729 190.943 142.729 188.138V177.979C142.729 175.173 145.004 172.899 147.809 172.899C150.614 172.899 152.888 175.173 152.888 177.979V183.058H163.047ZM132.571 111.946H137.65C140.455 111.946 142.729 114.22 142.729 117.026C142.729 119.831 140.455 122.105 137.65 122.105H117.332C114.527 122.105 112.253 119.831 112.253 117.026C112.253 114.22 114.527 111.946 117.332 111.946H122.412V101.787H107.173C104.368 101.787 102.094 99.5132 102.094 96.7079C102.094 93.9026 104.368 91.6285 107.173 91.6285H137.65C140.455 91.6285 142.729 93.9026 142.729 96.7079C142.729 99.5132 140.455 101.787 137.65 101.787H132.571V111.946ZM183.365 122.105H178.285C175.48 122.105 173.206 119.831 173.206 117.026C173.206 114.22 175.48 111.946 178.285 111.946H183.365V106.867C183.365 104.061 185.639 101.787 188.444 101.787C191.249 101.787 193.524 104.061 193.524 106.867V127.184C193.524 129.99 191.249 132.264 188.444 132.264C185.639 132.264 183.365 129.99 183.365 127.184V122.105ZM132.571 142.423H127.491C124.686 142.423 122.412 140.149 122.412 137.343C122.412 134.538 124.686 132.264 127.491 132.264H137.65C140.455 132.264 142.729 134.538 142.729 137.343V157.661C142.729 160.466 140.455 162.74 137.65 162.74H107.173C104.368 162.74 102.094 160.466 102.094 157.661C102.094 154.856 104.368 152.582 107.173 152.582H132.571V142.423ZM164.74 50.9931H181.672C188.217 50.9931 193.524 56.2994 193.524 62.8451V79.7765C193.524 86.3222 188.217 91.6285 181.672 91.6285H164.74C158.195 91.6285 152.888 86.3222 152.888 79.7765V62.8451C152.888 56.2994 158.195 50.9931 164.74 50.9931ZM63.1518 50.9931H80.0832C86.6288 50.9931 91.9352 56.2994 91.9352 62.8451V79.7765C91.9352 86.3222 86.6288 91.6285 80.0832 91.6285H63.1518C56.6061 91.6285 51.2998 86.3222 51.2998 79.7765V62.8451C51.2998 56.2994 56.6061 50.9931 63.1518 50.9931ZM63.1518 61.152C62.2167 61.152 61.4586 61.91 61.4586 62.8451V79.7765C61.4586 80.7116 62.2167 81.4697 63.1518 81.4697H80.0832C81.0183 81.4697 81.7763 80.7116 81.7763 79.7765V62.8451C81.7763 61.91 81.0183 61.152 80.0832 61.152H63.1518ZM63.1518 152.582H80.0832C86.6288 152.582 91.9352 157.888 91.9352 164.434V181.365C91.9352 187.911 86.6288 193.217 80.0832 193.217H63.1518C56.6061 193.217 51.2998 187.911 51.2998 181.365V164.434C51.2998 157.888 56.6061 152.582 63.1518 152.582ZM63.1518 162.74C62.2167 162.74 61.4586 163.498 61.4586 164.434V181.365C61.4586 182.3 62.2167 183.058 63.1518 183.058H80.0832C81.0183 183.058 81.7763 182.3 81.7763 181.365V164.434C81.7763 163.498 81.0183 162.74 80.0832 162.74H63.1518ZM132.571 61.152H107.173C104.368 61.152 102.094 58.8778 102.094 56.0726C102.094 53.2673 104.368 50.9931 107.173 50.9931H137.65C140.455 50.9931 142.729 53.2673 142.729 56.0726V76.3902C142.729 79.1955 140.455 81.4697 137.65 81.4697C134.845 81.4697 132.571 79.1955 132.571 76.3902V61.152ZM107.173 81.4697C104.368 81.4697 102.094 79.1955 102.094 76.3902C102.094 73.585 104.368 71.3108 107.173 71.3108H117.332C120.138 71.3108 122.412 73.585 122.412 76.3902C122.412 79.1955 120.138 81.4697 117.332 81.4697H107.173ZM56.3792 142.423C53.5739 142.423 51.2998 140.149 51.2998 137.343C51.2998 134.538 53.5739 132.264 56.3792 132.264H76.6969C79.5022 132.264 81.7763 134.538 81.7763 137.343C81.7763 140.149 79.5022 142.423 76.6969 142.423H56.3792ZM97.0146 142.423C94.2093 142.423 91.9352 140.149 91.9352 137.343C91.9352 134.538 94.2093 132.264 97.0146 132.264H107.173C109.979 132.264 112.253 134.538 112.253 137.343C112.253 140.149 109.979 142.423 107.173 142.423H97.0146ZM112.253 183.058V188.138C112.253 190.943 109.979 193.217 107.173 193.217C104.368 193.217 102.094 190.943 102.094 188.138V177.979C102.094 175.173 104.368 172.899 107.173 172.899H127.491C130.296 172.899 132.571 175.173 132.571 177.979C132.571 180.784 130.296 183.058 127.491 183.058H112.253ZM91.9352 111.946H97.0146C99.8199 111.946 102.094 114.22 102.094 117.026C102.094 119.831 99.8199 122.105 97.0146 122.105H86.8557C84.0504 122.105 81.7763 119.831 81.7763 117.026V111.946H76.6969C73.8916 111.946 71.6175 109.672 71.6175 106.867C71.6175 104.061 73.8916 101.787 76.6969 101.787H86.8557C89.661 101.787 91.9352 104.061 91.9352 106.867V111.946ZM51.2998 106.867C51.2998 104.061 53.5739 101.787 56.3792 101.787C59.1845 101.787 61.4586 104.061 61.4586 106.867V117.026C61.4586 119.831 59.1845 122.105 56.3792 122.105C53.5739 122.105 51.2998 119.831 51.2998 117.026V106.867ZM152.888 106.867C152.888 104.061 155.162 101.787 157.968 101.787C160.773 101.787 163.047 104.061 163.047 106.867V127.184C163.047 129.99 160.773 132.264 157.968 132.264C155.162 132.264 152.888 129.99 152.888 127.184V106.867ZM173.206 152.582V147.502C173.206 144.697 175.48 142.423 178.285 142.423H188.444C191.249 142.423 193.524 144.697 193.524 147.502C193.524 150.307 191.249 152.582 188.444 152.582H183.365V157.661C183.365 160.466 181.091 162.74 178.285 162.74H157.968C155.162 162.74 152.888 160.466 152.888 157.661V147.502C152.888 144.697 155.162 142.423 157.968 142.423C160.773 142.423 163.047 144.697 163.047 147.502V152.582H173.206ZM30.9821 66.2314C30.9821 69.0367 28.708 71.3108 25.9027 71.3108C23.0974 71.3108 20.8232 69.0367 20.8232 66.2314V45.9137C20.8232 31.8873 32.1939 20.5166 46.2204 20.5166H66.538C69.3433 20.5166 71.6175 22.7907 71.6175 25.596C71.6175 28.4013 69.3433 30.6754 66.538 30.6754H46.2204C37.8045 30.6754 30.9821 37.4979 30.9821 45.9137V66.2314ZM178.285 30.6754C175.48 30.6754 173.206 28.4013 173.206 25.596C173.206 22.7907 175.48 20.5166 178.285 20.5166H198.603C212.629 20.5166 224 31.8873 224 45.9137V66.2314C224 69.0367 221.726 71.3108 218.921 71.3108C216.115 71.3108 213.841 69.0367 213.841 66.2314V45.9137C213.841 37.4979 207.019 30.6754 198.603 30.6754H178.285ZM66.538 213.535C69.3433 213.535 71.6175 215.809 71.6175 218.614C71.6175 221.419 69.3433 223.693 66.538 223.693H46.2204C32.1939 223.693 20.8232 212.323 20.8232 198.296V177.979C20.8232 175.173 23.0974 172.899 25.9027 172.899C28.708 172.899 30.9821 175.173 30.9821 177.979V198.296C30.9821 206.712 37.8045 213.535 46.2204 213.535H66.538ZM213.841 177.979C213.841 175.173 216.115 172.899 218.921 172.899C221.726 172.899 224 175.173 224 177.979V198.296C224 212.323 212.629 223.693 198.603 223.693H178.285C175.48 223.693 173.206 221.419 173.206 218.614C173.206 215.809 175.48 213.535 178.285 213.535H198.603C207.019 213.535 213.841 206.712 213.841 198.296V177.979Z" fill="white"/>
</svg>
