<svg width="16" height="16" viewBox="0 0 16 16" fill="none" xmlns="http://www.w3.org/2000/svg">
<g id="Group 16921">
<path id="Vector" d="M7.99891 3.59082C6.68744 3.59082 5.60547 4.65639 5.60547 5.98426C5.60547 6.32853 5.88416 6.59082 6.21203 6.59082C6.5399 6.59082 6.81858 6.31213 6.81858 5.98426C6.81858 5.34492 7.34317 4.82033 7.98252 4.82033C8.65465 4.82033 9.14645 5.29574 9.14645 5.93508C9.14645 5.93508 9.14645 5.95148 9.14645 5.98426C9.14645 6.34492 9.04809 7.19738 7.88416 7.37771C7.58908 7.42689 7.35957 7.67279 7.35957 7.98426V9.64C7.35957 9.98426 7.63826 10.2466 7.96612 10.2466C8.29399 10.2466 8.57268 9.96787 8.57268 9.64V8.47607C10.1137 8.00066 10.3596 6.67279 10.3596 5.93508C10.3924 4.62361 9.31039 3.59082 7.99891 3.59082Z" fill="#298A9A"/>
<path id="Vector_2" d="M8.00173 10.9824C7.55911 10.9824 7.21484 11.3431 7.21484 11.7693C7.21484 12.1955 7.5755 12.5562 8.00173 12.5562C8.42796 12.5562 8.78861 12.1955 8.78861 11.7693C8.78861 11.3431 8.42796 10.9824 8.00173 10.9824Z" fill="#298A9A"/>
<path id="Vector_3" d="M8 0C3.59016 0 0 3.59016 0 8C0 12.4098 3.59016 16 8 16C12.4098 16 16 12.4098 16 8C16 3.59016 12.4098 0 8 0ZM8 14.7869C4.2623 14.7869 1.21311 11.7377 1.21311 8C1.21311 4.2623 4.2623 1.21311 8 1.21311C11.7377 1.21311 14.7869 4.2623 14.7869 8C14.7705 11.7377 11.7377 14.7869 8 14.7869Z" fill="#298A9A"/>
</g>
</svg>
