<svg width="8" height="8" viewBox="0 0 8 8" fill="none" xmlns="http://www.w3.org/2000/svg">
<path fill-rule="evenodd" clip-rule="evenodd" d="M0 3.99836C0 1.79013 1.79062 0 3.99945 0C6.20827 0 7.99891 1.79013 7.99891 3.99836C7.99891 6.20658 6.20827 7.99673 3.99945 7.99673C1.79061 7.99673 0 6.20658 0 3.99836ZM3.99945 0.557911C2.09883 0.557911 0.558063 2.09825 0.558063 3.99836C0.558063 5.89846 2.09883 7.43882 3.99945 7.43882C5.90006 7.43882 7.44085 5.89845 7.44085 3.99836C7.44085 2.09825 5.90007 0.557911 3.99945 0.557911Z" fill="#F4F0EC"/>
<path fill-rule="evenodd" clip-rule="evenodd" d="M3.40711 2.4153C3.28527 2.51898 3.1968 2.67704 3.1968 2.9108C3.1968 3.05773 3.07803 3.17684 2.93153 3.17684C2.78503 3.17684 2.66626 3.05773 2.66626 2.9108C2.66626 2.52379 2.82095 2.21629 3.06386 2.00959C3.301 1.80779 3.60774 1.71362 3.90419 1.71362C4.20063 1.71362 4.50737 1.8078 4.74451 2.00959C4.98742 2.21629 5.14211 2.5238 5.14211 2.9108C5.14211 3.18247 5.07273 3.38948 4.9594 3.55996C4.86416 3.70322 4.74041 3.81398 4.64304 3.90112C4.63242 3.91063 4.6221 3.91986 4.61218 3.92882C4.50353 4.02688 4.42165 4.10771 4.36162 4.21405C4.3042 4.3158 4.25788 4.45793 4.25788 4.68435C4.25788 4.83128 4.13911 4.95039 3.99261 4.95039C3.8461 4.95039 3.72734 4.83128 3.72734 4.68435C3.72734 4.3787 3.79155 4.14395 3.89992 3.95195C4.00569 3.76455 4.14486 3.63478 4.25727 3.53332C4.266 3.52545 4.27451 3.51778 4.28282 3.51029C4.38901 3.41465 4.46216 3.34875 4.51796 3.26481C4.57043 3.18589 4.61157 3.08253 4.61157 2.9108C4.61157 2.67705 4.5231 2.51898 4.40126 2.4153C4.27366 2.30672 4.09407 2.2457 3.90419 2.2457C3.7143 2.2457 3.53471 2.30672 3.40711 2.4153Z" fill="#F4F0EC"/>
<path fill-rule="evenodd" clip-rule="evenodd" d="M4.12742 5.95092C4.20505 6.02079 4.21129 6.14029 4.14136 6.21784L4.13883 6.22064C4.0689 6.29819 3.94927 6.30443 3.87164 6.23456C3.79401 6.1647 3.78778 6.04519 3.85771 5.96764L3.86023 5.96484C3.93017 5.88729 4.04979 5.88106 4.12742 5.95092Z" fill="#F4F0EC" stroke="#F4F0EC" stroke-width="0.2" stroke-linecap="round" stroke-linejoin="round"/>
</svg>
