<svg width="24" height="23" viewBox="0 0 24 23" fill="none" xmlns="http://www.w3.org/2000/svg">
<g id="Group 16921">
<path id="Vector" d="M12.4162 5.16211C10.5309 5.16211 8.97559 6.69387 8.97559 8.60268C8.97559 9.09756 9.3762 9.47461 9.84751 9.47461C10.3188 9.47461 10.7194 9.07399 10.7194 8.60268C10.7194 7.68363 11.4735 6.92953 12.3926 6.92953C13.3588 6.92953 14.0658 7.61293 14.0658 8.53199C14.0658 8.53199 14.0658 8.55555 14.0658 8.60268C14.0658 9.12113 13.9244 10.3465 12.2512 10.6058C11.827 10.6765 11.4971 11.0299 11.4971 11.4777V13.8578C11.4971 14.3527 11.8977 14.7297 12.369 14.7297C12.8403 14.7297 13.241 14.3291 13.241 13.8578V12.1847C15.4561 11.5012 15.8096 9.59244 15.8096 8.53199C15.8567 6.64674 14.3014 5.16211 12.4162 5.16211Z" fill="#27E1C1"/>
<path id="Vector_2" d="M12.4163 15.7871C11.78 15.7871 11.2852 16.3056 11.2852 16.9183C11.2852 17.531 11.8036 18.0494 12.4163 18.0494C13.029 18.0494 13.5475 17.531 13.5475 16.9183C13.5475 16.3056 13.029 15.7871 12.4163 15.7871Z" fill="#27E1C1"/>
<path id="Vector_3" d="M12.416 0C6.07688 0 0.916016 5.16086 0.916016 11.5C0.916016 17.8391 6.07688 23 12.416 23C18.7552 23 23.916 17.8391 23.916 11.5C23.916 5.16086 18.7552 0 12.416 0ZM12.416 21.2561C7.04307 21.2561 2.65987 16.873 2.65987 11.5C2.65987 6.12705 7.04307 1.74385 12.416 1.74385C17.789 1.74385 22.1722 6.12705 22.1722 11.5C22.1486 16.873 17.789 21.2561 12.416 21.2561Z" fill="#27E1C1"/>
</g>
</svg>
