<svg width="187" height="108" viewBox="0 0 187 108" fill="none" xmlns="http://www.w3.org/2000/svg">
<path d="M167.819 94H183C183 70.1305 173.571 47.2387 156.786 30.3604C140.002 13.4821 117.237 4 93.5 4C69.7631 4 46.9985 13.4821 30.2139 30.3604C13.4294 47.2387 4 70.1305 4 94H19.1806" stroke="white" stroke-width="8" stroke-linecap="round" stroke-linejoin="round"/>
<path d="M157 94C157 77.0261 150.257 60.7475 138.255 48.7452C126.253 36.7428 109.974 30 93 30" stroke="white" stroke-width="8" stroke-linecap="round" stroke-linejoin="round"/>
<path d="M129 94C129 84.7174 125.207 75.815 118.456 69.2512C111.704 62.6875 102.548 59 93 59" stroke="white" stroke-width="8" stroke-linecap="round" stroke-linejoin="round"/>
<path d="M93.5 104C99.299 104 104 99.299 104 93.5C104 87.701 99.299 83 93.5 83C87.701 83 83 87.701 83 93.5C83 99.299 87.701 104 93.5 104Z" stroke="white" stroke-width="8" stroke-linecap="round" stroke-linejoin="round"/>
<path d="M93 83V12" stroke="white" stroke-width="8" stroke-linecap="round" stroke-linejoin="round"/>
</svg>
