<svg width="95" height="96" viewBox="0 0 95 96" fill="none" xmlns="http://www.w3.org/2000/svg">
<g id="Group 16966">
<path id="Vector" d="M47.5 0.276367C21.2923 0.276367 0 21.5686 0 47.7764C0 73.9841 21.2923 95.2764 47.5 95.2764C73.7077 95.2764 95 73.9841 95 47.7764C95 21.5686 73.7077 0.276367 47.5 0.276367ZM45.2744 4.65622C45.2744 4.65622 45.322 4.65622 45.3458 4.65622V12.1424C45.3339 13.3326 46.286 14.3205 47.4762 14.3324C48.6664 14.3443 49.6542 13.3921 49.6661 12.202C49.6661 12.1781 49.6661 12.1662 49.6661 12.1424V4.65622C55.7003 4.95377 61.4013 6.45339 66.5309 8.97657L63.9959 13.1898C63.377 14.2134 63.7102 15.5464 64.7338 16.1533C65.7573 16.7603 67.0903 16.439 67.6973 15.4154L70.2919 11.0951C75.1002 14.0943 79.2777 18.01 82.5745 22.6041L77.2783 27.9004C76.3499 28.6502 76.2071 30.007 76.9569 30.9354C77.7067 31.8637 79.0635 32.0065 79.9919 31.2567C80.1109 31.1615 80.218 31.0544 80.3132 30.9354L84.9668 26.2818C88.2636 32.0303 90.2512 38.5882 90.5963 45.6102H83.1101C83.0387 45.6102 82.9792 45.6102 82.9078 45.6102C81.7176 45.6698 80.7893 46.6814 80.8488 47.8716C80.9083 49.0618 81.9199 49.9901 83.1101 49.9306H90.5963C89.4776 72.7939 70.6371 90.956 47.4881 90.956C24.3391 90.956 5.51052 72.8058 4.37985 49.9306H11.8661C13.0563 49.9425 14.0441 48.9903 14.056 47.8002C14.0679 46.61 13.1158 45.6221 11.9256 45.6102C11.9018 45.6102 11.8899 45.6102 11.8661 45.6102H4.37985C4.72501 38.5882 6.7126 32.0303 10.0094 26.2818L14.663 30.9354C15.4128 31.8637 16.7696 32.0065 17.6979 31.2567C18.6263 30.5069 18.7691 29.1501 18.0193 28.2217C17.9241 28.1027 17.817 27.9956 17.6979 27.9004L12.4017 22.6041C15.6984 18.01 19.876 14.0943 24.6843 11.0951L27.2789 15.4154C27.8978 16.439 29.2189 16.7722 30.2424 16.1533C31.266 15.5344 31.5992 14.2134 30.9803 13.1898L28.4453 8.97657C33.563 6.46529 39.2283 4.96567 45.2506 4.65622H45.2744Z" fill="white"/>
<path id="Vector_2" d="M75.6835 46.1454C75.2669 45.7645 74.7194 45.5622 74.16 45.5741H53.6057C53.2962 44.6815 52.7845 43.8484 52.0822 43.1462C49.571 40.6349 45.4292 40.6349 42.9179 43.1462C40.4066 45.6574 40.4066 49.7992 42.9179 52.3105C45.4292 54.8218 49.571 54.8218 52.0822 52.3105C52.7964 51.5964 53.2962 50.7752 53.6057 49.8826H74.16C75.3502 49.9064 76.3381 48.9542 76.35 47.764C76.35 47.1571 76.1119 46.5858 75.6835 46.1692V46.1454ZM49.69 47.764C49.6781 48.2996 49.4401 48.8233 49.0235 49.2399C48.1666 50.0968 46.8336 50.0968 45.9647 49.2399C45.1078 48.3829 45.1078 47.0499 45.9647 46.1811C46.8217 45.3123 48.1547 45.3242 49.0235 46.1811C49.452 46.6096 49.69 47.157 49.69 47.7045C49.69 47.7164 49.69 47.7402 49.69 47.7521V47.764Z" fill="white"/>
</g>
</svg>
