<svg width="95" height="95" viewBox="0 0 95 95" fill="none" xmlns="http://www.w3.org/2000/svg">
<g id="Group 16966">
<path id="Vector" d="M47.5 0C21.2923 0 0 21.2923 0 47.5C0 73.7077 21.2923 95 47.5 95C73.7077 95 95 73.7077 95 47.5C95 21.2923 73.7077 0 47.5 0ZM45.2744 4.37985C45.2744 4.37985 45.322 4.37985 45.3458 4.37985V11.8661C45.3339 13.0563 46.286 14.0441 47.4762 14.056C48.6664 14.0679 49.6542 13.1158 49.6661 11.9256C49.6661 11.9018 49.6661 11.8899 49.6661 11.8661V4.37985C55.7003 4.6774 61.4013 6.17702 66.5309 8.7002L63.9959 12.9134C63.377 13.937 63.7102 15.27 64.7338 15.877C65.7573 16.484 67.0903 16.1626 67.6973 15.1391L70.2919 10.8187C75.1002 13.818 79.2777 17.7337 82.5745 22.3277L77.2783 27.624C76.3499 28.3738 76.2071 29.7306 76.9569 30.659C77.7067 31.5873 79.0635 31.7301 79.9919 30.9803C80.1109 30.8851 80.218 30.778 80.3132 30.659L84.9668 26.0054C88.2636 31.7539 90.2512 38.3118 90.5963 45.3339H83.1101C83.0387 45.3339 82.9792 45.3339 82.9078 45.3339C81.7176 45.3934 80.7893 46.405 80.8488 47.5952C80.9083 48.7854 81.9199 49.7137 83.1101 49.6542H90.5963C89.4776 72.5175 70.6371 90.6797 47.4881 90.6797C24.3391 90.6797 5.51052 72.5294 4.37985 49.6542H11.8661C13.0563 49.6661 14.0441 48.714 14.056 47.5238C14.0679 46.3336 13.1158 45.3458 11.9256 45.3339C11.9018 45.3339 11.8899 45.3339 11.8661 45.3339H4.37985C4.72501 38.3118 6.7126 31.7539 10.0094 26.0054L14.663 30.659C15.4128 31.5873 16.7696 31.7301 17.6979 30.9803C18.6263 30.2305 18.7691 28.8737 18.0193 27.9454C17.9241 27.8264 17.817 27.7192 17.6979 27.624L12.4017 22.3277C15.6984 17.7337 19.876 13.818 24.6843 10.8187L27.2789 15.1391C27.8978 16.1626 29.2189 16.4959 30.2424 15.877C31.266 15.2581 31.5992 13.937 30.9803 12.9134L28.4453 8.7002C33.563 6.18893 39.2283 4.6893 45.2506 4.37985H45.2744Z" fill="black"/>
<path id="Vector_2" d="M75.6842 45.869C75.2676 45.4882 74.7202 45.2858 74.1608 45.2977H53.6064C53.297 44.4051 52.7852 43.572 52.083 42.8698C49.5717 40.3585 45.4299 40.3585 42.9186 42.8698C40.4073 45.3811 40.4073 49.5229 42.9186 52.0342C45.4299 54.5454 49.5717 54.5454 52.083 52.0342C52.7971 51.32 53.297 50.4988 53.6064 49.6062H74.1608C75.351 49.63 76.3388 48.6779 76.3507 47.4877C76.3507 46.8807 76.1127 46.3094 75.6842 45.8928V45.869ZM49.6907 47.4877C49.6788 48.0233 49.4408 48.5469 49.0242 48.9635C48.1673 49.8204 46.8343 49.8204 45.9655 48.9635C45.1085 48.1066 45.1085 46.7736 45.9655 45.9047C46.8224 45.0359 48.1554 45.0478 49.0242 45.9047C49.4527 46.3332 49.6907 46.8807 49.6907 47.4282C49.6907 47.4401 49.6907 47.4639 49.6907 47.4758V47.4877Z" fill="black"/>
</g>
</svg>
