<svg width="27" height="27" viewBox="0 0 27 27" fill="none" xmlns="http://www.w3.org/2000/svg">
<g id="Logo-2">
<path id="Initiator" d="M26.1471 13.7975C26.1471 6.57719 20.2936 0.723633 13.0732 0.723633C5.85289 0.723633 0 6.57719 0 13.7975C0 19.9288 4.22097 25.0731 9.91545 26.4863V17.7925H7.21967V13.7975H9.91545V12.0761C9.91545 7.62646 11.9292 5.5637 16.2979 5.5637C17.1265 5.5637 18.5556 5.7261 19.1402 5.88849V9.51026C18.8313 9.47778 18.2958 9.46121 17.6296 9.46121C15.486 9.46121 14.6574 10.2732 14.6574 12.3843V13.7975H18.9274L18.1937 17.7925H14.6568V26.7753C21.1301 25.9931 26.1464 20.4816 26.1464 13.7975H26.1471Z" fill="#0866FF"/>
<path id="F" d="M18.1942 17.7917L18.928 13.7967H14.658V12.3836C14.658 10.2724 15.4865 9.46044 17.6301 9.46044C18.2963 9.46044 18.8319 9.47701 19.1408 9.50949V5.88772C18.5561 5.72532 17.127 5.56293 16.2985 5.56293C11.9297 5.56293 9.91599 7.62569 9.91599 12.0753V13.7967H7.22021V17.7917H9.91599V26.4855C10.9275 26.7367 11.9854 26.8706 13.0744 26.8706C13.6107 26.8706 14.139 26.8375 14.6586 26.7752V17.7924H18.1955L18.1942 17.7917Z" fill="white"/>
</g>
</svg>
