<svg width="16" height="16" viewBox="0 0 16 16" fill="none" xmlns="http://www.w3.org/2000/svg">
<path id="Vector" d="M7.87037 1.67608C9.86353 1.67608 10.0995 1.68337 10.887 1.71917C11.6148 1.75231 12.0105 1.87361 12.273 1.97635C12.6216 2.11157 12.8702 2.2733 13.1313 2.53446C13.3925 2.79562 13.5542 3.04419 13.6894 3.39284C13.7915 3.65599 13.9135 4.05104 13.9466 4.77884C13.9824 5.5663 13.9897 5.80227 13.9897 7.79543C13.9897 9.7886 13.9824 10.0246 13.9466 10.812C13.9135 11.5398 13.7922 11.9355 13.6894 12.198C13.5542 12.5467 13.3925 12.7952 13.1313 13.0564C12.8702 13.3176 12.6216 13.4793 12.273 13.6145C12.0098 13.7166 11.6148 13.8386 10.887 13.8717C10.0995 13.9075 9.86353 13.9148 7.87037 13.9148C5.8772 13.9148 5.64123 13.9075 4.85378 13.8717C4.12598 13.8386 3.73026 13.7173 3.46777 13.6145C3.11912 13.4786 2.87056 13.3176 2.6094 13.0564C2.34824 12.7952 2.1865 12.5467 2.05128 12.198C1.9492 11.9349 1.82724 11.5398 1.7941 10.812C1.7583 10.0246 1.75101 9.7886 1.75101 7.79543C1.75101 5.80227 1.7583 5.5663 1.7941 4.77884C1.82724 4.05104 1.94854 3.65533 2.05128 3.39284C2.1865 3.04419 2.34824 2.79562 2.6094 2.53446C2.87056 2.2733 3.11912 2.11157 3.46777 1.97635C3.73092 1.87427 4.12598 1.75231 4.85378 1.71917C5.64123 1.68337 5.8772 1.67608 7.87037 1.67608ZM7.87037 0.331177C5.84274 0.331177 5.58886 0.339793 4.79279 0.376249C3.99805 0.412706 3.45584 0.538646 2.98059 0.723579C2.48942 0.914477 2.07315 1.16967 1.65821 1.58461C1.24327 1.99955 0.987418 2.41581 0.797182 2.90698C0.612912 3.38157 0.48631 3.92444 0.449854 4.71919C0.413398 5.51526 0.404785 5.76979 0.404785 7.79676C0.404785 9.82373 0.413398 10.0783 0.449854 10.8743C0.48631 11.6691 0.612249 12.2113 0.797182 12.6865C0.98808 13.1777 1.24327 13.594 1.65821 14.0089C2.07315 14.4238 2.48942 14.679 2.98059 14.8699C3.45518 15.0542 3.99805 15.1808 4.79279 15.2173C5.58886 15.2537 5.8434 15.2623 7.87037 15.2623C9.89734 15.2623 10.1519 15.2537 10.9479 15.2173C11.7427 15.1808 12.2849 15.0549 12.7602 14.8699C13.2513 14.679 13.6676 14.4238 14.0825 14.0089C14.4975 13.594 14.7526 13.1777 14.9435 12.6865C15.1278 12.2119 15.2544 11.6691 15.2909 10.8743C15.3273 10.0783 15.336 9.82373 15.336 7.79676C15.336 5.76979 15.3273 5.51526 15.2909 4.71919C15.2544 3.92444 15.1285 3.38224 14.9435 2.90698C14.7526 2.41581 14.4975 1.99955 14.0825 1.58461C13.6676 1.16967 13.2513 0.914477 12.7602 0.723579C12.2856 0.539309 11.7427 0.412706 10.9479 0.376249C10.1519 0.339793 9.89734 0.331177 7.87037 0.331177ZM7.87037 3.96288C5.75325 3.96288 4.03715 5.67898 4.03715 7.7961C4.03715 9.91321 5.75325 11.6293 7.87037 11.6293C9.98748 11.6293 11.7036 9.91321 11.7036 7.7961C11.7036 5.67898 9.98748 3.96288 7.87037 3.96288ZM7.87037 10.2844C6.4963 10.2844 5.38206 9.17017 5.38206 7.7961C5.38206 6.42203 6.4963 5.30779 7.87037 5.30779C9.24444 5.30779 10.3587 6.42203 10.3587 7.7961C10.3587 9.17017 9.24444 10.2844 7.87037 10.2844ZM11.8554 2.91559C11.3602 2.91559 10.9599 3.31661 10.9599 3.81109C10.9599 4.30557 11.3609 4.70659 11.8554 4.70659C12.3499 4.70659 12.7509 4.30557 12.7509 3.81109C12.7509 3.31661 12.3499 2.91559 11.8554 2.91559Z" fill="white"/>
</svg>
