<svg width="27" height="27" viewBox="0 0 27 27" fill="none" xmlns="http://www.w3.org/2000/svg">
<g id="logo">
<path id="Path" fill-rule="evenodd" clip-rule="evenodd" d="M13.2889 0.772705C5.9512 0.772705 0.262695 6.14769 0.262695 13.4078C0.262695 17.2052 1.81904 20.4869 4.35375 22.7532C4.56652 22.9434 4.69512 23.2106 4.70373 23.4962L4.77465 25.8135C4.79719 26.5526 5.56079 27.0338 6.23689 26.7349L8.82263 25.5935C9.04203 25.4967 9.28728 25.4788 9.51861 25.5424C10.7064 25.8692 11.9711 26.0429 13.2895 26.0429C20.6272 26.0429 26.3157 20.6679 26.3157 13.4078C26.3157 6.14769 20.6278 0.772705 13.2895 0.772705H13.2889Z" fill="#0866FF"/>
<path id="Path-2" fill-rule="evenodd" clip-rule="evenodd" d="M5.46729 17.1045L9.29387 11.0342C9.90236 10.0684 11.2062 9.82783 12.1189 10.5132L15.162 12.7954C15.4411 13.0048 15.8255 13.0035 16.1032 12.7927L20.2135 9.67339C20.7624 9.25712 21.4782 9.91334 21.111 10.496L17.2844 16.5663C16.6759 17.532 15.3721 17.7726 14.4594 17.0873L11.4163 14.8044C11.1372 14.595 10.7528 14.5963 10.4751 14.8071L6.36477 17.9264C5.81594 18.3427 5.10007 17.6865 5.46729 17.1038V17.1045Z" fill="white"/>
</g>
</svg>
