<svg width="27" height="27" viewBox="0 0 27 27" fill="none" xmlns="http://www.w3.org/2000/svg">
<g id="Group 17228">
<path id="Vector" d="M13.0348 26.8237C20.2286 26.8237 26.0603 20.992 26.0603 13.7982C26.0603 6.60442 20.2286 0.772705 13.0348 0.772705C5.84099 0.772705 0.00927734 6.60442 0.00927734 13.7982C0.00927734 20.992 5.84099 26.8237 13.0348 26.8237Z" fill="#FFFD00"/>
<g id="PRIMARY_-_GHOST">
<path id="Vector_2" d="M20.8993 18.137C18.061 16.763 17.6083 14.6412 17.5884 14.4841C17.5639 14.2932 17.5367 14.1434 17.7468 13.9499C17.9497 13.7623 18.8491 13.2055 19.099 13.0312C19.5113 12.7428 19.6936 12.4545 19.5597 12.1006C19.4663 11.8553 19.2382 11.7632 18.9976 11.7632C18.9221 11.7632 18.8465 11.7718 18.7722 11.7884C18.3189 11.8865 17.8787 12.1138 17.6242 12.1755C17.5937 12.1834 17.5619 12.1874 17.5307 12.188C17.3949 12.188 17.3432 12.1277 17.3564 11.964C17.3882 11.4682 17.4558 10.5018 17.3776 9.59832C17.2702 8.3555 16.8692 7.73972 16.394 7.19486C16.164 6.93105 15.0961 5.79626 13.0354 5.79626C10.9746 5.79626 9.90874 6.93105 9.68006 7.19155C9.20347 7.7364 8.80311 8.35218 8.69639 9.59501C8.61818 10.4985 8.68845 11.4649 8.71761 11.9607C8.72689 12.1165 8.67917 12.1847 8.54329 12.1847C8.51147 12.1847 8.48031 12.1801 8.44982 12.1721C8.19529 12.1105 7.75516 11.8838 7.30177 11.785C7.22754 11.7685 7.15198 11.7598 7.07641 11.7598C6.83514 11.7598 6.60779 11.8533 6.51433 12.0972C6.38043 12.4512 6.56138 12.7395 6.975 13.0279C7.22489 13.2022 8.12437 13.7583 8.3272 13.9466C8.53732 14.1408 8.51014 14.2906 8.48562 14.4808C8.46573 14.6406 8.01235 16.7623 5.17473 18.1337C5.00835 18.2146 4.72532 18.385 5.22444 18.66C6.00725 19.0929 6.52891 19.0465 6.93391 19.307C7.27792 19.5284 7.07442 20.0063 7.32432 20.1786C7.63121 20.3907 8.53931 20.1634 9.71254 20.5511C10.6962 20.8752 11.2934 21.7906 13.0373 21.7906C14.7813 21.7906 15.3964 20.8706 16.3622 20.5511C17.5327 20.164 18.4428 20.3907 18.7504 20.1786C19.0003 20.0063 18.7974 19.5284 19.1408 19.307C19.5458 19.0458 20.0668 19.0922 20.8503 18.66C21.3481 18.3883 21.065 18.2173 20.8986 18.137H20.8993Z" fill="white"/>
<path id="Vector_3" d="M22.1348 17.9766C22.0075 17.6299 21.7649 17.4443 21.4885 17.2912C21.4368 17.2607 21.3891 17.2362 21.348 17.2176C21.2658 17.1752 21.1809 17.1341 21.0974 17.0904C20.2364 16.6337 19.5636 16.0577 19.097 15.3749C18.9644 15.1827 18.8497 14.9792 18.7536 14.7665C18.7138 14.6524 18.7158 14.5881 18.7443 14.5292C18.7728 14.4834 18.8099 14.4443 18.8544 14.4145C19.0022 14.3164 19.1553 14.2176 19.2587 14.1507C19.443 14.0314 19.5894 13.9366 19.6836 13.8696C20.0369 13.6224 20.2841 13.3599 20.4392 13.0663C20.6573 12.656 20.6865 12.1708 20.5181 11.7373C20.2841 11.1208 19.7021 10.7384 18.9962 10.7384C18.8477 10.7384 18.6993 10.7536 18.5534 10.7854C18.5143 10.794 18.4759 10.8027 18.4374 10.8126C18.4441 10.391 18.4348 9.94627 18.397 9.50813C18.2638 7.96901 17.7249 7.16167 17.1628 6.51872C16.8029 6.11571 16.3793 5.77435 15.908 5.50921C15.0549 5.02202 14.0879 4.77478 13.034 4.77478C11.98 4.77478 11.0176 5.02202 10.1638 5.50921C9.6919 5.77435 9.26702 6.11637 8.9071 6.52071C8.34501 7.16432 7.80611 7.97233 7.67288 9.51012C7.6351 9.94826 7.62583 10.395 7.63246 10.8146C7.59467 10.8046 7.55623 10.796 7.51712 10.7874C7.37196 10.7563 7.22347 10.7404 7.07433 10.7404C6.36841 10.7404 5.78577 11.1228 5.55245 11.7393C5.38409 12.1728 5.41192 12.6586 5.63 13.0696C5.7851 13.3632 6.03235 13.6257 6.38565 13.8729C6.47911 13.9386 6.62559 14.0333 6.81052 14.154C6.90995 14.2189 7.05578 14.3131 7.19896 14.4079C7.24867 14.4403 7.29108 14.4828 7.32356 14.5331C7.35339 14.5948 7.35472 14.6604 7.31031 14.7824C7.21552 14.9905 7.10283 15.19 6.97292 15.3783C6.51688 16.0457 5.86399 16.6111 5.03014 17.0645C4.58869 17.2985 4.12934 17.4549 3.93579 17.9819C3.78996 18.3796 3.8854 18.8317 4.25659 19.2128C4.39314 19.3553 4.5509 19.4746 4.72523 19.5674C5.08714 19.7663 5.47225 19.92 5.87128 20.0261C5.95347 20.0473 6.03169 20.0824 6.10261 20.1295C6.23783 20.2482 6.21861 20.4265 6.3989 20.6876C6.48971 20.8228 6.60439 20.9395 6.73828 21.0323C7.11677 21.2935 7.54164 21.31 7.99237 21.3273C8.39936 21.3425 8.8607 21.3604 9.38766 21.5341C9.60573 21.6063 9.83242 21.7455 10.0956 21.9086C10.7266 22.2963 11.5903 22.8273 13.0353 22.8273C14.4803 22.8273 15.3499 22.2937 15.9856 21.9046C16.2467 21.7442 16.4714 21.6063 16.6835 21.5361C17.2105 21.3617 17.6718 21.3445 18.0788 21.3292C18.5296 21.312 18.9544 21.2954 19.3329 21.0343C19.4913 20.9242 19.6226 20.7798 19.7187 20.6127C19.8486 20.392 19.8453 20.2382 19.9666 20.1302C20.0329 20.0851 20.1065 20.0513 20.184 20.0307C20.589 19.9247 20.9788 19.7696 21.3453 19.5681C21.5302 19.4686 21.6966 19.3387 21.8371 19.183L21.8418 19.1777C22.1904 18.8051 22.2779 18.3657 22.1348 17.9779V17.9766ZM20.8502 18.6666C20.0667 19.0994 19.5457 19.053 19.1407 19.3135C18.7967 19.5349 19.0002 20.0128 18.7503 20.1852C18.4434 20.3973 17.5353 20.1699 16.3621 20.5577C15.3943 20.8779 14.7772 21.7972 13.0373 21.7972C11.2973 21.7972 10.6941 20.8792 9.71112 20.555C8.54054 20.1679 7.63046 20.3946 7.3229 20.1825C7.07301 20.0102 7.27584 19.5323 6.93249 19.3109C6.52683 19.0497 6.00584 19.0961 5.22302 18.6659C4.72456 18.3909 5.00693 18.2199 5.17331 18.1397C8.0116 16.7656 8.46431 14.6438 8.4842 14.4867C8.50872 14.2958 8.53591 14.146 8.32579 13.9525C8.12296 13.7649 7.22347 13.2081 6.97358 13.0338C6.56063 12.7454 6.37901 12.4571 6.51291 12.1032C6.60637 11.8579 6.83505 11.7658 7.075 11.7658C7.15056 11.7658 7.22613 11.7744 7.30037 11.791C7.75376 11.8891 8.19387 12.1164 8.4484 12.1781C8.47889 12.186 8.51072 12.19 8.54187 12.1907C8.67776 12.1907 8.72547 12.1224 8.71619 11.9666C8.68703 11.4708 8.61676 10.5044 8.69498 9.60093C8.80236 8.3581 9.20272 7.74232 9.67864 7.19747C9.90732 6.93564 10.9811 5.80086 13.0346 5.80086C15.0881 5.80086 16.1645 6.931 16.3932 7.1915C16.8698 7.73636 17.2702 8.35214 17.3769 9.59496C17.4551 10.4984 17.3875 11.4655 17.3557 11.9606C17.3451 12.1244 17.3941 12.1847 17.53 12.1847C17.5618 12.1847 17.593 12.18 17.6235 12.1721C17.878 12.1104 18.3181 11.8838 18.7715 11.785C18.8457 11.7684 18.9213 11.7598 18.9969 11.7598C19.2381 11.7598 19.4655 11.8533 19.559 12.0972C19.6929 12.4511 19.5119 12.7395 19.0983 13.0278C18.8484 13.2021 17.9489 13.7583 17.7461 13.9465C17.536 14.1407 17.5631 14.2905 17.5877 14.4808C17.6076 14.6405 18.0603 16.7623 20.8986 18.1337C21.0663 18.2172 21.3493 18.3882 20.8502 18.6659V18.6666Z" fill="black"/>
</g>
</g>
</svg>
