<svg width="27" height="27" viewBox="0 0 27 27" fill="none" xmlns="http://www.w3.org/2000/svg">
<g id="Artboard">
<path id="Oval" d="M13.6178 26.8237C20.8116 26.8237 26.6433 20.992 26.6433 13.7982C26.6433 6.60442 20.8116 0.772705 13.6178 0.772705C6.424 0.772705 0.592285 6.60442 0.592285 13.7982C0.592285 20.992 6.424 26.8237 13.6178 26.8237Z" fill="url(#paint0_linear_5544_1971)"/>
<path id="Path-3" fill-rule="evenodd" clip-rule="evenodd" d="M6.48812 13.6599C10.2855 12.0054 12.8176 10.9151 14.0843 10.3881C17.7014 8.88346 18.4531 8.6223 18.9436 8.61369C19.0516 8.6117 19.2922 8.63821 19.448 8.76482C19.5799 8.87153 19.6164 9.01603 19.6336 9.11745C19.6508 9.21886 19.6727 9.44953 19.6555 9.63049C19.4593 11.6899 18.6115 16.6884 18.18 18.9951C17.9977 19.9715 17.6378 20.2983 17.2898 20.3307C16.5335 20.4003 15.9588 19.831 15.2263 19.3504C14.0796 18.5987 13.432 18.1308 12.3191 17.3977C11.0332 16.5499 11.8671 16.0846 12.5995 15.323C12.7911 15.1235 16.1245 12.0923 16.1888 11.8172C16.1968 11.7827 16.204 11.6548 16.1285 11.5872C16.0529 11.5196 15.9402 11.5428 15.8587 11.5613C15.744 11.5872 13.9119 12.7982 10.3644 15.1931C9.84475 15.5503 9.37347 15.724 8.9519 15.7147C8.48658 15.7048 7.59241 15.4516 6.92691 15.2355C6.11096 14.9703 5.4627 14.8298 5.51904 14.3797C5.5482 14.1451 5.87168 13.9052 6.48812 13.6599Z" fill="white"/>
</g>
<defs>
<linearGradient id="paint0_linear_5544_1971" x1="13.5482" y1="0.789276" x2="13.5482" y2="26.6401" gradientUnits="userSpaceOnUse">
<stop stop-color="#2AABEE"/>
<stop offset="1" stop-color="#229ED9"/>
</linearGradient>
</defs>
</svg>
