<svg width="27" height="27" viewBox="0 0 27 27" fill="none" xmlns="http://www.w3.org/2000/svg">
<g id="Group 17229">
<path id="Vector" d="M13.4527 26.8237C20.6465 26.8237 26.4782 20.992 26.4782 13.7982C26.4782 6.60442 20.6465 0.772705 13.4527 0.772705C6.25896 0.772705 0.427246 6.60442 0.427246 13.7982C0.427246 20.992 6.25896 26.8237 13.4527 26.8237Z" fill="black"/>
<path id="Vector_2" d="M11.6885 11.8981V11.1762C11.4466 11.1431 11.2013 11.1226 10.9508 11.1226C7.9322 11.1226 5.47705 13.5784 5.47705 16.5963C5.47705 18.4483 6.40238 20.0868 7.81423 21.0784C6.90349 20.1001 6.36193 18.7903 6.36193 17.3513C6.36193 14.3764 8.73027 11.967 11.6885 11.8981Z" fill="#25F4EE"/>
<path id="Vector_3" d="M11.8178 19.8694C13.1647 19.8694 14.2823 18.7804 14.332 17.4454L14.3359 5.54478L16.4948 5.52622C16.4498 5.28163 16.4246 5.02909 16.4246 4.77124H13.4504L13.4458 16.6898C13.396 18.0248 12.297 19.0959 10.9508 19.0959C10.5326 19.0959 10.1382 18.9912 9.7915 18.8089C10.2462 19.4386 10.984 19.8688 11.8178 19.8688V19.8694Z" fill="#25F4EE"/>
<path id="Vector_4" d="M18.3083 8.23938C17.6753 7.51224 17.2909 6.56371 17.2909 5.52637H16.4941C16.7043 6.65983 17.3764 7.63155 18.3083 8.23938Z" fill="#FE2C55"/>
<path id="Vector_5" d="M10.9504 14.0958C9.57172 14.0958 8.4502 15.2174 8.4502 16.5961C8.4502 17.5559 8.99505 18.3897 9.79046 18.8086C9.49417 18.3977 9.3172 17.8952 9.3172 17.3504C9.3172 15.9717 10.4387 14.8501 11.8174 14.8501C12.0746 14.8501 12.3219 14.8926 12.5552 14.9655V11.9297C12.3132 11.8965 12.068 11.876 11.8174 11.876C11.7743 11.876 11.7313 11.878 11.6882 11.8793V14.2112C11.4549 14.1383 11.2076 14.0958 10.9504 14.0958Z" fill="#FE2C55"/>
<path id="Vector_6" d="M20.5619 9.57262V11.884C19.0201 11.884 17.591 11.3908 16.4244 10.5536V16.5974C16.4244 19.616 13.9686 22.0712 10.9507 22.0712C9.78409 22.0712 8.70301 21.7033 7.81348 21.0789C8.8137 22.1527 10.2381 22.8255 11.817 22.8255C14.8356 22.8255 17.2908 20.3696 17.2908 17.3517V11.3079C18.4574 12.1451 19.8865 12.6383 21.4282 12.6383V9.6641C21.1306 9.6641 20.841 9.63162 20.5612 9.57196L20.5619 9.57262Z" fill="#FE2C55"/>
<path id="Vector_7" d="M16.4241 16.5965V10.5527C17.5907 11.3899 19.0198 11.883 20.5615 11.883V9.57169C19.6707 9.38079 18.8859 8.90288 18.3085 8.23938C17.3766 7.63155 16.7045 6.65983 16.4943 5.52637H14.3169L14.3123 17.4449C14.2626 18.7799 13.1636 19.851 11.8173 19.851C10.9835 19.851 10.2451 19.4387 9.79101 18.809C8.9956 18.3901 8.45075 17.5563 8.45075 16.5965C8.45075 15.2178 9.57228 14.0962 10.951 14.0962C11.2082 14.0962 11.4554 14.1387 11.6887 14.2116V11.8797C8.72981 11.9486 6.34424 14.3753 6.34424 17.3501C6.34424 18.7892 6.90303 20.0989 7.81443 21.0773C8.7033 21.7017 9.78505 22.0696 10.9516 22.0696C13.9702 22.0696 16.4254 19.6137 16.4254 16.5958L16.4241 16.5965Z" fill="#25F4EE"/>
</g>
</svg>
