<svg width="27" height="27" viewBox="0 0 27 27" fill="none" xmlns="http://www.w3.org/2000/svg">
<g id="Group 17231">
<path id="Vector" d="M13.7047 26.8239C20.8985 26.8239 26.7302 20.9922 26.7302 13.7984C26.7302 6.60466 20.8985 0.772949 13.7047 0.772949C6.51091 0.772949 0.679199 6.60466 0.679199 13.7984C0.679199 20.9922 6.51091 26.8239 13.7047 26.8239Z" fill="#25D266"/>
<path id="Vector_2" fill-rule="evenodd" clip-rule="evenodd" d="M20.0703 7.39654C18.3813 5.70563 16.1356 4.77434 13.7428 4.77301C8.8119 4.77301 4.7984 8.78585 4.79707 13.7181C4.79641 15.295 5.2087 16.8341 5.99151 18.1902L4.72217 22.8262L9.4648 21.582C10.7713 22.2952 12.2428 22.6704 13.7395 22.6704H13.7434C18.6737 22.6704 22.6872 18.6575 22.6891 13.7247C22.6898 11.3345 21.7605 9.08678 20.0716 7.39587L20.0703 7.39654ZM13.7428 21.1604H13.7395C12.4052 21.1604 11.0967 20.8012 9.95464 20.1244L9.68288 19.9633L6.86845 20.7018L7.61945 17.9576L7.44247 17.6765C6.6981 16.4927 6.30503 15.1246 6.3057 13.7194C6.30769 9.61971 9.64311 6.28429 13.7441 6.28429C15.73 6.28495 17.5965 7.05915 19.0004 8.46504C20.4043 9.87026 21.1772 11.7388 21.1759 13.7253C21.1739 17.825 17.8385 21.1604 13.7408 21.1604H13.7428ZM17.8212 15.5919C17.5979 15.4799 16.4989 14.9397 16.2941 14.8648C16.0892 14.7899 15.9401 14.7528 15.7916 14.9768C15.6425 15.2008 15.2143 15.7046 15.0837 15.8531C14.9531 16.0022 14.8232 16.0208 14.5992 15.9087C14.3758 15.7967 13.6553 15.5608 12.8015 14.7998C12.1374 14.2072 11.6886 13.4755 11.5581 13.2514C11.4275 13.0274 11.5441 12.9067 11.6555 12.7954C11.7556 12.6953 11.8789 12.5342 11.9909 12.4036C12.1029 12.2731 12.14 12.1796 12.2143 12.0311C12.2892 11.882 12.2514 11.7514 12.1957 11.6394C12.14 11.5274 11.6933 10.427 11.5064 9.97963C11.3247 9.54414 11.1405 9.60314 11.0039 9.59584C10.8733 9.58922 10.7249 9.58789 10.5757 9.58789C10.4266 9.58789 10.1846 9.64357 9.97916 9.86761C9.77435 10.0916 9.19701 10.6325 9.19701 11.7322C9.19701 12.8318 9.99773 13.895 10.1097 14.0448C10.2218 14.194 11.686 16.4516 13.9284 17.42C14.4613 17.65 14.8782 17.7879 15.203 17.8913C15.7386 18.0617 16.2258 18.0378 16.6109 17.9801C17.0404 17.9158 17.9333 17.4392 18.1195 16.9169C18.3058 16.3946 18.3058 15.9472 18.2501 15.8537C18.1944 15.7603 18.0453 15.7046 17.8219 15.5926L17.8212 15.5919Z" fill="white"/>
</g>
</svg>
