<svg width="27" height="27" viewBox="0 0 27 27" fill="none" xmlns="http://www.w3.org/2000/svg">
<g id="Group 17232">
<path id="Oval-2" d="M13.1988 26.8237C20.3926 26.8237 26.2243 20.992 26.2243 13.7982C26.2243 6.60442 20.3926 0.772705 13.1988 0.772705C6.00505 0.772705 0.17334 6.60442 0.17334 13.7982C0.17334 20.992 6.00505 26.8237 13.1988 26.8237Z" fill="black"/>
<path id="Vector" d="M14.4523 12.7682L19.3573 7.06647H18.1947L13.9359 12.0172L10.5342 7.06647H6.61084L11.7545 14.5526L6.61084 20.5314H7.77347L12.2709 15.3036L15.8635 20.5314H19.7868L14.4523 12.7676V12.7682ZM12.8601 14.6189L12.3391 13.8732L8.19239 7.94142H9.97808L13.3248 12.7285L13.8458 13.4742L18.196 19.6969H16.4103L12.8601 14.6195V14.6189Z" fill="white"/>
</g>
</svg>
