<svg width="20" height="24" viewBox="0 0 20 24" fill="none" xmlns="http://www.w3.org/2000/svg">
<g clip-path="url(#clip0_511_1325)">
<path fill-rule="evenodd" clip-rule="evenodd" d="M3.9394 9.84616C2.76789 9.84616 1.81818 10.8105 1.81818 12C1.81818 13.1895 2.76789 14.1539 3.9394 14.1539C5.11091 14.1539 6.06061 13.1895 6.06061 12C6.06061 10.8105 5.11091 9.84616 3.9394 9.84616ZM0 12C0 9.79088 1.76373 8 3.9394 8C6.11507 8 7.87879 9.79088 7.87879 12C7.87879 14.2091 6.11507 16 3.9394 16C1.76373 16 0 14.2091 0 12Z" fill="#27E1C1"/>
<path fill-rule="evenodd" clip-rule="evenodd" d="M13.7751 4.70142C14.063 5.11907 13.963 5.69463 13.5516 5.98699L7.49104 10.2947C7.07972 10.587 6.51288 10.4855 6.22496 10.0678C5.93703 9.65017 6.03707 9.0746 6.44838 8.78225L12.509 4.47456C12.9203 4.18221 13.4871 4.28378 13.7751 4.70142Z" fill="#27E1C1"/>
<path fill-rule="evenodd" clip-rule="evenodd" d="M6.22496 13.9322C6.51288 13.5145 7.07972 13.413 7.49104 13.7053L13.5516 18.013C13.963 18.3054 14.063 18.8809 13.7751 19.2986C13.4871 19.7162 12.9203 19.8178 12.509 19.5254L6.44838 15.2178C6.03707 14.9254 5.93703 14.3498 6.22496 13.9322Z" fill="#27E1C1"/>
<path fill-rule="evenodd" clip-rule="evenodd" d="M16.0606 17.8462C14.8891 17.8462 13.9394 18.8105 13.9394 20C13.9394 21.1895 14.8891 22.1538 16.0606 22.1538C17.2321 22.1538 18.1818 21.1895 18.1818 20C18.1818 18.8105 17.2321 17.8462 16.0606 17.8462ZM12.1212 20C12.1212 17.7909 13.885 16 16.0606 16C18.2363 16 20 17.7909 20 20C20 22.2091 18.2363 24 16.0606 24C13.885 24 12.1212 22.2091 12.1212 20Z" fill="#27E1C1"/>
<path fill-rule="evenodd" clip-rule="evenodd" d="M16.0606 1.84615C14.8891 1.84615 13.9394 2.81047 13.9394 4C13.9394 5.18953 14.8891 6.15385 16.0606 6.15385C17.2321 6.15385 18.1818 5.18953 18.1818 4C18.1818 2.81047 17.2321 1.84615 16.0606 1.84615ZM12.1212 4C12.1212 1.79086 13.885 0 16.0606 0C18.2363 0 20 1.79086 20 4C20 6.20914 18.2363 8 16.0606 8C13.885 8 12.1212 6.20914 12.1212 4Z" fill="#27E1C1"/>
</g>
<defs>
<clipPath id="clip0_511_1325">
<rect width="20" height="24" fill="white"/>
</clipPath>
</defs>
</svg>
