<svg width="65" height="85" viewBox="0 0 65 85" fill="none" xmlns="http://www.w3.org/2000/svg">
<path d="M44.3362 4.39937L44.4019 4.47461L44.4724 4.54532L60.0045 20.1164C61.0744 21.1889 61.5491 22.4559 61.5491 23.6599V76.8442C61.5491 79.6433 59.2543 81.933 56.4805 81.933H8.06864C5.29482 81.933 3 79.6433 3 76.8442V8.08886C3 5.28976 5.29482 3 8.06864 3H40.9483C42.4238 3 43.5701 3.52161 44.3362 4.39937Z" stroke="#298A9A" stroke-width="6"/>
<path d="M48.5815 70.9191H15.9672C13.7249 70.9191 11.8904 69.1036 11.8904 66.8848V42.6788C11.8904 40.46 13.7249 38.6445 15.9672 38.6445H48.5815C50.8237 38.6445 52.6582 40.46 52.6582 42.6788V66.8848C52.6582 69.1036 50.8237 70.9191 48.5815 70.9191Z" fill="#298A9A"/>
<path d="M42.4663 54.7818V60.8333H52.6582V64.8676H42.4663V70.9191H38.3895V38.6445H42.4663V50.7475H52.6582V54.7818H42.4663ZM11.8904 52.7647V56.799H22.0823V60.8333H11.8904V64.8676H22.0823V70.9191H26.1591V52.7647H11.8904Z" fill="#298A9A"/>
</svg>
