<svg width="288" height="288" viewBox="0 0 288 288" fill="none" xmlns="http://www.w3.org/2000/svg">
<path d="M178.975 37.6332L179.107 37.7836L179.248 37.925L222.079 80.825C225.441 84.192 227 88.2525 227 92.1857V238.714C227 247.667 219.665 255 210.75 255H77.25C68.3353 255 61 247.667 61 238.714V49.2857C61 40.3332 68.3353 33 77.25 33H167.919C172.553 33 176.374 34.6554 178.975 37.6332Z" stroke="white" stroke-width="12"/>
<path d="M188.8 222H99.2C93.04 222 88 216.994 88 210.875V144.125C88 138.006 93.04 133 99.2 133H188.8C194.96 133 200 138.006 200 144.125V210.875C200 216.994 194.96 222 188.8 222Z" fill="#FF9800"/>
<path d="M172 177.5V194.187H200V205.312H172V222H160.8V133H172V166.375H200V177.5H172ZM88 171.938V183.062H116V194.187H88V205.312H116V222H127.2V171.938H88Z" fill="#FFD54F"/>
</svg>
