<svg width="65" height="85" viewBox="0 0 65 85" fill="none" xmlns="http://www.w3.org/2000/svg">
<path d="M44.3362 4.39937L44.4019 4.47461L44.4724 4.54532L60.0045 20.1164C61.0744 21.1889 61.5491 22.4559 61.5491 23.6599V76.8442C61.5491 79.6433 59.2543 81.933 56.4805 81.933H8.06864C5.29482 81.933 3 79.6433 3 76.8442V8.08886C3 5.28976 5.29482 3 8.06864 3H40.9483C42.4238 3 43.5701 3.52161 44.3362 4.39937Z" stroke="white" stroke-width="6"/>
<path d="M48.5817 70.9191H15.9674C13.7252 70.9191 11.8906 69.1036 11.8906 66.8848V42.6788C11.8906 40.46 13.7252 38.6445 15.9674 38.6445H48.5817C50.8239 38.6445 52.6585 40.46 52.6585 42.6788V66.8848C52.6585 69.1036 50.8239 70.9191 48.5817 70.9191Z" fill="white"/>
<path d="M42.4665 54.7818V60.8333H52.6585V64.8676H42.4665V70.9191H38.3897V38.6445H42.4665V50.7475H52.6585V54.7818H42.4665ZM11.8906 52.7647V56.799H22.0826V60.8333H11.8906V64.8676H22.0826V70.9191H26.1594V52.7647H11.8906Z" fill="white"/>
</svg>
