<svg width="22" height="22" viewBox="0 0 22 22" fill="none" xmlns="http://www.w3.org/2000/svg">
<path id="Vector" d="M21.6854 16.9746C17.8281 15.0845 17.2128 12.1661 17.1858 11.95C17.1525 11.6874 17.1155 11.4814 17.4011 11.2152C17.6768 10.9571 18.8992 10.1913 19.2388 9.95151C19.7991 9.55491 20.0468 9.15831 19.8649 8.67145C19.7379 8.33411 19.428 8.20738 19.101 8.20738C18.9983 8.20738 18.8956 8.21923 18.7947 8.24202C18.1785 8.37696 17.5804 8.68968 17.2345 8.77447C17.193 8.78541 17.1498 8.79088 17.1074 8.7918C16.9228 8.7918 16.8525 8.70883 16.8705 8.48363C16.9138 7.80166 17.0056 6.47236 16.8993 5.22967C16.7534 3.52018 16.2084 2.67319 15.5625 1.92375C15.2499 1.56088 13.7987 0 10.998 0C8.19733 0 6.74881 1.56088 6.43803 1.91919C5.79033 2.66863 5.24622 3.51562 5.10119 5.22511C4.99489 6.4678 5.09039 7.7971 5.13002 8.47907C5.14263 8.69333 5.07779 8.78724 4.89312 8.78724C4.84988 8.78724 4.80752 8.78085 4.76608 8.76991C4.42017 8.68512 3.82201 8.37331 3.20584 8.23746C3.10495 8.21467 3.00227 8.20282 2.89957 8.20282C2.57167 8.20282 2.26269 8.33137 2.13567 8.66689C1.9537 9.15375 2.19962 9.55035 2.76174 9.94696C3.10135 10.1867 4.32379 10.9517 4.59944 11.2106C4.88501 11.4777 4.84806 11.6838 4.81473 11.9455C4.78771 12.1652 4.17155 15.0836 0.315099 16.97C0.0889916 17.0812 -0.295662 17.3155 0.382662 17.6939C1.44654 18.2893 2.1555 18.2254 2.7059 18.5838C3.17343 18.8883 2.89687 19.5456 3.23648 19.7827C3.65356 20.0744 4.8877 19.7617 6.48217 20.2951C7.819 20.7409 8.63064 22 11.0007 22C13.3708 22 14.2068 20.7345 15.5193 20.2951C17.1101 19.7626 18.347 20.0744 18.765 19.7827C19.1046 19.5456 18.8289 18.8883 19.2955 18.5838C19.846 18.2245 20.554 18.2884 21.6188 17.6939C22.2953 17.3201 21.9107 17.0849 21.6845 16.9746H21.6854Z" fill="white"/>
</svg>
