<svg width="86" height="61" viewBox="0 0 86 61" fill="none" xmlns="http://www.w3.org/2000/svg">
<path d="M86 49.9232V10.6296C86 4.92316 81.3571 0.276367 75.6555 0.276367H10.3445C4.64287 0.276367 0 4.92316 0 10.6296V49.9232C0 55.6296 4.64287 60.2764 10.3445 60.2764H75.6555C81.3571 60.2764 86 55.6296 86 49.9232ZM10.3445 5.34118H75.6555C78.5695 5.34118 80.9395 7.71318 80.9395 10.6296V16.6374H5.06054V10.6296C5.06054 7.71318 7.43054 5.34118 10.3445 5.34118ZM5.06054 49.9232V21.7022H80.9492V49.9232C80.9492 52.8396 78.5792 55.2116 75.6652 55.2116H10.3445C7.43054 55.2116 5.06054 52.8396 5.06054 49.9232Z" fill="white"/>
<path d="M72.8386 42.0791H63.4072C62.0085 42.0791 60.8721 43.2058 60.8721 44.6142C60.8721 46.0226 61.9988 47.1494 63.4072 47.1494H72.8386C74.2373 47.1494 75.3738 46.0226 75.3738 44.6142C75.3738 43.2155 74.2373 42.0791 72.8386 42.0791Z" fill="white"/>
</svg>
