<svg width="86" height="60" viewBox="0 0 86 60" fill="none" xmlns="http://www.w3.org/2000/svg">
<path d="M86 49.6468V10.3532C86 4.64679 81.3571 0 75.6555 0H10.3445C4.64287 0 0 4.64679 0 10.3532V49.6468C0 55.3532 4.64287 60 10.3445 60H75.6555C81.3571 60 86 55.3532 86 49.6468ZM10.3445 5.06481H75.6555C78.5695 5.06481 80.9395 7.43681 80.9395 10.3532V16.361H5.06054V10.3532C5.06054 7.43681 7.43054 5.06481 10.3445 5.06481ZM5.06054 49.6468V21.4258H80.9492V49.6468C80.9492 52.5632 78.5792 54.9352 75.6652 54.9352H10.3445C7.43054 54.9352 5.06054 52.5632 5.06054 49.6468Z" fill="#27E1C1"/>
<path d="M72.8377 41.8027H63.4062C62.0075 41.8027 60.8711 42.9295 60.8711 44.3379C60.8711 45.7463 61.9978 46.873 63.4062 46.873H72.8377C74.2364 46.873 75.3728 45.7463 75.3728 44.3379C75.3728 42.9392 74.2364 41.8027 72.8377 41.8027Z" fill="#27E1C1"/>
</svg>
