<svg width="15" height="20" viewBox="0 0 15 20" fill="none" xmlns="http://www.w3.org/2000/svg">
<path d="M9.89222 20C9.30957 20 8.73294 19.8092 8.27584 19.442C5.77948 17.4374 3.7131 14.931 2.30252 12.1959C0.872001 9.42427 0.0974776 6.4635 0.00103824 3.39852C-0.0270912 2.5216 0.51839 1.71735 1.39136 1.34842L4.0986 0.205218C4.68326 -0.0401436 5.33825 -0.0665012 5.94201 0.131609C6.54677 0.330623 7.02998 0.731369 7.30222 1.25936L8.66142 3.89466C8.93366 4.42263 8.9628 5.01513 8.74279 5.5622C8.52279 6.10927 8.07978 6.54637 7.4961 6.79263L5.81142 7.50327C5.91389 8.47925 6.2032 9.44341 6.67032 10.3503C7.13544 11.2517 7.7633 12.0696 8.53682 12.7802L10.2145 12.0623C11.4179 11.5543 12.8564 12.0259 13.4191 13.1164L14.7783 15.7517C15.0646 16.306 15.0736 16.9194 14.8054 17.4765C14.5392 18.0272 14.0299 18.4743 13.3307 18.7696L10.9026 19.7946C10.5791 19.931 10.2336 19.9973 9.89 19.9973L9.89222 20ZM5.11757 1.45727C5.00305 1.45727 4.88853 1.47908 4.77903 1.52542L2.07178 2.66862C1.78046 2.7913 1.59864 3.06301 1.60767 3.35834C1.69808 6.22442 2.42239 8.99069 3.75947 11.5825C5.07848 14.1396 7.00935 16.4816 9.34292 18.3562C9.58905 18.5534 9.93462 18.6024 10.2249 18.4807L12.653 17.4556C12.9875 17.3148 13.2296 17.1167 13.3341 16.8986C13.4165 16.7268 13.4135 16.5442 13.3241 16.3697L11.9648 13.7344C11.8744 13.5581 11.7137 13.4254 11.5118 13.3582C11.3099 13.2909 11.0919 13.3 10.897 13.3827L9.21332 14.0933C8.59652 14.3532 7.86618 14.2369 7.39404 13.8025C6.49193 12.9729 5.75958 12.0196 5.21713 10.9672C4.67265 9.9094 4.33411 8.78531 4.21257 7.62582C4.15028 7.02516 4.51996 6.4481 5.13476 6.1882L6.81944 5.47666C7.22127 5.30764 7.39607 4.87325 7.2072 4.51069L5.848 1.87538C5.71238 1.61185 5.42104 1.45554 5.11869 1.45554L5.11757 1.45727Z" fill="white"/>
</svg>
