<svg width="25" height="22" viewBox="0 0 25 22" fill="none" xmlns="http://www.w3.org/2000/svg">
<path id="Path-3" fill-rule="evenodd" clip-rule="evenodd" d="M1.71866 9.47021C8.42972 6.36537 12.9045 4.31911 15.1431 3.33018C21.5355 0.506469 22.8639 0.016361 23.7308 0.00018991C23.9217 -0.00354187 24.347 0.0462151 24.6223 0.283805C24.8554 0.484078 24.9198 0.755253 24.9503 0.945574C24.9807 1.13589 25.0194 1.56878 24.9889 1.90837C24.6422 5.77326 23.1439 15.1537 22.3813 19.4826C22.0592 21.3149 21.4231 21.9281 20.8081 21.9891C19.4715 22.1197 18.4559 21.0512 17.1615 20.1493C15.1349 18.7387 13.9904 17.8605 12.0236 16.4847C9.75108 14.8937 11.2247 14.0205 12.5191 12.5912C12.8577 12.2168 18.7487 6.52832 18.8624 6.01209C18.8764 5.94741 18.8893 5.70733 18.7558 5.58045C18.6222 5.45357 18.4231 5.49711 18.279 5.53194C18.0763 5.58045 14.8386 7.8531 8.56912 12.3474C7.65073 13.0179 6.81784 13.3438 6.07282 13.3264C5.25048 13.3077 3.67023 12.8325 2.49413 12.427C1.05211 11.9295 -0.0935371 11.6657 0.0060335 10.8211C0.057576 10.3808 0.629242 9.93046 1.71866 9.47021Z" fill="white"/>
</svg>
