<svg width="17" height="21" viewBox="0 0 17 21" fill="none" xmlns="http://www.w3.org/2000/svg">
<path d="M8.83106 0.417722C9.88737 0.401367 10.9359 0.409872 11.9839 0.401367C12.0187 1.73004 12.5504 2.92592 13.3964 3.8117L13.3951 3.81039C14.3056 4.64188 15.4903 5.18093 16.7963 5.27252L16.8144 5.27383V8.56837C15.5806 8.53697 14.4204 8.24847 13.3744 7.75258L13.4273 7.77483C12.9214 7.52819 12.4936 7.27502 12.0871 6.99241L12.1207 7.01465C12.1129 9.40182 12.1284 11.789 12.1045 14.1676C12.0381 15.3799 11.6406 16.4855 11.003 17.4085L11.016 17.3883C9.94996 18.9361 8.22322 19.9521 6.25965 20.0122H6.25062C6.17125 20.0162 6.07769 20.0181 5.98348 20.0181C4.86715 20.0181 3.82375 19.7028 2.93456 19.1552L2.96038 19.1703C1.34203 18.1831 0.225711 16.494 0.0192238 14.5294L0.0166427 14.5026C0.000510929 14.0937 -0.00723239 13.6848 0.00889941 13.2845C0.325083 10.1581 2.90875 7.7395 6.04929 7.7395C6.40226 7.7395 6.74812 7.77025 7.08431 7.82847L7.04817 7.82324C7.06431 9.03285 7.01591 10.2431 7.01591 11.4527C6.74296 11.3526 6.42807 11.2944 6.09963 11.2944C4.89426 11.2944 3.86892 12.0755 3.4895 13.1661L3.48369 13.1857C3.39787 13.465 3.34818 13.7862 3.34818 14.1186C3.34818 14.2533 3.35657 14.3868 3.37206 14.5176L3.37077 14.5019C3.585 15.8404 4.71681 16.8505 6.08156 16.8505C6.12092 16.8505 6.15964 16.8499 6.19835 16.8479H6.19254C7.13658 16.8191 7.95607 16.3043 8.41938 15.5434L8.42583 15.5316C8.59812 15.2883 8.7162 14.9939 8.75557 14.674L8.75621 14.6648C8.83687 13.2014 8.80461 11.7465 8.81235 10.283C8.82009 6.98848 8.80461 3.70179 8.82848 0.41576L8.83106 0.417722Z" fill="#F4F0EC"/>
</svg>
