<svg width="157" height="157" viewBox="0 0 157 157" fill="none" xmlns="http://www.w3.org/2000/svg">
<g clip-path="url(#clip0_1_2178)" filter="url(#filter0_d_1_2178)">
<path d="M107.01 5.671C120.623 11.3098 132.258 20.8586 140.445 33.11C148.631 45.3615 153 59.7653 153 74.5C153 79.6432 148.831 83.8125 143.688 83.8125C138.544 83.8125 134.375 79.6432 134.375 74.5C134.375 63.449 131.098 52.6462 124.958 43.4575C118.818 34.269 110.093 27.1073 99.8824 22.8783C89.6727 18.6492 78.4381 17.5427 67.5993 19.6986C56.7607 21.8546 46.8047 27.1762 38.9904 34.9904C31.1762 42.8047 25.8546 52.7607 23.6986 63.5993C21.5427 74.4381 22.6492 85.6727 26.8783 95.8824C31.1073 106.093 38.269 114.818 47.4575 120.958C56.6462 127.098 67.449 130.375 78.5 130.375C83.6432 130.375 87.8125 134.544 87.8125 139.688C87.8125 144.831 83.6432 149 78.5 149C63.7653 149 49.3616 144.631 37.11 136.445C24.8586 128.258 15.3098 116.623 9.671 103.01C4.03228 89.3968 2.55693 74.4174 5.43153 59.9658C8.30613 45.5142 15.4016 32.2396 25.8206 21.8206C36.2396 11.4016 49.5142 4.30613 63.9658 1.43153C78.4174 -1.44307 93.3968 0.032279 107.01 5.671ZM113.022 95.8526L125.063 107.893L137.103 95.8526C140.739 92.2158 146.636 92.2158 150.272 95.8526C153.909 99.4892 153.909 105.386 150.272 109.022L138.232 121.063L150.272 133.103C153.909 136.739 153.909 142.636 150.272 146.272C146.636 149.909 140.739 149.909 137.103 146.272L125.063 134.232L113.022 146.272C109.386 149.909 103.489 149.909 99.8526 146.272C96.2158 142.636 96.2158 136.739 99.8526 133.103L111.893 121.063L99.8526 109.022C96.2158 105.386 96.2158 99.4892 99.8526 95.8526C103.489 92.2158 109.386 92.2158 113.022 95.8526ZM78.5 27.9375C83.2757 27.9375 87.2119 31.5325 87.7498 36.164L87.8125 37.25V74.5C87.8125 79.2757 84.2175 83.2119 79.586 83.7498L78.5 83.8125H50.5625C45.4194 83.8125 41.25 79.6431 41.25 74.5C41.25 69.7243 44.845 65.7881 49.4765 65.2502L50.5625 65.1875H69.1875V37.25C69.1875 32.1069 73.3569 27.9375 78.5 27.9375Z" fill="white"/>
</g>
<defs>
<filter id="filter0_d_1_2178" x="0" y="0" width="157" height="157" filterUnits="userSpaceOnUse" color-interpolation-filters="sRGB">
<feFlood flood-opacity="0" result="BackgroundImageFix"/>
<feColorMatrix in="SourceAlpha" type="matrix" values="0 0 0 0 0 0 0 0 0 0 0 0 0 0 0 0 0 0 127 0" result="hardAlpha"/>
<feOffset dy="4"/>
<feGaussianBlur stdDeviation="2"/>
<feComposite in2="hardAlpha" operator="out"/>
<feColorMatrix type="matrix" values="0 0 0 0 0 0 0 0 0 0 0 0 0 0 0 0 0 0 0.25 0"/>
<feBlend mode="normal" in2="BackgroundImageFix" result="effect1_dropShadow_1_2178"/>
<feBlend mode="normal" in="SourceGraphic" in2="effect1_dropShadow_1_2178" result="shape"/>
</filter>
<clipPath id="clip0_1_2178">
<rect width="149" height="149" fill="white" transform="translate(4)"/>
</clipPath>
</defs>
</svg>
