<svg width="122" height="122" viewBox="0 0 122 122" fill="none" xmlns="http://www.w3.org/2000/svg">
<path d="M0.757241 60.6631C0.546898 61.799 1.3462 62.8927 2.48206 63.061C3.61791 63.2293 4.7117 62.4721 4.87998 61.3362C8.70823 37.9881 28.9012 20.9082 52.5859 20.9923C76.481 21.1185 96.8001 38.577 100.46 62.1776C100.628 63.1872 101.512 63.9865 102.521 63.9865C102.606 63.9865 102.732 63.9865 102.816 63.9865C103.952 63.8183 104.751 62.7245 104.583 61.5886C102.69 49.1783 96.4215 37.8198 86.8719 29.6585L91.9202 24.6102C92.7195 23.7688 92.7195 22.4226 91.8781 21.6233C91.0788 20.824 89.7747 20.824 88.9754 21.6233L83.5906 27.0081C77.4906 22.5488 70.5072 19.4358 63.1452 17.9213V10.5172C63.1452 9.33926 62.2197 8.41375 61.0417 8.41375H58.5597C58.8121 7.74065 58.9383 7.02548 58.9383 6.31031C58.9383 2.8186 56.1197 0 52.628 0C49.1363 0 46.3177 2.8186 46.3177 6.31031C46.3177 7.02548 46.4439 7.74065 46.6963 8.41375H44.2142C43.0363 8.41375 42.1108 9.33926 42.1108 10.5172V17.9213C34.6646 19.3937 27.6812 22.5068 21.5392 26.9661L16.2385 21.6654C15.3972 20.8661 14.051 20.8661 13.2517 21.7075C12.4523 22.5068 12.4523 23.8109 13.2517 24.6102L18.2158 29.5743C8.91857 37.5253 2.73447 48.5473 0.757241 60.6631ZM50.4825 6.26824C50.4825 5.09032 51.408 4.1648 52.5859 4.1648C53.7638 4.1648 54.6894 5.09032 54.6894 6.26824C54.6894 7.44617 53.7638 8.37168 52.5859 8.37168C51.408 8.37168 50.4825 7.44617 50.4825 6.26824ZM46.2756 12.5786H58.8962V17.2061C56.7928 16.9537 54.6894 16.7854 52.5859 16.7854C50.4825 16.7854 48.379 16.9537 46.2756 17.2061V12.5786Z" fill="white"/>
<path d="M68.7824 114.974C43.5832 123.892 15.9441 110.725 6.98341 85.5255C6.0579 82.8751 5.34273 80.1827 4.87998 77.4062C4.66963 76.2703 3.61791 75.471 2.48206 75.6814C1.3462 75.8917 0.546898 76.9434 0.757241 78.0793C5.59515 106.728 32.7295 126.038 61.3783 121.2C64.4072 120.695 67.352 119.938 70.2127 118.886C71.3065 118.507 71.8534 117.287 71.4748 116.194C71.0962 115.1 69.8762 114.553 68.7824 114.931V114.974Z" fill="white"/>
<path d="M50.4827 44.13V68.4878L42.7 76.2705C41.8586 77.0699 41.8586 78.4161 42.6579 79.2574C43.4572 80.0988 44.8034 80.0988 45.6448 79.2995C45.6448 79.2995 45.6448 79.2995 45.6869 79.2574L54.1006 70.8437C54.4792 70.4651 54.7316 69.9182 54.7316 69.3713V44.13C54.7316 42.9521 53.8061 42.0266 52.6282 42.0266C51.4503 42.0266 50.5248 42.9521 50.5248 44.13H50.4827Z" fill="white"/>
<path d="M94.6547 67.2679C79.552 67.2679 67.31 79.5099 67.31 94.6125C67.31 109.715 79.552 121.957 94.6547 121.957C109.757 121.957 121.999 109.715 121.999 94.6125C121.999 79.5099 109.757 67.2679 94.6547 67.2679ZM94.6547 117.75C81.8658 117.75 71.5169 107.401 71.5169 94.6125C71.5169 81.8236 81.8658 71.4747 94.6547 71.4747C107.444 71.4747 117.792 81.8236 117.792 94.6125C117.792 107.401 107.444 117.75 94.6547 117.75Z" fill="white"/>
<path d="M94.6546 109.337C95.8163 109.337 96.7581 108.395 96.7581 107.233C96.7581 106.071 95.8163 105.13 94.6546 105.13C93.4929 105.13 92.5512 106.071 92.5512 107.233C92.5512 108.395 93.4929 109.337 94.6546 109.337Z" fill="white"/>
<path d="M94.6546 79.8885C93.4767 79.8885 92.5512 80.814 92.5512 81.9919V98.8194C92.5512 99.9973 93.4767 100.923 94.6546 100.923C95.8326 100.923 96.7581 99.9973 96.7581 98.8194V81.9919C96.7581 80.814 95.8326 79.8885 94.6546 79.8885Z" fill="white"/>
<path d="M2.10344 71.4747C3.26513 71.4747 4.20687 70.533 4.20687 69.3713C4.20687 68.2096 3.26513 67.2679 2.10344 67.2679C0.941741 67.2679 0 68.2096 0 69.3713C0 70.533 0.941741 71.4747 2.10344 71.4747Z" fill="white"/>
</svg>
