<svg width="124" height="124" viewBox="0 0 124 124" fill="none" xmlns="http://www.w3.org/2000/svg">
<path d="M106.077 62.5132C104.193 50.1635 98.0174 38.8446 88.6058 30.6316L93.2737 25.9638L93.2738 25.9639L93.2827 25.9546C94.2603 24.9255 94.2748 23.2654 93.2271 22.2652C92.2321 21.2752 90.6148 21.2767 89.6218 22.2698L84.5386 27.3529C78.5752 23.066 71.7925 20.044 64.6451 18.5153V11.5172C64.6451 10.0631 63.4958 8.91375 62.0417 8.91375H60.2392C60.372 8.38894 60.4383 7.84936 60.4383 7.31031C60.4383 3.54246 57.3958 0.5 53.628 0.5C49.8601 0.5 46.8177 3.54246 46.8177 7.31031C46.8177 7.84936 46.8839 8.38894 47.0168 8.91375H45.2142C43.7602 8.91375 42.6108 10.0631 42.6108 11.5172V18.5121C35.3816 20.0019 28.5948 23.0245 22.592 27.3118L17.5921 22.3118L17.5922 22.3117L17.5829 22.3029C16.5538 21.3253 14.8938 21.3108 13.8936 22.3584C12.9035 23.3534 12.905 24.9707 13.8981 25.9638L18.482 30.5476C9.3233 38.5463 3.23246 49.5262 1.26456 61.5776C1.00526 62.9952 1.99994 64.3469 3.40876 64.5556C4.79728 64.7613 6.16044 63.839 6.37395 62.4135C10.1639 39.31 30.1457 22.4092 53.5837 22.4923C77.2337 22.6174 97.3438 39.8972 100.966 63.2542L100.967 63.2598C101.172 64.4913 102.248 65.4865 103.521 65.4865H103.522H103.522H103.523H103.523H103.524H103.524H103.525H103.525H103.526H103.526H103.527H103.527H103.528H103.528H103.529H103.529H103.53H103.531H103.531H103.532H103.532H103.533H103.533H103.534H103.534H103.535H103.535H103.536H103.536H103.537H103.537H103.538H103.538H103.539H103.539H103.54H103.54H103.541H103.541H103.542H103.542H103.543H103.544H103.544H103.545H103.545H103.546H103.546H103.547H103.547H103.548H103.548H103.549H103.549H103.55H103.55H103.551H103.552H103.552H103.553H103.553H103.554H103.554H103.555H103.555H103.556H103.556H103.557H103.558H103.558H103.559H103.559H103.56H103.56H103.561H103.561H103.562H103.563H103.563H103.564H103.564H103.565H103.565H103.566H103.566H103.567H103.568H103.568H103.569H103.569H103.57H103.57H103.571H103.572H103.572H103.573H103.573H103.574H103.574H103.575H103.576H103.576H103.577H103.577H103.578H103.578H103.579H103.58H103.58H103.581H103.581H103.582H103.582H103.583H103.584H103.584H103.585H103.585H103.586H103.586H103.587H103.588H103.588H103.589H103.589H103.59H103.591H103.591H103.592H103.592H103.593H103.593H103.594H103.595H103.595H103.596H103.596H103.597H103.598H103.598H103.599H103.599H103.6H103.601H103.601H103.602H103.602H103.603H103.604H103.604H103.605H103.605H103.606H103.607H103.607H103.608H103.608H103.609H103.61H103.61H103.611H103.611H103.612H103.613H103.613H103.614H103.614H103.615H103.616H103.616H103.617H103.617H103.618H103.619H103.619H103.62H103.62H103.621H103.622H103.622H103.623H103.623H103.624H103.625H103.625H103.626H103.626H103.627H103.628H103.628H103.629H103.629H103.63H103.631H103.631H103.632H103.632H103.633H103.634H103.634H103.635H103.636H103.636H103.637H103.637H103.638H103.639H103.639H103.64H103.64H103.641H103.642H103.642H103.643H103.643H103.644H103.645H103.645H103.646H103.647H103.647H103.648H103.648H103.649H103.65H103.65H103.651H103.651H103.652H103.653H103.653H103.654H103.655H103.655H103.656H103.656H103.657H103.658H103.658H103.659H103.659H103.66H103.661H103.661H103.662H103.663H103.663H103.664H103.664H103.665H103.666H103.666H103.667H103.667H103.668H103.669H103.669H103.67H103.671H103.671H103.672H103.672H103.673H103.674H103.674H103.675H103.675H103.676H103.677H103.677H103.678H103.679H103.679H103.68H103.68H103.681H103.682H103.682H103.683H103.683H103.684H103.685H103.685H103.686H103.687H103.687H103.688H103.688H103.689H103.69H103.69H103.691H103.691H103.692H103.693H103.693H103.694H103.695H103.695H103.696H103.696H103.697H103.698H103.698H103.699H103.699H103.7H103.701H103.701H103.702H103.703H103.703H103.704H103.704H103.705H103.706H103.706H103.707H103.707H103.708H103.709H103.709H103.71H103.71H103.711H103.712H103.712H103.713H103.713H103.714H103.715H103.715H103.716H103.716H103.717H103.718H103.718H103.719H103.72H103.72H103.721H103.721H103.722H103.723H103.723H103.724H103.724H103.725H103.726H103.726H103.727H103.727H103.728H103.729H103.729H103.73H103.73H103.731H103.732H103.732H103.733H103.733H103.734H103.734H103.735H103.736H103.736H103.737H103.737H103.738H103.739H103.739H103.74H103.74H103.741H103.742H103.742H103.743H103.743H103.744H103.745H103.745H103.746H103.746H103.747H103.747H103.748H103.749H103.749H103.75H103.75H103.751H103.752H103.752H103.753H103.753H103.754H103.754H103.755H103.756H103.756H103.757H103.757H103.758H103.758H103.759H103.76H103.76H103.761H103.761H103.762H103.762H103.763H103.764H103.764H103.765H103.765H103.766H103.766H103.767H103.768H103.768H103.769H103.769H103.77H103.77H103.771H103.772H103.772H103.773H103.773H103.774H103.774H103.775H103.775H103.776H103.777H103.777H103.778H103.778H103.779H103.779H103.78H103.78H103.781H103.782H103.782H103.783H103.783H103.784H103.784H103.785H103.785H103.786H103.786H103.787H103.787H103.788H103.789H103.789H103.79H103.79H103.791H103.791H103.792H103.792H103.793H103.793H103.794H103.794H103.795H103.796H103.796H103.797H103.797H103.798H103.798H103.799H103.799H103.8H103.8H103.801H103.801H103.802H103.802H103.803H103.803H103.804H103.804H103.805H103.805H103.806H103.806H103.807H103.807H103.808H103.808H103.809H103.809H103.81H103.81H103.811H103.811H103.812H103.812H103.813H103.813H103.814H103.814H103.815H103.815H103.816H103.853L103.889 65.4811C105.302 65.2718 106.286 63.9201 106.077 62.5153L106.077 62.5132ZM6.37315 78.324L6.37323 78.324L6.37159 78.3152C6.11609 76.9354 4.82522 75.9241 3.39099 76.1897C2.0126 76.445 1.00194 77.7336 1.26481 79.1662C6.15033 108.085 33.5414 127.576 62.4615 122.693C65.5169 122.183 68.4904 121.419 71.381 120.357C72.7493 119.88 73.4097 118.366 72.9472 117.03C72.4725 115.658 70.9564 114.996 69.6188 115.459L69.2823 115.575V115.619C44.4339 124.212 17.2843 111.187 8.45499 86.3594C7.53807 83.7334 6.83067 81.0691 6.37315 78.324ZM51.0713 44.6301H50.9827V45.1301V69.2807L43.3506 76.9128C42.3033 77.9131 42.3179 79.5728 43.2954 80.6018C44.2952 81.6542 45.9586 81.6411 46.9892 80.662L47.2576 80.407L47.2532 80.3982L55.4542 72.1973C55.9163 71.7352 56.2317 71.0647 56.2317 70.3713V45.1301C56.2317 43.676 55.0823 42.5266 53.6282 42.5266C52.3455 42.5266 51.2999 43.421 51.0713 44.6301ZM51.9825 7.26824C51.9825 6.36646 52.6841 5.6648 53.5859 5.6648C54.4877 5.6648 55.1893 6.36646 55.1893 7.26824C55.1893 8.17002 54.4877 8.87168 53.5859 8.87168C52.6841 8.87168 51.9825 8.17002 51.9825 7.26824ZM47.7756 14.0786H59.3962V17.6446C57.4654 17.4271 55.5278 17.2854 53.5859 17.2854C51.644 17.2854 49.7064 17.4271 47.7756 17.6446V14.0786ZM95.6547 67.7679C80.2758 67.7679 67.81 80.2337 67.81 95.6125C67.81 110.991 80.2758 123.457 95.6547 123.457C111.033 123.457 123.499 110.991 123.499 95.6125C123.499 80.2337 111.033 67.7679 95.6547 67.7679ZM95.6547 118.25C83.1419 118.25 73.0169 108.125 73.0169 95.6125C73.0169 83.0998 83.1419 72.9747 95.6547 72.9747C108.167 72.9747 118.292 83.0998 118.292 95.6125C118.292 108.125 108.167 118.25 95.6547 118.25ZM95.6546 110.837C97.0925 110.837 98.2581 109.671 98.2581 108.233C98.2581 106.795 97.0925 105.63 95.6546 105.63C94.2168 105.63 93.0512 106.795 93.0512 108.233C93.0512 109.671 94.2168 110.837 95.6546 110.837ZM95.6546 80.3885C94.2006 80.3885 93.0512 81.5378 93.0512 82.9919V99.8194C93.0512 101.273 94.2006 102.423 95.6546 102.423C97.1087 102.423 98.2581 101.273 98.2581 99.8194V82.9919C98.2581 81.5378 97.1087 80.3885 95.6546 80.3885ZM3.10344 72.9747C4.54127 72.9747 5.70687 71.8091 5.70687 70.3713C5.70687 68.9335 4.54128 67.7679 3.10344 67.7679C1.6656 67.7679 0.5 68.9335 0.5 70.3713C0.5 71.8091 1.6656 72.9747 3.10344 72.9747Z" fill="#EB522D" stroke="#EB522D"/>
</svg>
