<svg width="62" height="61" viewBox="0 0 62 61" fill="none" xmlns="http://www.w3.org/2000/svg">
<path d="M61.7364 44.4598C61.7178 43.8694 61.4757 43.1853 61.0659 42.7542L47.9261 28.6963C47.0321 27.8904 45.3279 27.5623 44.3315 28.4902C43.3537 29.4086 43.3816 31.1893 44.3594 32.1077L53.5974 41.9763H2.46877C1.10915 41.9763 0.000976562 43.0822 0.000976562 44.4598C0.000976562 45.8375 1.09984 46.9434 2.46877 46.9434H53.5974L44.3594 56.812C43.5213 57.6554 43.363 59.5017 44.3315 60.4295C45.3 61.3573 47.0694 61.0574 47.9261 60.2233L61.0659 46.1749C61.5129 45.6969 61.7364 45.1252 61.7364 44.4692V44.4598Z" fill="#FEC75B"/>
<path d="M-7.1034e-05 16.5406C0.0185523 17.1311 0.260679 17.8152 0.670423 18.2463L13.8102 32.3041C14.7042 33.1101 16.4084 33.4381 17.4048 32.5103C18.3826 31.5919 18.3547 29.8112 17.3769 28.8928L8.13897 19.0242L59.2676 19.0242C60.6272 19.0242 61.7354 17.9183 61.7354 16.5407C61.7354 15.163 60.6365 14.0571 59.2676 14.0571L8.13897 14.0571L17.3769 4.18851C18.215 3.34505 18.3733 1.49878 17.4048 0.570965C16.4363 -0.35685 14.667 -0.0569499 13.8102 0.777145L0.670423 14.8256C0.223428 15.3036 -7.09758e-05 15.8752 -7.10332e-05 16.5313L-7.1034e-05 16.5406Z" fill="#FEC75B"/>
</svg>
