<svg width="62" height="62" viewBox="0 0 62 62" fill="none" xmlns="http://www.w3.org/2000/svg">
<path d="M61.7716 44.7359C61.7529 44.1455 61.5108 43.4614 61.1011 43.0302L47.9613 28.9724C47.0673 28.1664 45.3631 27.8384 44.3667 28.7662C43.3889 29.6847 43.4168 31.4653 44.3946 32.3838L53.6325 42.2524H2.50392C1.14431 42.2524 0.0361328 43.3583 0.0361328 44.7359C0.0361328 46.1136 1.135 47.2195 2.50392 47.2195H53.6325L44.3946 57.0881C43.5565 57.9315 43.3982 59.7778 44.3667 60.7056C45.3351 61.6334 47.1045 61.3335 47.9613 60.4994L61.1011 46.451C61.5481 45.973 61.7716 45.4013 61.7716 44.7453V44.7359Z" fill="white"/>
<path d="M0.0360618 16.8167C0.0546851 17.4072 0.296811 18.0913 0.706556 18.5224L13.8464 32.5802C14.7404 33.3862 16.4445 33.7142 17.441 32.7864C18.4188 31.868 18.3908 30.0873 17.413 29.1689L8.17511 19.3003L59.3037 19.3003C60.6633 19.3003 61.7715 18.1944 61.7715 16.8167C61.7715 15.4391 60.6726 14.3332 59.3037 14.3332L8.17511 14.3332L17.413 4.46461C18.2511 3.62114 18.4095 1.77487 17.441 0.847057C16.4725 -0.0807573 14.7031 0.219143 13.8464 1.05324L0.706556 15.1017C0.259561 15.5797 0.0360618 16.1513 0.0360618 16.8074L0.0360618 16.8167Z" fill="white"/>
</svg>
