<svg width="15" height="15" viewBox="0 0 15 15" fill="none" xmlns="http://www.w3.org/2000/svg">
<path d="M14 7.5C14 3.91015 11.0899 1 7.5 1C3.91015 1 1 3.91015 1 7.5C1 11.0899 3.91015 14 7.5 14C11.0899 14 14 11.0899 14 7.5Z" stroke="#F79F1A" stroke-width="1.5" stroke-linecap="round" stroke-linejoin="round"/>
<path fill-rule="evenodd" clip-rule="evenodd" d="M10.5095 4.38246C10.2129 4.08589 9.73209 4.08589 9.43552 4.38246L7.69432 6.12367L5.95305 4.38245C5.65647 4.08589 5.17563 4.08589 4.87906 4.38247C4.5825 4.67905 4.5825 5.15989 4.87908 5.45646L6.62034 7.19765L4.87907 8.93891C4.5825 9.23548 4.5825 9.71632 4.87907 10.0129C5.17564 10.3095 5.65648 10.3095 5.95306 10.0129L7.69432 8.27163L9.43551 10.0129C9.73208 10.3095 10.2129 10.3095 10.5095 10.0129C10.8061 9.71634 10.8061 9.2355 10.5095 8.93892L8.7683 7.19765L10.5095 5.45645C10.8061 5.15987 10.8061 4.67904 10.5095 4.38246Z" fill="#F79F1A"/>
</svg>
