<svg width="21" height="23" viewBox="0 0 21 23" fill="none" xmlns="http://www.w3.org/2000/svg">
<g id="Group">
<path id="Vector" d="M0 14.3075C0 19.1007 3.89927 23 8.69159 23H12.2232C17.0163 23 20.9156 19.1007 20.9156 14.3075V5.91879C20.9156 5.50803 20.5822 5.17382 20.1706 5.17382C19.7591 5.17382 19.4257 5.50803 19.4257 5.91879V14.3075C19.4257 18.2788 16.1944 21.5092 12.2232 21.5092H8.69159C4.72037 21.5092 1.48994 18.2788 1.48994 14.3075V5.73716C1.48994 5.32556 1.15573 4.99219 0.74497 4.99219C0.333375 4.99219 0 5.32556 0 5.73716V14.3075Z" fill="black"/>
<path id="Vector_2" d="M10.3974 16.7152C10.809 16.7152 11.1432 16.3818 11.1432 15.9702V2.5457L13.8044 5.20726C13.9499 5.35282 14.1403 5.42519 14.3314 5.42519C14.5217 5.42519 14.7129 5.3524 14.8585 5.20726C15.15 4.91571 15.15 4.4443 14.8585 4.15317L10.9249 0.219601C10.9224 0.217091 10.9199 0.215417 10.9182 0.212908C10.9027 0.198268 10.8872 0.183628 10.8709 0.170243C10.8621 0.162714 10.8521 0.156439 10.8442 0.149747C10.8337 0.141381 10.8228 0.133433 10.8124 0.125904C10.8019 0.119211 10.791 0.112937 10.7806 0.107081C10.7701 0.100388 10.7601 0.094114 10.7496 0.088258C10.7392 0.082402 10.7283 0.0786375 10.7178 0.073618C10.7065 0.067762 10.6948 0.0623244 10.6835 0.057305C10.6739 0.0531221 10.663 0.0497756 10.6526 0.0460111C10.6405 0.0409916 10.6279 0.037227 10.6149 0.0330441C10.6045 0.0296978 10.5944 0.0280253 10.584 0.024679C10.571 0.0213327 10.5576 0.0171495 10.5438 0.015058C10.5325 0.0125483 10.5208 0.0117121 10.5095 0.010039C10.4974 0.00836582 10.4849 0.00585612 10.4719 0.00418297C10.4522 0.00250982 10.4326 0.00167269 10.4137 0.000836115C10.4087 0.000836115 10.4041 0 10.3983 0C10.3932 0 10.3886 0.000836115 10.3836 0.000836115C10.3648 0.00167269 10.3451 0.00250982 10.3255 0.00418297C10.3125 0.00585612 10.3 0.00836582 10.2878 0.010039C10.2765 0.0117121 10.2648 0.0125483 10.2535 0.015058C10.2397 0.0175678 10.2268 0.0217509 10.2134 0.024679C10.2029 0.0280253 10.1929 0.0296978 10.1824 0.0330441C10.1695 0.037227 10.1569 0.0414099 10.1448 0.0460111C10.1343 0.0501939 10.1235 0.0535404 10.1138 0.057305C10.1025 0.0623244 10.0908 0.067762 10.0795 0.073618C10.0691 0.0786375 10.0582 0.082402 10.0477 0.088258C10.0373 0.094114 10.0272 0.100388 10.0168 0.107081C10.0063 0.112937 9.99462 0.119211 9.985 0.125904C9.97454 0.133433 9.96367 0.141381 9.95321 0.149747C9.94443 0.156439 9.93522 0.162714 9.92644 0.170243C9.91013 0.18321 9.89465 0.197849 9.87917 0.212908C9.87666 0.215417 9.87415 0.217091 9.87164 0.219601L5.99831 4.09294C5.7076 4.38365 5.7076 4.8559 5.99831 5.14702C6.14387 5.29259 6.33503 5.36495 6.52535 5.36495C6.7165 5.36495 6.90683 5.29217 7.05239 5.14702L9.65372 2.5457V15.9702C9.65246 16.3818 9.98667 16.7152 10.3974 16.7152Z" fill="black"/>
</g>
</svg>
