<svg width="30" height="27" viewBox="0 0 30 27" fill="none" xmlns="http://www.w3.org/2000/svg">
<path d="M22.7778 21.3718H22.7933M20.6 16.6843H24.3333C25.783 16.6843 26.5077 16.6843 27.0795 16.9221C27.8417 17.2393 28.4475 17.8478 28.7632 18.6134C29 19.1878 29 19.9157 29 21.3718C29 22.8279 29 23.5559 28.7632 24.1303C28.4475 24.8959 27.8417 25.5043 27.0795 25.8215C26.5077 26.0593 25.783 26.0593 24.3333 26.0593H5.66667C4.21708 26.0593 3.49228 26.0593 2.92054 25.8215C2.15824 25.5043 1.55258 24.8959 1.23682 24.1303C1 23.5559 1 22.8279 1 21.3718C1 19.9157 1 19.1878 1.23682 18.6134C1.55258 17.8478 2.15824 17.2393 2.92054 16.9221C3.49228 16.6843 4.21708 16.6843 5.66667 16.6843H9.4M15 18.2468V1.05933M15 1.05933L19.6667 5.74683M15 1.05933L10.3333 5.74683" stroke="#B6B6B6" stroke-width="1.5" stroke-linecap="round" stroke-linejoin="round"/>
</svg>
