<svg width="22" height="22" viewBox="0 0 22 22" fill="none" xmlns="http://www.w3.org/2000/svg">
<path d="M21.018 10.2396C21.018 15.8938 16.3986 20.4775 10.6992 20.4775C8.8905 20.4775 7.19149 20.0149 5.71248 19.2048L0 21.0189L1.86213 15.5244C0.923181 13.9823 0.382431 12.1716 0.382431 10.2389C0.383117 4.58467 5.00108 0.000976562 10.7005 0.000976562C16.3993 0.00234728 21.018 4.58536 21.018 10.2396ZM10.6985 1.63351C5.91535 1.63351 2.02456 5.49483 2.02456 10.2416C2.02456 12.125 2.63864 13.8686 3.67696 15.2873L2.59409 18.4831L5.92632 17.4242C7.29704 18.3234 8.93711 18.847 10.6985 18.847C15.4816 18.847 19.3738 14.9864 19.3738 10.2396C19.3752 5.49483 15.4823 1.63351 10.6985 1.63351ZM15.91 12.5979C15.8455 12.4944 15.6769 12.4314 15.4247 12.3053C15.1732 12.1792 13.9279 11.5726 13.6969 11.4904C13.4639 11.4061 13.2953 11.3636 13.1267 11.6151C12.9602 11.8666 12.4749 12.4314 12.3262 12.6C12.1789 12.7679 12.0315 12.7891 11.7786 12.6651C11.5257 12.5376 10.7101 12.2744 9.74378 11.4198C8.99193 10.7536 8.48408 9.93323 8.33742 9.6817C8.18869 9.43086 8.32234 9.29516 8.44776 9.17042C8.56084 9.05734 8.70066 8.87709 8.82745 8.72973C8.95424 8.58375 8.99605 8.48026 9.08035 8.31235C9.16327 8.14443 9.12147 7.99845 9.0591 7.87166C8.99605 7.74555 8.49094 6.51191 8.27916 6.00954C8.06875 5.50785 7.85835 5.59078 7.71031 5.59078C7.56296 5.59078 7.39436 5.57022 7.22576 5.57022C7.05716 5.57022 6.78302 5.63122 6.55205 5.88274C6.32108 6.13427 5.66725 6.74082 5.66725 7.97584C5.66725 9.21223 6.57261 10.4041 6.6994 10.5713C6.82688 10.7378 8.44981 13.3552 11.0206 14.36C13.5928 15.364 13.5928 15.0289 14.0561 14.9864C14.5207 14.9439 15.5529 14.3798 15.7626 13.7945C15.9737 13.2065 15.9737 12.7028 15.91 12.5979Z" fill="#F4F0EC"/>
</svg>
