<svg width="22" height="22" viewBox="0 0 22 22" fill="none" xmlns="http://www.w3.org/2000/svg">
<path id="Vector" fill-rule="evenodd" clip-rule="evenodd" d="M18.7933 3.19709C16.7252 1.13651 13.9754 0.00161551 11.0455 0C5.00775 0 0.0933377 4.89015 0.0917144 10.9006C0.0909028 12.8223 0.595737 14.6979 1.55427 16.3506L0 22L5.8072 20.4838C7.40692 21.353 9.20874 21.8102 11.0414 21.8102H11.0463C17.0832 21.8102 21.9976 16.92 22 10.9087C22.0008 7.99596 20.8629 5.25687 18.7949 3.19628L18.7933 3.19709ZM11.0455 19.9701H11.0414C9.40759 19.9701 7.80543 19.5323 6.40699 18.7076L6.07423 18.5113L2.62805 19.4111L3.54763 16.067L3.33093 15.7246C2.41947 14.2819 1.93817 12.6147 1.93898 10.9023C1.94142 5.9063 6.02553 1.84168 11.0471 1.84168C13.4787 1.84249 15.7643 2.78595 17.4833 4.49919C19.2023 6.21163 20.1487 8.48869 20.1471 10.9095C20.1446 15.9055 16.0605 19.9701 11.043 19.9701H11.0455ZM16.0394 13.1842C15.7659 13.0477 14.4202 12.3893 14.1694 12.2981C13.9186 12.2068 13.736 12.1616 13.5542 12.4346C13.3716 12.7076 12.8473 13.3215 12.6874 13.5024C12.5275 13.6842 12.3684 13.7068 12.0941 13.5703C11.8206 13.4338 10.9383 13.1462 9.89294 12.2189C9.07969 11.4968 8.53022 10.605 8.37032 10.332C8.21043 10.059 8.35328 9.91196 8.48964 9.77625C8.61219 9.65428 8.76315 9.458 8.90032 9.29887C9.03749 9.13974 9.08294 9.02585 9.17384 8.84491C9.26555 8.66317 9.21929 8.50404 9.15111 8.36753C9.08293 8.23102 8.5359 6.89015 8.30702 6.34491C8.08463 5.81422 7.859 5.88611 7.6918 5.87722C7.53191 5.86914 7.35011 5.86753 7.16749 5.86753C6.98487 5.86753 6.68863 5.93538 6.43702 6.2084C6.18623 6.48142 5.4793 7.14055 5.4793 8.48061C5.4793 9.82068 6.45975 11.1163 6.59692 11.2989C6.73408 11.4806 8.52697 14.2318 11.2727 15.412C11.9253 15.6922 12.4358 15.8603 12.8335 15.9863C13.4893 16.1939 14.0858 16.1648 14.5574 16.0945C15.0833 16.0162 16.1766 15.4354 16.4046 14.7989C16.6327 14.1624 16.6327 13.6171 16.5645 13.5032C16.4963 13.3893 16.3137 13.3215 16.0402 13.185L16.0394 13.1842Z" fill="white"/>
</svg>
