<svg width="17" height="18" viewBox="0 0 17 18" fill="none" xmlns="http://www.w3.org/2000/svg">
<path d="M0.359375 0.156833C1.98843 0.156833 3.61729 0.157028 5.24635 0.15625C5.28271 0.15625 5.30507 0.165195 5.32685 0.197083C6.09335 1.31456 6.8614 2.43106 7.62887 3.54794C8.26762 4.47739 8.90618 5.40703 9.54493 6.33667C9.55465 6.35067 9.56496 6.36428 9.57721 6.38139C9.67249 6.27094 9.76543 6.16322 9.85818 6.0555C10.7073 5.06869 11.5563 4.08189 12.4052 3.09508C13.1923 2.18022 13.9794 1.26536 14.7665 0.3505C14.8153 0.293722 14.8634 0.236361 14.9137 0.181139C14.9246 0.169083 14.9441 0.158 14.9596 0.158C15.4315 0.156833 15.9037 0.157028 16.3756 0.157222C16.3797 0.157222 16.3839 0.158389 16.3973 0.160139C14.3393 2.552 12.2847 4.93997 10.2282 7.32989C10.3013 7.43664 10.3735 7.54203 10.446 7.64742C10.9951 8.44639 11.5442 9.24556 12.0935 10.0445C12.628 10.8223 13.1628 11.5999 13.6973 12.3777C14.2448 13.1743 14.7922 13.9711 15.3398 14.7678C15.8605 15.5253 16.3812 16.2829 16.9017 17.0406C16.9148 17.0595 16.9264 17.0793 16.9387 17.0988C15.2923 17.0988 13.646 17.0988 11.9994 17.0988C11.9965 17.0939 11.9938 17.0889 11.9907 17.0842C11.7317 16.7072 11.4725 16.3301 11.2135 15.9531C10.6628 15.1516 10.1121 14.3501 9.56126 13.5488C8.93554 12.6382 8.30982 11.7278 7.6841 10.8174C7.6174 10.7204 7.55071 10.6236 7.48226 10.5242C7.46962 10.5378 7.45971 10.5479 7.45037 10.5584C7.06479 11.0064 6.67921 11.4546 6.29362 11.9028C4.89187 13.5317 3.49032 15.1606 2.08876 16.7896C2.00068 16.8919 1.91454 16.9957 1.82743 17.099C1.34968 17.099 0.871736 17.099 0.393986 17.0986C0.382514 17.0986 0.371042 17.0931 0.359569 17.0902C0.371431 17.078 0.38407 17.0661 0.395153 17.0533C0.663486 16.7416 0.931819 16.4297 1.20015 16.1178C2.15799 15.0046 3.11601 13.8916 4.07404 12.7784C4.89771 11.8212 5.72137 10.8639 6.54524 9.90667C6.63993 9.79661 6.73443 9.68656 6.83029 9.57495C6.7949 9.52361 6.76088 9.47383 6.72665 9.42425C6.16529 8.60739 5.60393 7.79053 5.04276 6.97367C4.54343 6.24703 4.0441 5.52019 3.54476 4.79336C3.07712 4.11281 2.60949 3.43244 2.14185 2.75189C1.63026 2.00736 1.11868 1.26283 0.606708 0.5185C0.525236 0.400083 0.442208 0.283028 0.359958 0.165389C0.359375 0.162667 0.359375 0.15975 0.359375 0.156833ZM2.35418 1.25992C2.36857 1.28169 2.37693 1.29472 2.38587 1.30756C3.22587 2.50883 4.06587 3.71011 4.90587 4.91158C6.0179 6.50194 7.12974 8.0925 8.24176 9.68286C8.92504 10.6601 9.60871 11.6374 10.2922 12.6147C11.0836 13.7464 11.8752 14.878 12.6658 16.0105C12.685 16.0381 12.705 16.0457 12.7367 16.0457C13.4505 16.0449 14.1643 16.0451 14.878 16.0451C14.8931 16.0451 14.9081 16.0451 14.9308 16.0451C14.918 16.0249 14.9102 16.0116 14.9015 15.9992C14.7234 15.7445 14.5451 15.4901 14.3672 15.2354C13.163 13.5128 11.9588 11.7902 10.7546 10.0679C9.81657 8.72619 8.87818 7.38472 7.93999 6.04325C6.83457 4.46242 5.72896 2.88139 4.62432 1.29997C4.6041 1.271 4.58368 1.25933 4.54771 1.25933C3.83546 1.2605 3.12301 1.26011 2.41076 1.26011C2.39462 1.25992 2.37887 1.25992 2.35418 1.25992Z" fill="white"/>
</svg>
